<?xml version="1.0" encoding="UTF-8" standalone="no"?>
<svg
   xmlns:dc="http://purl.org/dc/elements/1.1/"
   xmlns:cc="http://creativecommons.org/ns#"
   xmlns:rdf="http://www.w3.org/1999/02/22-rdf-syntax-ns#"
   xmlns:svg="http://www.w3.org/2000/svg"
   xmlns="http://www.w3.org/2000/svg"
   xmlns:xlink="http://www.w3.org/1999/xlink"
   xmlns:sodipodi="http://sodipodi.sourceforge.net/DTD/sodipodi-0.dtd"
   xmlns:inkscape="http://www.inkscape.org/namespaces/inkscape"
   width="420"
   height="320"
   viewBox="0 0 420 320"
   id="svg2"
   version="1.1"
   inkscape:version="0.47 r22583"
   sodipodi:docname="fsk2.svg">
  <metadata
     id="metadata388">
    <rdf:RDF>
      <cc:Work
         rdf:about="">
        <dc:format>image/svg+xml</dc:format>
        <dc:type
           rdf:resource="http://purl.org/dc/dcmitype/StillImage" />
      </cc:Work>
    </rdf:RDF>
  </metadata>
  <sodipodi:namedview
     pagecolor="#ffffff"
     bordercolor="#666666"
     borderopacity="1"
     objecttolerance="10"
     gridtolerance="10"
     guidetolerance="10"
     inkscape:pageopacity="0"
     inkscape:pageshadow="2"
     inkscape:window-width="640"
     inkscape:window-height="481"
     id="namedview386"
     showgrid="false"
     inkscape:zoom="0.7375"
     inkscape:cx="210"
     inkscape:cy="160"
     inkscape:window-x="0"
     inkscape:window-y="0"
     inkscape:window-maximized="0"
     inkscape:current-layer="g320" />
  <desc
     id="desc4">Produced by GNUPLOT 4.4 patchlevel 0-rc1 </desc>
  <defs
     id="defs6">
    <inkscape:perspective
       sodipodi:type="inkscape:persp3d"
       inkscape:vp_x="0 : 160 : 1"
       inkscape:vp_y="0 : 1000 : 0"
       inkscape:vp_z="420 : 160 : 1"
       inkscape:persp3d-origin="210 : 106.66667 : 1"
       id="perspective390" />
    <circle
       id="gpDot"
       r="0.5"
       stroke-width="0.5" />
    <path
       id="gpPt0"
       stroke-width="0.299"
       stroke="currentColor"
       d="M-1,0 h2 M0,-1 v2" />
    <path
       id="gpPt1"
       stroke-width="0.299"
       stroke="currentColor"
       d="M-1,-1 L1,1 M1,-1 L-1,1" />
    <path
       id="gpPt2"
       stroke-width="0.299"
       stroke="currentColor"
       d="M-1,0 L1,0 M0,-1 L0,1 M-1,-1 L1,1 M-1,1 L1,-1" />
    <rect
       id="gpPt3"
       stroke-width="0.299"
       stroke="currentColor"
       x="-1"
       y="-1"
       width="2"
       height="2" />
    <rect
       id="gpPt4"
       stroke-width="0.299"
       stroke="currentColor"
       fill="currentColor"
       x="-1"
       y="-1"
       width="2"
       height="2" />
    <circle
       id="gpPt5"
       stroke-width="0.299"
       stroke="currentColor"
       cx="0"
       cy="0"
       r="1" />
    <use
       xlink:href="#gpPt5"
       id="gpPt6"
       fill="currentColor"
       stroke="none" />
    <path
       id="gpPt7"
       stroke-width="0.299"
       stroke="currentColor"
       d="M0,-1.33 L-1.33,0.67 L1.33,0.67 z" />
    <use
       xlink:href="#gpPt7"
       id="gpPt8"
       fill="currentColor"
       stroke="none" />
    <use
       xlink:href="#gpPt7"
       id="gpPt9"
       stroke="currentColor"
       transform="rotate(180)" />
    <use
       xlink:href="#gpPt9"
       id="gpPt10"
       fill="currentColor"
       stroke="none" />
    <use
       xlink:href="#gpPt3"
       id="gpPt11"
       stroke="currentColor"
       transform="rotate(45)" />
    <use
       xlink:href="#gpPt11"
       id="gpPt12"
       fill="currentColor"
       stroke="none" />
    <inkscape:perspective
       id="perspective3126"
       inkscape:persp3d-origin="0.5 : 0.33333333 : 1"
       inkscape:vp_z="1 : 0.5 : 1"
       inkscape:vp_y="0 : 1000 : 0"
       inkscape:vp_x="0 : 0.5 : 1"
       sodipodi:type="inkscape:persp3d" />
  </defs>
  <g
     style="fill:none; color:white; stroke:currentColor; stroke-width:1.00; stroke-linecap:butt; stroke-linejoin:miter"
     id="g22" />
  <g
     style="fill:none; color:black; stroke:currentColor; stroke-width:1.00; stroke-linecap:butt; stroke-linejoin:miter"
     id="g24">
    <g
       style="stroke:none; shape-rendering:crispEdges"
       id="g26">
      <polygon
         fill="rgb(255, 255, 255)"
         points="0.0,320.0 419.9,320.0 419.9,0.1 0.0,0.1 "
         id="polygon28" />
    </g>
  </g>
  <g
     style="fill:none; color:cyan; stroke:currentColor; stroke-width:1.00; stroke-linecap:butt; stroke-linejoin:miter"
     id="g30">
    <path
       stroke="rgb(170, 170, 170)"
       d="M53.7,277.2 L404.4,277.2 "
       id="path32" />
  </g>
  <g
     style="fill:none; color:black; stroke:currentColor; stroke-width:1.00; stroke-linecap:butt; stroke-linejoin:miter"
     id="g34">
    <path
       stroke="rgb(  0,   0,   0)"
       d="M53.7,277.2 L60.4,277.2 M404.4,277.2 L397.7,277.2 "
       id="path36" />
    <g
       transform="translate(47.5,280.6)"
       style="stroke:none; fill:rgb(0,0,0); font-family:arial; font-size:9.00pt; text-anchor:end"
       id="g38">
      <text
         id="text40">
        <tspan
           id="tspan42">-90</tspan>
      </text>
    </g>
    <path
       stroke="rgb(  0,   0,   0)"
       d="M53.7,271.3 L57.0,271.3 M404.4,271.3 L401.1,271.3 M53.7,265.4 L57.0,265.4 M404.4,265.4 L401.1,265.4    M53.7,259.6 L57.0,259.6 M404.4,259.6 L401.1,259.6 M53.7,253.7 L57.0,253.7 M404.4,253.7 L401.1,253.7    "
       id="path44" />
  </g>
  <g
     style="fill:none; color:cyan; stroke:currentColor; stroke-width:1.00; stroke-linecap:butt; stroke-linejoin:miter"
     id="g46">
    <path
       stroke="rgb(170, 170, 170)"
       d="M53.7,247.8 L404.4,247.8 "
       id="path48" />
  </g>
  <g
     style="fill:none; color:black; stroke:currentColor; stroke-width:1.00; stroke-linecap:butt; stroke-linejoin:miter"
     id="g50">
    <path
       stroke="rgb(  0,   0,   0)"
       d="M53.7,247.8 L60.4,247.8 M404.4,247.8 L397.7,247.8 "
       id="path52" />
    <g
       transform="translate(47.5,251.2)"
       style="stroke:none; fill:rgb(0,0,0); font-family:arial; font-size:9.00pt; text-anchor:end"
       id="g54">
      <text
         id="text56">
        <tspan
           id="tspan58">-80</tspan>
      </text>
    </g>
    <path
       stroke="rgb(  0,   0,   0)"
       d="M53.7,241.9 L57.0,241.9 M404.4,241.9 L401.1,241.9 M53.7,236.0 L57.0,236.0 M404.4,236.0 L401.1,236.0    M53.7,230.1 L57.0,230.1 M404.4,230.1 L401.1,230.1 M53.7,224.3 L57.0,224.3 M404.4,224.3 L401.1,224.3    "
       id="path60" />
  </g>
  <g
     style="fill:none; color:cyan; stroke:currentColor; stroke-width:1.00; stroke-linecap:butt; stroke-linejoin:miter"
     id="g62">
    <path
       stroke="rgb(170, 170, 170)"
       d="M53.7,218.4 L404.4,218.4 "
       id="path64" />
  </g>
  <g
     style="fill:none; color:black; stroke:currentColor; stroke-width:1.00; stroke-linecap:butt; stroke-linejoin:miter"
     id="g66">
    <path
       stroke="rgb(  0,   0,   0)"
       d="M53.7,218.4 L60.4,218.4 M404.4,218.4 L397.7,218.4 "
       id="path68" />
    <g
       transform="translate(47.5,221.8)"
       style="stroke:none; fill:rgb(0,0,0); font-family:arial; font-size:9.00pt; text-anchor:end"
       id="g70">
      <text
         id="text72">
        <tspan
           id="tspan74">-70</tspan>
      </text>
    </g>
    <path
       stroke="rgb(  0,   0,   0)"
       d="M53.7,212.5 L57.0,212.5 M404.4,212.5 L401.1,212.5 M53.7,206.6 L57.0,206.6 M404.4,206.6 L401.1,206.6    M53.7,200.7 L57.0,200.7 M404.4,200.7 L401.1,200.7 M53.7,194.8 L57.0,194.8 M404.4,194.8 L401.1,194.8    "
       id="path76" />
  </g>
  <g
     style="fill:none; color:cyan; stroke:currentColor; stroke-width:1.00; stroke-linecap:butt; stroke-linejoin:miter"
     id="g78">
    <path
       stroke="rgb(170, 170, 170)"
       d="M53.7,189.0 L404.4,189.0 "
       id="path80" />
  </g>
  <g
     style="fill:none; color:black; stroke:currentColor; stroke-width:1.00; stroke-linecap:butt; stroke-linejoin:miter"
     id="g82">
    <path
       stroke="rgb(  0,   0,   0)"
       d="M53.7,189.0 L60.4,189.0 M404.4,189.0 L397.7,189.0 "
       id="path84" />
    <g
       transform="translate(47.5,192.4)"
       style="stroke:none; fill:rgb(0,0,0); font-family:arial; font-size:9.00pt; text-anchor:end"
       id="g86">
      <text
         id="text88">
        <tspan
           id="tspan90">-60</tspan>
      </text>
    </g>
    <path
       stroke="rgb(  0,   0,   0)"
       d="M53.7,183.1 L57.0,183.1 M404.4,183.1 L401.1,183.1 M53.7,177.2 L57.0,177.2 M404.4,177.2 L401.1,177.2    M53.7,171.3 L57.0,171.3 M404.4,171.3 L401.1,171.3 M53.7,165.4 L57.0,165.4 M404.4,165.4 L401.1,165.4    "
       id="path92" />
  </g>
  <g
     style="fill:none; color:cyan; stroke:currentColor; stroke-width:1.00; stroke-linecap:butt; stroke-linejoin:miter"
     id="g94">
    <path
       stroke="rgb(170, 170, 170)"
       d="M53.7,159.6 L404.4,159.6 "
       id="path96" />
  </g>
  <g
     style="fill:none; color:black; stroke:currentColor; stroke-width:1.00; stroke-linecap:butt; stroke-linejoin:miter"
     id="g98">
    <path
       stroke="rgb(  0,   0,   0)"
       d="M53.7,159.6 L60.4,159.6 M404.4,159.6 L397.7,159.6 "
       id="path100" />
    <g
       transform="translate(47.5,163.0)"
       style="stroke:none; fill:rgb(0,0,0); font-family:arial; font-size:9.00pt; text-anchor:end"
       id="g102">
      <text
         id="text104">
        <tspan
           id="tspan106">-50</tspan>
      </text>
    </g>
    <path
       stroke="rgb(  0,   0,   0)"
       d="M53.7,153.7 L57.0,153.7 M404.4,153.7 L401.1,153.7 M53.7,147.8 L57.0,147.8 M404.4,147.8 L401.1,147.8    M53.7,141.9 L57.0,141.9 M404.4,141.9 L401.1,141.9 M53.7,136.0 L57.0,136.0 M404.4,136.0 L401.1,136.0    "
       id="path108" />
  </g>
  <g
     style="fill:none; color:cyan; stroke:currentColor; stroke-width:1.00; stroke-linecap:butt; stroke-linejoin:miter"
     id="g110">
    <path
       stroke="rgb(170, 170, 170)"
       d="M53.7,130.1 L404.4,130.1 "
       id="path112" />
  </g>
  <g
     style="fill:none; color:black; stroke:currentColor; stroke-width:1.00; stroke-linecap:butt; stroke-linejoin:miter"
     id="g114">
    <path
       stroke="rgb(  0,   0,   0)"
       d="M53.7,130.1 L60.4,130.1 M404.4,130.1 L397.7,130.1 "
       id="path116" />
    <g
       transform="translate(47.5,133.5)"
       style="stroke:none; fill:rgb(0,0,0); font-family:arial; font-size:9.00pt; text-anchor:end"
       id="g118">
      <text
         id="text120">
        <tspan
           id="tspan122">-40</tspan>
      </text>
    </g>
    <path
       stroke="rgb(  0,   0,   0)"
       d="M53.7,124.3 L57.0,124.3 M404.4,124.3 L401.1,124.3 M53.7,118.4 L57.0,118.4 M404.4,118.4 L401.1,118.4    M53.7,112.5 L57.0,112.5 M404.4,112.5 L401.1,112.5 M53.7,106.6 L57.0,106.6 M404.4,106.6 L401.1,106.6    "
       id="path124" />
  </g>
  <g
     style="fill:none; color:cyan; stroke:currentColor; stroke-width:1.00; stroke-linecap:butt; stroke-linejoin:miter"
     id="g126">
    <path
       stroke="rgb(170, 170, 170)"
       d="M53.7,100.7 L404.4,100.7 "
       id="path128" />
  </g>
  <g
     style="fill:none; color:black; stroke:currentColor; stroke-width:1.00; stroke-linecap:butt; stroke-linejoin:miter"
     id="g130">
    <path
       stroke="rgb(  0,   0,   0)"
       d="M53.7,100.7 L60.4,100.7 M404.4,100.7 L397.7,100.7 "
       id="path132" />
    <g
       transform="translate(47.5,104.1)"
       style="stroke:none; fill:rgb(0,0,0); font-family:arial; font-size:9.00pt; text-anchor:end"
       id="g134">
      <text
         id="text136">
        <tspan
           id="tspan138">-30</tspan>
      </text>
    </g>
    <path
       stroke="rgb(  0,   0,   0)"
       d="M53.7,94.9 L57.0,94.9 M404.4,94.9 L401.1,94.9 M53.7,89.0 L57.0,89.0 M404.4,89.0 L401.1,89.0    M53.7,83.1 L57.0,83.1 M404.4,83.1 L401.1,83.1 M53.7,77.2 L57.0,77.2 M404.4,77.2 L401.1,77.2    "
       id="path140" />
  </g>
  <g
     style="fill:none; color:cyan; stroke:currentColor; stroke-width:1.00; stroke-linecap:butt; stroke-linejoin:miter"
     id="g142">
    <path
       stroke="rgb(170, 170, 170)"
       d="M53.7,71.3 L404.4,71.3 "
       id="path144" />
  </g>
  <g
     style="fill:none; color:black; stroke:currentColor; stroke-width:1.00; stroke-linecap:butt; stroke-linejoin:miter"
     id="g146">
    <path
       stroke="rgb(  0,   0,   0)"
       d="M53.7,71.3 L60.4,71.3 M404.4,71.3 L397.7,71.3 "
       id="path148" />
    <g
       transform="translate(47.5,74.7)"
       style="stroke:none; fill:rgb(0,0,0); font-family:arial; font-size:9.00pt; text-anchor:end"
       id="g150">
      <text
         id="text152">
        <tspan
           id="tspan154">-20</tspan>
      </text>
    </g>
    <path
       stroke="rgb(  0,   0,   0)"
       d="M53.7,65.4 L57.0,65.4 M404.4,65.4 L401.1,65.4 M53.7,59.6 L57.0,59.6 M404.4,59.6 L401.1,59.6    M53.7,53.7 L57.0,53.7 M404.4,53.7 L401.1,53.7 M53.7,47.8 L57.0,47.8 M404.4,47.8 L401.1,47.8    "
       id="path156" />
  </g>
  <g
     style="fill:none; color:cyan; stroke:currentColor; stroke-width:1.00; stroke-linecap:butt; stroke-linejoin:miter"
     id="g158">
    <path
       stroke="rgb(170, 170, 170)"
       d="M53.7,41.9 L404.4,41.9 "
       id="path160" />
  </g>
  <g
     style="fill:none; color:black; stroke:currentColor; stroke-width:1.00; stroke-linecap:butt; stroke-linejoin:miter"
     id="g162">
    <path
       stroke="rgb(  0,   0,   0)"
       d="M53.7,41.9 L60.4,41.9 M404.4,41.9 L397.7,41.9 "
       id="path164" />
    <g
       transform="translate(47.5,45.3)"
       style="stroke:none; fill:rgb(0,0,0); font-family:arial; font-size:9.00pt; text-anchor:end"
       id="g166">
      <text
         id="text168">
        <tspan
           id="tspan170">-10</tspan>
      </text>
    </g>
    <path
       stroke="rgb(  0,   0,   0)"
       d="M53.7,36.0 L57.0,36.0 M404.4,36.0 L401.1,36.0 M53.7,30.1 L57.0,30.1 M404.4,30.1 L401.1,30.1    M53.7,24.3 L57.0,24.3 M404.4,24.3 L401.1,24.3 M53.7,18.4 L57.0,18.4 M404.4,18.4 L401.1,18.4    "
       id="path172" />
  </g>
  <g
     style="fill:none; color:cyan; stroke:currentColor; stroke-width:1.00; stroke-linecap:butt; stroke-linejoin:miter"
     id="g174">
    <path
       stroke="rgb(170, 170, 170)"
       d="M53.7,12.5 L404.4,12.5 "
       id="path176" />
  </g>
  <g
     style="fill:none; color:black; stroke:currentColor; stroke-width:1.00; stroke-linecap:butt; stroke-linejoin:miter"
     id="g178">
    <path
       stroke="rgb(  0,   0,   0)"
       d="M53.7,12.5 L60.4,12.5 M404.4,12.5 L397.7,12.5 "
       id="path180" />
    <g
       transform="translate(47.5,15.9)"
       style="stroke:none; fill:rgb(0,0,0); font-family:arial; font-size:9.00pt; text-anchor:end"
       id="g182">
      <text
         id="text184">
        <tspan
           id="tspan186"> 0</tspan>
      </text>
    </g>
  </g>
  <g
     style="fill:none; color:cyan; stroke:currentColor; stroke-width:1.00; stroke-linecap:butt; stroke-linejoin:miter"
     id="g188">
    <path
       stroke="rgb(170, 170, 170)"
       d="M53.7,277.2 L53.7,12.5 "
       id="path190" />
  </g>
  <g
     style="fill:none; color:black; stroke:currentColor; stroke-width:1.00; stroke-linecap:butt; stroke-linejoin:miter"
     id="g192">
    <path
       stroke="rgb(  0,   0,   0)"
       d="M53.7,277.2 L53.7,270.5 M53.7,12.5 L53.7,19.2 "
       id="path194" />
    <g
       transform="translate(53.7,294.0)"
       style="stroke:none; fill:rgb(0,0,0); font-family:arial; font-size:9.00pt; text-anchor:middle"
       id="g196">
      <text
         id="text198">
        <tspan
           id="tspan200"> 0</tspan>
      </text>
    </g>
    <path
       stroke="rgb(  0,   0,   0)"
       d="M58.1,277.2 L58.1,273.9 M58.1,12.5 L58.1,15.8 M62.5,277.2 L62.5,273.9 M62.5,12.5 L62.5,15.8    M66.9,277.2 L66.9,273.9 M66.9,12.5 L66.9,15.8 M71.2,277.2 L71.2,273.9 M71.2,12.5 L71.2,15.8    M75.6,277.2 L75.6,273.9 M75.6,12.5 L75.6,15.8 M80.0,277.2 L80.0,273.9 M80.0,12.5 L80.0,15.8    M84.4,277.2 L84.4,273.9 M84.4,12.5 L84.4,15.8 M88.8,277.2 L88.8,273.9 M88.8,12.5 L88.8,15.8    M93.2,277.2 L93.2,273.9 M93.2,12.5 L93.2,15.8 "
       id="path202" />
  </g>
  <g
     style="fill:none; color:cyan; stroke:currentColor; stroke-width:1.00; stroke-linecap:butt; stroke-linejoin:miter"
     id="g204">
    <path
       stroke="rgb(170, 170, 170)"
       d="M97.5,277.2 L97.5,12.5 "
       id="path206" />
  </g>
  <g
     style="fill:none; color:black; stroke:currentColor; stroke-width:1.00; stroke-linecap:butt; stroke-linejoin:miter"
     id="g208">
    <path
       stroke="rgb(  0,   0,   0)"
       d="M97.5,277.2 L97.5,270.5 M97.5,12.5 L97.5,19.2 "
       id="path210" />
    <g
       transform="translate(97.5,294.0)"
       style="stroke:none; fill:rgb(0,0,0); font-family:arial; font-size:9.00pt; text-anchor:middle"
       id="g212">
      <text
         id="text214">
        <tspan
           id="tspan216"> 5</tspan>
      </text>
    </g>
    <path
       stroke="rgb(  0,   0,   0)"
       d="M101.9,277.2 L101.9,273.9 M101.9,12.5 L101.9,15.8 M106.3,277.2 L106.3,273.9 M106.3,12.5 L106.3,15.8    M110.7,277.2 L110.7,273.9 M110.7,12.5 L110.7,15.8 M115.1,277.2 L115.1,273.9 M115.1,12.5 L115.1,15.8    M119.5,277.2 L119.5,273.9 M119.5,12.5 L119.5,15.8 M123.8,277.2 L123.8,273.9 M123.8,12.5 L123.8,15.8    M128.2,277.2 L128.2,273.9 M128.2,12.5 L128.2,15.8 M132.6,277.2 L132.6,273.9 M132.6,12.5 L132.6,15.8    M137.0,277.2 L137.0,273.9 M137.0,12.5 L137.0,15.8 "
       id="path218" />
  </g>
  <g
     style="fill:none; color:cyan; stroke:currentColor; stroke-width:1.00; stroke-linecap:butt; stroke-linejoin:miter"
     id="g220">
    <path
       stroke="rgb(170, 170, 170)"
       d="M141.4,277.2 L141.4,12.5 "
       id="path222" />
  </g>
  <g
     style="fill:none; color:black; stroke:currentColor; stroke-width:1.00; stroke-linecap:butt; stroke-linejoin:miter"
     id="g224">
    <path
       stroke="rgb(  0,   0,   0)"
       d="M141.4,277.2 L141.4,270.5 M141.4,12.5 L141.4,19.2 "
       id="path226" />
    <g
       transform="translate(141.4,294.0)"
       style="stroke:none; fill:rgb(0,0,0); font-family:arial; font-size:9.00pt; text-anchor:middle"
       id="g228">
      <text
         id="text230">
        <tspan
           id="tspan232"> 10</tspan>
      </text>
    </g>
    <path
       stroke="rgb(  0,   0,   0)"
       d="M145.8,277.2 L145.8,273.9 M145.8,12.5 L145.8,15.8 M150.1,277.2 L150.1,273.9 M150.1,12.5 L150.1,15.8    M154.5,277.2 L154.5,273.9 M154.5,12.5 L154.5,15.8 M158.9,277.2 L158.9,273.9 M158.9,12.5 L158.9,15.8    M163.3,277.2 L163.3,273.9 M163.3,12.5 L163.3,15.8 M167.7,277.2 L167.7,273.9 M167.7,12.5 L167.7,15.8    M172.1,277.2 L172.1,273.9 M172.1,12.5 L172.1,15.8 M176.4,277.2 L176.4,273.9 M176.4,12.5 L176.4,15.8    M180.8,277.2 L180.8,273.9 M180.8,12.5 L180.8,15.8 "
       id="path234" />
  </g>
  <g
     style="fill:none; color:cyan; stroke:currentColor; stroke-width:1.00; stroke-linecap:butt; stroke-linejoin:miter"
     id="g236">
    <path
       stroke="rgb(170, 170, 170)"
       d="M185.2,277.2 L185.2,12.5 "
       id="path238" />
  </g>
  <g
     style="fill:none; color:black; stroke:currentColor; stroke-width:1.00; stroke-linecap:butt; stroke-linejoin:miter"
     id="g240">
    <path
       stroke="rgb(  0,   0,   0)"
       d="M185.2,277.2 L185.2,270.5 M185.2,12.5 L185.2,19.2 "
       id="path242" />
    <g
       transform="translate(185.2,294.0)"
       style="stroke:none; fill:rgb(0,0,0); font-family:arial; font-size:9.00pt; text-anchor:middle"
       id="g244">
      <text
         id="text246">
        <tspan
           id="tspan248"> 15</tspan>
      </text>
    </g>
    <path
       stroke="rgb(  0,   0,   0)"
       d="M189.6,277.2 L189.6,273.9 M189.6,12.5 L189.6,15.8 M194.0,277.2 L194.0,273.9 M194.0,12.5 L194.0,15.8    M198.4,277.2 L198.4,273.9 M198.4,12.5 L198.4,15.8 M202.7,277.2 L202.7,273.9 M202.7,12.5 L202.7,15.8    M207.1,277.2 L207.1,273.9 M207.1,12.5 L207.1,15.8 M211.5,277.2 L211.5,273.9 M211.5,12.5 L211.5,15.8    M215.9,277.2 L215.9,273.9 M215.9,12.5 L215.9,15.8 M220.3,277.2 L220.3,273.9 M220.3,12.5 L220.3,15.8    M224.7,277.2 L224.7,273.9 M224.7,12.5 L224.7,15.8 "
       id="path250" />
  </g>
  <g
     style="fill:none; color:cyan; stroke:currentColor; stroke-width:1.00; stroke-linecap:butt; stroke-linejoin:miter"
     id="g252">
    <path
       stroke="rgb(170, 170, 170)"
       d="M229.0,277.2 L229.0,12.5 "
       id="path254" />
  </g>
  <g
     style="fill:none; color:black; stroke:currentColor; stroke-width:1.00; stroke-linecap:butt; stroke-linejoin:miter"
     id="g256">
    <path
       stroke="rgb(  0,   0,   0)"
       d="M229.0,277.2 L229.0,270.5 M229.0,12.5 L229.0,19.2 "
       id="path258" />
    <g
       transform="translate(229.0,294.0)"
       style="stroke:none; fill:rgb(0,0,0); font-family:arial; font-size:9.00pt; text-anchor:middle"
       id="g260">
      <text
         id="text262">
        <tspan
           id="tspan264"> 20</tspan>
      </text>
    </g>
    <path
       stroke="rgb(  0,   0,   0)"
       d="M233.4,277.2 L233.4,273.9 M233.4,12.5 L233.4,15.8 M237.8,277.2 L237.8,273.9 M237.8,12.5 L237.8,15.8    M242.2,277.2 L242.2,273.9 M242.2,12.5 L242.2,15.8 M246.6,277.2 L246.6,273.9 M246.6,12.5 L246.6,15.8    M251.0,277.2 L251.0,273.9 M251.0,12.5 L251.0,15.8 M255.4,277.2 L255.4,273.9 M255.4,12.5 L255.4,15.8    M259.7,277.2 L259.7,273.9 M259.7,12.5 L259.7,15.8 M264.1,277.2 L264.1,273.9 M264.1,12.5 L264.1,15.8    M268.5,277.2 L268.5,273.9 M268.5,12.5 L268.5,15.8 "
       id="path266" />
  </g>
  <g
     style="fill:none; color:cyan; stroke:currentColor; stroke-width:1.00; stroke-linecap:butt; stroke-linejoin:miter"
     id="g268">
    <path
       stroke="rgb(170, 170, 170)"
       d="M272.9,277.2 L272.9,12.5 "
       id="path270" />
  </g>
  <g
     style="fill:none; color:black; stroke:currentColor; stroke-width:1.00; stroke-linecap:butt; stroke-linejoin:miter"
     id="g272">
    <path
       stroke="rgb(  0,   0,   0)"
       d="M272.9,277.2 L272.9,270.5 M272.9,12.5 L272.9,19.2 "
       id="path274" />
    <g
       transform="translate(272.9,294.0)"
       style="stroke:none; fill:rgb(0,0,0); font-family:arial; font-size:9.00pt; text-anchor:middle"
       id="g276">
      <text
         id="text278">
        <tspan
           id="tspan280"> 25</tspan>
      </text>
    </g>
    <path
       stroke="rgb(  0,   0,   0)"
       d="M277.3,277.2 L277.3,273.9 M277.3,12.5 L277.3,15.8 M281.7,277.2 L281.7,273.9 M281.7,12.5 L281.7,15.8    M286.0,277.2 L286.0,273.9 M286.0,12.5 L286.0,15.8 M290.4,277.2 L290.4,273.9 M290.4,12.5 L290.4,15.8    M294.8,277.2 L294.8,273.9 M294.8,12.5 L294.8,15.8 M299.2,277.2 L299.2,273.9 M299.2,12.5 L299.2,15.8    M303.6,277.2 L303.6,273.9 M303.6,12.5 L303.6,15.8 M308.0,277.2 L308.0,273.9 M308.0,12.5 L308.0,15.8    M312.3,277.2 L312.3,273.9 M312.3,12.5 L312.3,15.8 "
       id="path282" />
  </g>
  <g
     style="fill:none; color:cyan; stroke:currentColor; stroke-width:1.00; stroke-linecap:butt; stroke-linejoin:miter"
     id="g284">
    <path
       stroke="rgb(170, 170, 170)"
       d="M316.7,277.2 L316.7,12.5 "
       id="path286" />
  </g>
  <g
     style="fill:none; color:black; stroke:currentColor; stroke-width:1.00; stroke-linecap:butt; stroke-linejoin:miter"
     id="g288">
    <path
       stroke="rgb(  0,   0,   0)"
       d="M316.7,277.2 L316.7,270.5 M316.7,12.5 L316.7,19.2 "
       id="path290" />
    <g
       transform="translate(316.7,294.0)"
       style="stroke:none; fill:rgb(0,0,0); font-family:arial; font-size:9.00pt; text-anchor:middle"
       id="g292">
      <text
         id="text294">
        <tspan
           id="tspan296"> 30</tspan>
      </text>
    </g>
    <path
       stroke="rgb(  0,   0,   0)"
       d="M321.1,277.2 L321.1,273.9 M321.1,12.5 L321.1,15.8 M325.5,277.2 L325.5,273.9 M325.5,12.5 L325.5,15.8    M329.9,277.2 L329.9,273.9 M329.9,12.5 L329.9,15.8 M334.3,277.2 L334.3,273.9 M334.3,12.5 L334.3,15.8    M338.6,277.2 L338.6,273.9 M338.6,12.5 L338.6,15.8 M343.0,277.2 L343.0,273.9 M343.0,12.5 L343.0,15.8    M347.4,277.2 L347.4,273.9 M347.4,12.5 L347.4,15.8 M351.8,277.2 L351.8,273.9 M351.8,12.5 L351.8,15.8    M356.2,277.2 L356.2,273.9 M356.2,12.5 L356.2,15.8 "
       id="path298" />
  </g>
  <g
     style="fill:none; color:cyan; stroke:currentColor; stroke-width:1.00; stroke-linecap:butt; stroke-linejoin:miter"
     id="g300">
    <path
       stroke="rgb(170, 170, 170)"
       d="M360.6,277.2 L360.6,12.5 "
       id="path302" />
  </g>
  <g
     style="fill:none; color:black; stroke:currentColor; stroke-width:1.00; stroke-linecap:butt; stroke-linejoin:miter"
     id="g304">
    <path
       stroke="rgb(  0,   0,   0)"
       d="M360.6,277.2 L360.6,270.5 M360.6,12.5 L360.6,19.2 "
       id="path306" />
    <g
       transform="translate(360.6,294.0)"
       style="stroke:none; fill:rgb(0,0,0); font-family:arial; font-size:9.00pt; text-anchor:middle"
       id="g308">
      <text
         id="text310">
        <tspan
           id="tspan312"> 35</tspan>
      </text>
    </g>
    <path
       stroke="rgb(  0,   0,   0)"
       d="M364.9,277.2 L364.9,273.9 M364.9,12.5 L364.9,15.8 M369.3,277.2 L369.3,273.9 M369.3,12.5 L369.3,15.8    M373.7,277.2 L373.7,273.9 M373.7,12.5 L373.7,15.8 M378.1,277.2 L378.1,273.9 M378.1,12.5 L378.1,15.8    M382.5,277.2 L382.5,273.9 M382.5,12.5 L382.5,15.8 M386.9,277.2 L386.9,273.9 M386.9,12.5 L386.9,15.8    M391.2,277.2 L391.2,273.9 M391.2,12.5 L391.2,15.8 M395.6,277.2 L395.6,273.9 M395.6,12.5 L395.6,15.8    M400.0,277.2 L400.0,273.9 M400.0,12.5 L400.0,15.8 "
       id="path314" />
  </g>
  <g
     style="fill:none; color:cyan; stroke:currentColor; stroke-width:1.00; stroke-linecap:butt; stroke-linejoin:miter"
     id="g316">
    <path
       stroke="rgb(170, 170, 170)"
       d="M404.4,277.2 L404.4,12.5 "
       id="path318" />
  </g>
  <g
     style="fill:none; color:black; stroke:currentColor; stroke-width:1.00; stroke-linecap:butt; stroke-linejoin:miter"
     id="g320">
    <path
       stroke="rgb(  0,   0,   0)"
       d="M404.4,277.2 L404.4,270.5 M404.4,12.5 L404.4,19.2 "
       id="path322" />
    <g
       transform="translate(404.4,294.0)"
       style="stroke:none; fill:rgb(0,0,0); font-family:arial; font-size:9.00pt; text-anchor:middle"
       id="g324">
      <text
         id="text326">
        <tspan
           id="tspan328"> 40</tspan>
      </text>
    </g>
    <path
       stroke="rgb(  0,   0,   0)"
       d="M53.7,12.5 L53.7,277.2 L404.4,277.2 L404.4,12.5 L53.7,12.5 Z "
       id="path330" />
    <g
       transform="translate(229.0,314.1)"
       style="stroke:none; fill:rgb(0,0,0); font-family:Times; font-size:14.00pt; text-anchor:middle"
       id="g338">
      <text
         id="text340">
        <tspan
           id="tspan342">f, кГц</tspan>
      </text>
    </g>
    <text
       y="23.836006"
       x="-155.07188"
       transform="matrix(0,-1,1,0,0,0)"
       style="font-size:17.5px;text-anchor:middle;color:#000000;fill:#000000;stroke:none;font-family:Times"
       id="text224">
      <tspan
         id="tspan226">|S(f)|</tspan>
      <tspan
         style="font-size:14px"
         font-size="11.2pt"
         dy="-8.75"
         id="tspan228">2</tspan>
      <tspan
         style="font-size:17.5px"
         font-size="14.0pt"
         dy="8.75"
         id="tspan230">, дБ</tspan>
    </text>
  </g>
  <g
     style="fill:none; color:white; stroke:currentColor; stroke-width:1.00; stroke-linecap:butt; stroke-linejoin:miter"
     id="g344">
    <g
       style="stroke:none; shape-rendering:crispEdges"
       id="g346">
      <polygon
         fill="currentColor"
         points="71.2,86.0 167.7,86.0 167.7,27.2 71.2,27.2 "
         id="polygon348" />
    </g>
    <path
       stroke="black"
       d="M71.2,86.0 L71.2,27.2 L167.7,27.2 L167.7,86.0 L71.2,86.0 "
       id="path350" />
  </g>
  <g
     style="fill:none; color:black; stroke:currentColor; stroke-width:1.00; stroke-linecap:butt; stroke-linejoin:miter"
     id="g352">
    <g
       transform="translate(80.0,45.3)"
       style="stroke:none; fill:black; font-family:Times; font-size:12.00pt; text-anchor:start"
       id="g354">
      <text
         id="text356">
        <tspan
           id="tspan358">Br = 1200;</tspan>
      </text>
    </g>
    <g
       transform="translate(80.0,58.7)"
       style="stroke:none; fill:black; font-family:Times; font-size:12.00pt; text-anchor:start"
       id="g360">
      <text
         id="text362">
        <tspan
           id="tspan364"> f</tspan>
        <tspan
           font-size="9.6pt"
           dy="3.60pt"
           id="tspan366">0</tspan>
        <tspan
           font-size="12.0pt"
           dy="-3.60pt"
           id="tspan368"> = 20 кГц;</tspan>
      </text>
    </g>
    <g
       transform="translate(80.0,72.1)"
       style="stroke:none; fill:black; font-family:Times; font-size:12.00pt; text-anchor:start"
       id="g370">
      <text
         id="text372">
        <tspan
           id="tspan374"> m = 2</tspan>
      </text>
    </g>
  </g>
  <a
     xlink:title="Plot #1"
     id="a376">
    <g
       style="fill:none; color:red; stroke:currentColor; stroke-width:1.00; stroke-linecap:butt; stroke-linejoin:miter"
       id="g378">
      <path
         stroke="rgb(255,   0,   0)"
         d="M53.7,167.2 L53.9,165.1 L54.0,165.5 L54.2,165.7 L54.4,165.7 L54.6,165.8 L54.7,166.1 L54.9,166.3    L55.1,165.8 L55.2,166.3 L55.4,167.5 L55.6,167.4 L55.8,167.3 L55.9,167.6 L56.1,168.3 L56.3,168.9    L56.4,169.4 L56.6,169.6 L56.8,169.6 L57.0,169.7 L57.1,170.8 L57.3,171.6 L57.5,172.0 L57.6,172.4    L57.8,172.7 L58.0,173.1 L58.2,173.5 L58.3,173.2 L58.5,173.0 L58.7,173.1 L58.8,174.1 L59.0,175.7    L59.2,173.5 L59.4,173.3 L59.5,173.6 L59.7,174.0 L59.9,174.2 L60.0,173.7 L60.2,173.5 L60.4,173.2    L60.5,172.9 L60.7,172.4 L60.9,171.2 L61.1,170.6 L61.2,170.7 L61.4,170.5 L61.6,170.2 L61.7,169.6    L61.9,168.8 L62.1,168.2 L62.3,168.2 L62.4,168.4 L62.6,167.4 L62.8,166.4 L62.9,166.5 L63.1,166.7    L63.3,166.2 L63.5,166.1 L63.6,165.9 L63.8,165.8 L64.0,165.2 L64.1,165.9 L64.3,165.5 L64.5,164.9    L64.7,165.3 L64.8,165.1 L65.0,165.3 L65.2,165.3 L65.3,165.6 L65.5,165.3 L65.7,165.2 L65.9,166.1    L66.0,166.8 L66.2,166.3 L66.4,166.4 L66.5,166.8 L66.7,167.4 L66.9,168.0 L67.1,168.2 L67.2,168.4    L67.4,168.3 L67.6,168.9 L67.7,170.1 L67.9,170.6 L68.1,171.1 L68.3,171.5 L68.4,171.9 L68.6,172.6    L68.8,172.5 L68.9,172.4 L69.1,172.5 L69.3,172.9 L69.5,175.7 L69.6,174.0 L69.8,173.4 L70.0,173.7    L70.1,174.3 L70.3,174.9 L70.5,174.5 L70.7,174.4 L70.8,174.2 L71.0,174.0 L71.2,173.7 L71.3,172.8    L71.5,171.7 L71.7,171.7 L71.9,171.6 L72.0,171.4 L72.2,170.7 L72.4,170.0 L72.5,169.1 L72.7,168.8    L72.9,168.9 L73.1,168.5 L73.2,167.2 L73.4,166.5 L73.6,167.0 L73.7,166.5 L73.9,166.2 L74.1,165.9    L74.2,165.8 L74.4,165.3 L74.6,164.8 L74.8,166.2 L74.9,164.3 L75.1,164.6 L75.3,164.6 L75.4,164.5    L75.6,164.5 L75.8,164.6 L76.0,164.6 L76.1,164.1 L76.3,164.6 L76.5,165.8 L76.6,165.2 L76.8,165.1    L77.0,165.3 L77.2,165.9 L77.3,166.4 L77.5,166.8 L77.7,167.0 L77.8,167.0 L78.0,167.1 L78.2,168.3    L78.4,169.0 L78.5,169.5 L78.7,170.0 L78.9,170.6 L79.0,171.1 L79.2,171.6 L79.4,171.5 L79.6,171.7    L79.7,172.1 L79.9,173.5 L80.1,174.8 L80.2,173.3 L80.4,173.5 L80.6,174.3 L80.8,174.9 L80.9,175.3    L81.1,174.9 L81.3,175.0 L81.4,174.9 L81.6,174.8 L81.8,174.4 L82.0,173.0 L82.1,172.5 L82.3,172.5    L82.5,172.3 L82.6,171.9 L82.8,171.1 L83.0,170.0 L83.2,169.3 L83.3,169.3 L83.5,169.1 L83.7,167.9    L83.8,166.7 L84.0,166.8 L84.2,166.7 L84.4,166.0 L84.5,165.9 L84.7,165.4 L84.9,165.1 L85.0,164.3    L85.2,165.0 L85.4,164.0 L85.6,163.6 L85.7,163.8 L85.9,163.4 L86.1,163.5 L86.2,163.4 L86.4,163.6    L86.6,163.1 L86.7,163.1 L86.9,163.9 L87.1,164.2 L87.3,163.7 L87.4,163.8 L87.6,164.2 L87.8,164.5    L87.9,165.1 L88.1,165.3 L88.3,165.5 L88.5,165.5 L88.6,166.1 L88.8,167.2 L89.0,167.8 L89.1,168.4    L89.3,168.9 L89.5,169.5 L89.7,170.2 L89.8,170.4 L90.0,170.5 L90.2,171.0 L90.3,171.7 L90.5,174.5    L90.7,173.2 L90.9,173.1 L91.0,173.9 L91.2,174.8 L91.4,175.6 L91.5,175.4 L91.7,175.6 L91.9,175.7    L92.1,175.5 L92.2,175.5 L92.4,174.4 L92.6,173.3 L92.7,173.3 L92.9,173.1 L93.1,172.8 L93.3,172.0    L93.4,170.9 L93.6,169.9 L93.8,169.6 L93.9,169.4 L94.1,168.5 L94.3,167.0 L94.5,166.3 L94.6,166.6    L94.8,165.8 L95.0,165.4 L95.1,165.0 L95.3,164.7 L95.5,163.9 L95.7,163.3 L95.8,163.8 L96.0,162.4    L96.2,162.7 L96.3,162.3 L96.5,162.2 L96.7,162.0 L96.9,162.2 L97.0,162.0 L97.2,161.5 L97.4,161.9    L97.5,163.1 L97.7,162.1 L97.9,162.1 L98.1,162.3 L98.2,162.7 L98.4,163.2 L98.6,163.5 L98.7,163.8    L98.9,163.8 L99.1,164.0 L99.2,165.1 L99.4,165.8 L99.6,166.5 L99.8,167.0 L99.9,167.8 L100.1,168.5    L100.3,169.0 L100.4,169.2 L100.6,169.7 L100.8,170.3 L101.0,172.2 L101.1,173.2 L101.3,172.4 L101.5,173.1    L101.6,174.3 L101.8,175.3 L102.0,175.7 L102.2,175.7 L102.3,176.1 L102.5,176.2 L102.7,176.3 L102.8,175.9    L103.0,174.4 L103.2,174.0 L103.4,173.8 L103.5,173.5 L103.7,172.8 L103.9,171.8 L104.0,170.5 L104.2,169.6    L104.4,169.4 L104.6,168.8 L104.7,167.2 L104.9,166.0 L105.1,165.9 L105.2,165.5 L105.4,164.7 L105.6,164.3    L105.8,163.8 L105.9,163.3 L106.1,162.2 L106.3,162.6 L106.4,161.4 L106.6,161.2 L106.8,161.1 L107.0,160.6    L107.1,160.5 L107.3,160.4 L107.5,160.5 L107.6,160.0 L107.8,160.0 L108.0,161.0 L108.2,160.8 L108.3,160.2    L108.5,160.3 L108.7,160.7 L108.8,160.9 L109.0,161.4 L109.2,161.7 L109.4,161.9 L109.5,161.9 L109.7,162.6    L109.9,163.5 L110.0,164.3 L110.2,164.9 L110.4,165.6 L110.6,166.4 L110.7,167.1 L110.9,167.5 L111.1,168.0    L111.2,168.8 L111.4,169.7 L111.6,172.3 L111.8,171.7 L111.9,172.1 L112.1,173.3 L112.3,174.6 L112.4,175.7    L112.6,175.8 L112.8,176.3 L112.9,176.8 L113.1,176.8 L113.3,176.9 L113.5,175.6 L113.6,174.6 L113.8,174.4    L114.0,174.0 L114.1,173.5 L114.3,172.5 L114.5,171.0 L114.7,169.7 L114.8,169.2 L115.0,168.7 L115.2,167.4    L115.3,165.7 L115.5,164.9 L115.7,164.9 L115.9,163.9 L116.0,163.3 L116.2,162.7 L116.4,162.3 L116.5,161.3    L116.7,160.5 L116.9,160.3 L117.1,159.4 L117.2,159.5 L117.4,159.0 L117.6,158.7 L117.7,158.5 L117.9,158.6    L118.1,158.3 L118.3,157.9 L118.4,158.3 L118.6,159.5 L118.8,158.1 L118.9,158.2 L119.1,158.3 L119.3,158.6    L119.5,159.1 L119.6,159.3 L119.8,159.7 L120.0,159.7 L120.1,160.0 L120.3,161.0 L120.5,161.9 L120.7,162.6    L120.8,163.2 L121.0,164.1 L121.2,164.9 L121.3,165.5 L121.5,165.9 L121.7,166.8 L121.9,167.6 L122.0,169.7    L122.2,170.7 L122.4,170.7 L122.5,171.9 L122.7,173.6 L122.9,174.9 L123.1,175.6 L123.2,176.1 L123.4,176.8    L123.6,177.2 L123.7,177.5 L123.9,177.0 L124.1,175.4 L124.3,174.9 L124.4,174.5 L124.6,174.0 L124.8,173.0    L124.9,171.5 L125.1,169.8 L125.3,168.8 L125.4,168.3 L125.6,167.3 L125.8,165.3 L126.0,163.9 L126.1,163.7    L126.3,162.9 L126.5,162.0 L126.6,161.4 L126.8,160.8 L127.0,160.0 L127.2,158.8 L127.3,158.7 L127.5,157.5    L127.7,157.4 L127.8,157.1 L128.0,156.6 L128.2,156.3 L128.4,156.3 L128.5,156.2 L128.7,155.7 L128.9,155.7    L129.0,157.0 L129.2,156.2 L129.4,155.8 L129.6,155.8 L129.7,156.2 L129.9,156.3 L130.1,156.7 L130.2,157.1    L130.4,157.3 L130.6,157.4 L130.8,158.1 L130.9,159.0 L131.1,159.8 L131.3,160.5 L131.4,161.4 L131.6,162.2    L131.8,163.0 L132.0,163.5 L132.1,164.3 L132.3,165.4 L132.5,166.7 L132.6,169.0 L132.8,169.1 L133.0,170.0    L133.2,171.8 L133.3,173.6 L133.5,174.9 L133.7,175.5 L133.8,176.6 L134.0,177.4 L134.2,177.8 L134.4,178.1    L134.5,176.5 L134.7,175.4 L134.9,174.9 L135.0,174.2 L135.2,173.3 L135.4,171.9 L135.6,169.9 L135.7,168.2    L135.9,167.5 L136.1,166.5 L136.2,164.8 L136.4,162.8 L136.6,162.0 L136.8,161.5 L136.9,160.3 L137.1,159.7    L137.3,158.9 L137.4,158.3 L137.6,157.2 L137.8,156.2 L138.0,155.5 L138.1,154.9 L138.3,154.8 L138.5,154.2    L138.6,153.9 L138.8,153.6 L139.0,153.7 L139.1,153.3 L139.3,153.0 L139.5,153.4 L139.7,154.4 L139.8,152.9    L140.0,153.1 L140.2,153.2 L140.3,153.3 L140.5,153.8 L140.7,154.1 L140.9,154.4 L141.0,154.5 L141.2,154.8    L141.4,155.8 L141.5,156.7 L141.7,157.5 L141.9,158.2 L142.1,159.2 L142.2,160.0 L142.4,160.7 L142.6,161.4    L142.7,162.6 L142.9,163.7 L143.1,165.9 L143.3,167.0 L143.4,167.7 L143.6,169.4 L143.8,171.6 L143.9,173.5    L144.1,174.6 L144.3,175.8 L144.5,177.0 L144.6,177.8 L144.8,178.5 L145.0,177.8 L145.1,176.0 L145.3,175.2    L145.5,174.4 L145.7,173.3 L145.8,171.9 L146.0,169.8 L146.2,167.7 L146.3,166.3 L146.5,165.3 L146.7,163.8    L146.9,161.6 L147.0,160.0 L147.2,159.6 L147.4,158.4 L147.5,157.4 L147.7,156.7 L147.9,155.9 L148.1,155.0    L148.2,153.7 L148.4,153.1 L148.6,152.1 L148.7,152.0 L148.9,151.5 L149.1,151.0 L149.3,150.6 L149.4,150.5    L149.6,150.4 L149.8,150.0 L149.9,149.8 L150.1,151.5 L150.3,150.1 L150.5,149.8 L150.6,149.8 L150.8,150.1    L151.0,150.2 L151.1,150.6 L151.3,151.0 L151.5,151.3 L151.6,151.4 L151.8,152.1 L152.0,152.9 L152.2,153.9    L152.3,154.6 L152.5,155.6 L152.7,156.5 L152.8,157.3 L153.0,158.0 L153.2,159.1 L153.4,160.4 L153.5,162.0    L153.7,164.1 L153.9,164.9 L154.0,166.4 L154.2,168.8 L154.4,171.2 L154.6,172.9 L154.7,174.3 L154.9,176.1    L155.1,177.6 L155.2,178.4 L155.4,178.8 L155.6,176.9 L155.8,175.5 L155.9,174.4 L156.1,173.0 L156.3,171.5    L156.4,169.4 L156.6,166.9 L156.8,164.6 L157.0,163.5 L157.1,162.1 L157.3,160.0 L157.5,157.9 L157.6,156.9    L157.8,156.0 L158.0,154.6 L158.2,153.9 L158.3,152.9 L158.5,152.2 L158.7,150.9 L158.8,149.8 L159.0,148.9    L159.2,148.5 L159.4,148.2 L159.5,147.6 L159.7,147.1 L159.9,146.8 L160.0,146.8 L160.2,146.4 L160.4,146.1    L160.6,146.8 L160.7,147.3 L160.9,145.9 L161.1,146.0 L161.2,146.2 L161.4,146.2 L161.6,146.6 L161.8,146.9    L161.9,147.3 L162.1,147.4 L162.3,147.8 L162.4,148.7 L162.6,149.6 L162.8,150.5 L163.0,151.3 L163.1,152.3    L163.3,153.2 L163.5,153.9 L163.6,154.9 L163.8,156.3 L164.0,157.7 L164.1,159.9 L164.3,161.3 L164.5,162.6    L164.7,164.9 L164.8,167.7 L165.0,170.2 L165.2,172.1 L165.3,174.2 L165.5,176.4 L165.7,177.9 L165.9,179.2    L166.0,178.0 L166.2,175.9 L166.4,174.3 L166.5,172.5 L166.7,170.7 L166.9,168.4 L167.1,165.6 L167.2,162.9    L167.4,161.0 L167.6,159.5 L167.7,157.7 L167.9,155.2 L168.1,153.5 L168.3,152.6 L168.4,151.2 L168.6,150.2    L168.8,149.3 L168.9,148.4 L169.1,147.4 L169.3,145.9 L169.5,145.1 L169.6,144.2 L169.8,144.0 L170.0,143.4    L170.1,142.8 L170.3,142.4 L170.5,142.3 L170.7,142.1 L170.8,141.7 L171.0,141.6 L171.2,143.5 L171.3,141.5    L171.5,141.4 L171.7,141.4 L171.9,141.6 L172.0,141.7 L172.2,142.0 L172.4,142.4 L172.5,142.7 L172.7,142.9    L172.9,143.5 L173.1,144.4 L173.2,145.4 L173.4,146.1 L173.6,147.1 L173.7,148.1 L173.9,148.9 L174.1,149.8    L174.3,151.2 L174.4,152.6 L174.6,154.4 L174.8,156.4 L174.9,157.8 L175.1,160.0 L175.3,162.8 L175.5,166.0    L175.6,168.5 L175.8,171.1 L176.0,174.0 L176.1,176.7 L176.3,178.6 L176.5,179.0 L176.7,176.5 L176.8,174.0    L177.0,171.6 L177.2,169.2 L177.3,166.6 L177.5,163.5 L177.7,160.3 L177.8,157.6 L178.0,155.8 L178.2,154.0    L178.4,151.5 L178.5,149.4 L178.7,148.1 L178.9,146.8 L179.0,145.4 L179.2,144.5 L179.4,143.4 L179.6,142.5    L179.7,141.2 L179.9,140.0 L180.1,138.9 L180.2,138.6 L180.4,138.2 L180.6,137.5 L180.8,136.9 L180.9,136.5    L181.1,136.5 L181.3,136.1 L181.4,135.8 L181.6,136.7 L181.8,136.6 L182.0,135.4 L182.1,135.5 L182.3,135.6    L182.5,135.5 L182.6,135.8 L182.8,136.2 L183.0,136.7 L183.2,136.8 L183.3,137.0 L183.5,137.9 L183.7,138.9    L183.8,139.7 L184.0,140.6 L184.2,141.7 L184.4,142.4 L184.5,143.3 L184.7,144.5 L184.9,146.0 L185.0,147.6    L185.2,149.8 L185.4,151.5 L185.6,153.4 L185.7,156.2 L185.9,159.6 L186.1,162.9 L186.2,166.1 L186.4,169.6    L186.6,173.5 L186.8,176.8 L186.9,179.2 L187.1,177.2 L187.3,173.7 L187.4,170.0 L187.6,166.7 L187.8,163.4    L188.0,159.9 L188.1,156.2 L188.3,152.8 L188.5,150.5 L188.6,148.5 L188.8,146.2 L189.0,143.7 L189.2,141.9    L189.3,140.6 L189.5,138.9 L189.7,137.9 L189.8,136.7 L190.0,135.7 L190.2,134.6 L190.3,133.1 L190.5,132.0    L190.7,131.3 L190.9,131.0 L191.0,130.2 L191.2,129.5 L191.4,129.0 L191.5,128.8 L191.7,128.5 L191.9,128.2    L192.1,128.1 L192.2,130.0 L192.4,127.6 L192.6,127.6 L192.7,127.5 L192.9,127.5 L193.1,127.6 L193.3,127.9    L193.4,128.3 L193.6,128.5 L193.8,128.6 L193.9,129.2 L194.1,130.0 L194.3,130.9 L194.5,131.7 L194.6,132.7    L194.8,133.6 L195.0,134.3 L195.1,135.4 L195.3,136.8 L195.5,138.3 L195.7,140.3 L195.8,142.3 L196.0,144.1    L196.2,146.7 L196.3,149.9 L196.5,153.9 L196.7,157.5 L196.9,161.8 L197.0,166.5 L197.2,172.1 L197.4,177.0    L197.5,177.6 L197.7,172.7 L197.9,166.9 L198.1,161.8 L198.2,157.6 L198.4,153.3 L198.6,149.1 L198.7,145.2    L198.9,142.0 L199.1,139.6 L199.3,137.4 L199.4,134.7 L199.6,132.5 L199.8,130.9 L199.9,129.2 L200.1,127.8    L200.3,126.7 L200.5,125.3 L200.6,124.2 L200.8,122.8 L201.0,121.4 L201.1,120.3 L201.3,119.9 L201.5,119.2    L201.7,118.4 L201.8,117.6 L202.0,117.1 L202.2,116.8 L202.3,116.4 L202.5,116.0 L202.7,117.1 L202.9,116.2    L203.0,115.2 L203.2,115.1 L203.4,114.9 L203.5,114.7 L203.7,114.9 L203.9,115.2 L204.0,115.5 L204.2,115.5    L204.4,115.5 L204.6,116.1 L204.7,117.0 L204.9,117.7 L205.1,118.4 L205.2,119.3 L205.4,119.9 L205.6,120.8    L205.8,122.0 L205.9,123.3 L206.1,124.9 L206.3,126.9 L206.4,128.7 L206.6,130.9 L206.8,133.8 L207.0,137.6    L207.1,141.7 L207.3,146.1 L207.5,151.5 L207.6,158.3 L207.8,167.5 L208.0,174.4 L208.2,168.3 L208.3,158.3    L208.5,150.2 L208.7,144.2 L208.8,138.8 L209.0,133.8 L209.2,129.1 L209.4,125.2 L209.5,122.2 L209.7,119.5    L209.9,116.6 L210.0,114.1 L210.2,111.9 L210.4,109.9 L210.6,107.9 L210.7,106.4 L210.9,104.7 L211.1,103.1    L211.2,101.5 L211.4,99.7 L211.6,98.2 L211.8,97.2 L211.9,96.3 L212.1,95.0 L212.3,93.8 L212.4,92.6    L212.6,91.8 L212.8,91.0 L213.0,90.1 L213.1,89.6 L213.3,90.4 L213.5,87.6 L213.6,86.9 L213.8,86.1    L214.0,85.1 L214.2,84.6 L214.3,84.0 L214.5,83.6 L214.7,83.0 L214.8,82.0 L215.0,81.5 L215.2,81.3    L215.4,81.0 L215.5,80.6 L215.7,80.3 L215.9,79.7 L216.0,79.1 L216.2,78.9 L216.4,78.6 L216.5,78.2    L216.7,78.2 L216.9,77.9 L217.1,77.4 L217.2,77.3 L217.4,77.6 L217.6,77.9 L217.7,77.9 L217.9,77.2    L218.1,75.4 L218.3,54.3 L218.4,33.6 L218.6,32.4 L218.8,50.9 L218.9,74.5 L219.1,77.1 L219.3,77.9    L219.5,78.0 L219.6,77.7 L219.8,77.3 L220.0,77.4 L220.1,77.9 L220.3,78.3 L220.5,78.2 L220.7,78.7    L220.8,79.0 L221.0,79.2 L221.2,79.6 L221.3,80.3 L221.5,80.5 L221.7,80.8 L221.9,81.2 L222.0,81.4    L222.2,81.9 L222.4,83.0 L222.5,83.6 L222.7,83.9 L222.9,84.5 L223.1,84.9 L223.2,85.8 L223.4,86.7    L223.6,87.4 L223.7,89.7 L223.9,89.5 L224.1,89.8 L224.3,90.6 L224.4,91.2 L224.6,92.1 L224.8,93.2    L224.9,94.3 L225.1,95.7 L225.3,96.6 L225.5,97.2 L225.6,98.4 L225.8,99.9 L226.0,101.5 L226.1,103.1    L226.3,104.7 L226.5,106.2 L226.7,108.2 L226.8,110.3 L227.0,112.3 L227.2,114.1 L227.3,117.0 L227.5,119.5    L227.7,122.0 L227.9,125.6 L228.0,130.0 L228.2,134.4 L228.4,139.6 L228.5,145.1 L228.7,153.1 L228.9,163.1    L229.0,170.8 L229.2,162.5 L229.4,152.8 L229.6,145.0 L229.7,139.3 L229.9,134.4 L230.1,130.1 L230.2,125.6    L230.4,122.0 L230.6,119.6 L230.8,117.0 L230.9,114.2 L231.1,112.3 L231.3,110.3 L231.4,108.2 L231.6,106.2    L231.8,104.7 L232.0,103.1 L232.1,101.5 L232.3,100.0 L232.5,98.4 L232.6,97.2 L232.8,96.6 L233.0,95.7    L233.2,94.3 L233.3,93.2 L233.5,92.1 L233.7,91.3 L233.8,90.6 L234.0,89.7 L234.2,89.5 L234.4,89.7    L234.5,87.4 L234.7,86.7 L234.9,85.8 L235.0,84.9 L235.2,84.5 L235.4,83.9 L235.6,83.6 L235.7,83.0    L235.9,81.9 L236.1,81.4 L236.2,81.2 L236.4,80.8 L236.6,80.5 L236.8,80.3 L236.9,79.6 L237.1,79.2    L237.3,79.0 L237.4,78.7 L237.6,78.3 L237.8,78.3 L238.0,77.9 L238.1,77.4 L238.3,77.3 L238.5,77.7    L238.6,77.9 L238.8,77.8 L239.0,77.1 L239.2,74.8 L239.3,50.4 L239.5,31.8 L239.7,33.0 L239.8,53.9    L240.0,75.7 L240.2,77.2 L240.4,77.9 L240.5,77.9 L240.7,77.6 L240.9,77.3 L241.0,77.4 L241.2,77.9    L241.4,78.2 L241.6,78.2 L241.7,78.6 L241.9,78.9 L242.1,79.1 L242.2,79.7 L242.4,80.3 L242.6,80.6    L242.7,81.0 L242.9,81.3 L243.1,81.5 L243.3,82.0 L243.4,83.0 L243.6,83.6 L243.8,84.0 L243.9,84.6    L244.1,85.1 L244.3,86.1 L244.5,86.9 L244.6,87.6 L244.8,90.4 L245.0,89.6 L245.1,90.1 L245.3,91.0    L245.5,91.8 L245.7,92.6 L245.8,93.7 L246.0,95.0 L246.2,96.3 L246.3,97.2 L246.5,98.2 L246.7,99.7    L246.9,101.5 L247.0,103.1 L247.2,104.6 L247.4,106.4 L247.5,107.8 L247.7,109.9 L247.9,111.9 L248.1,114.1    L248.2,116.5 L248.4,119.4 L248.6,122.1 L248.7,125.3 L248.9,129.1 L249.1,133.9 L249.3,139.1 L249.4,144.6    L249.6,150.7 L249.8,158.7 L249.9,168.4 L250.1,174.2 L250.3,167.2 L250.5,158.3 L250.6,151.7 L250.8,146.5    L251.0,141.7 L251.1,137.5 L251.3,133.7 L251.5,130.9 L251.7,128.6 L251.8,126.9 L252.0,124.8 L252.2,123.4    L252.3,122.0 L252.5,120.8 L252.7,119.8 L252.9,119.3 L253.0,118.3 L253.2,117.6 L253.4,117.0 L253.5,116.1    L253.7,115.6 L253.9,115.6 L254.1,115.5 L254.2,115.2 L254.4,114.8 L254.6,114.7 L254.7,114.9 L254.9,115.2    L255.1,115.3 L255.2,116.2 L255.4,117.1 L255.6,116.0 L255.8,116.5 L255.9,116.8 L256.1,117.0 L256.3,117.6    L256.4,118.3 L256.6,119.3 L256.8,119.9 L257.0,120.3 L257.1,121.4 L257.3,122.7 L257.5,124.0 L257.6,125.1    L257.8,126.6 L258.0,127.7 L258.2,129.0 L258.3,130.9 L258.5,132.6 L258.7,134.6 L258.8,137.1 L259.0,139.4    L259.2,142.2 L259.4,145.1 L259.5,149.0 L259.7,153.5 L259.9,158.3 L260.0,162.5 L260.2,167.7 L260.4,173.2    L260.6,177.8 L260.7,176.7 L260.9,171.4 L261.1,166.6 L261.2,162.3 L261.4,157.9 L261.6,153.7 L261.8,149.7    L261.9,146.7 L262.1,144.0 L262.3,142.1 L262.4,140.2 L262.6,138.4 L262.8,136.9 L263.0,135.4 L263.1,134.1    L263.3,133.5 L263.5,132.6 L263.6,131.6 L263.8,130.8 L264.0,130.0 L264.2,129.2 L264.3,128.7 L264.5,128.6    L264.7,128.3 L264.8,127.8 L265.0,127.5 L265.2,127.4 L265.4,127.5 L265.5,127.7 L265.7,127.7 L265.9,129.9    L266.0,128.1 L266.2,128.2 L266.4,128.5 L266.6,128.6 L266.7,128.9 L266.9,129.5 L267.1,130.2 L267.2,131.0    L267.4,131.4 L267.6,132.1 L267.8,133.1 L267.9,134.5 L268.1,135.5 L268.3,136.5 L268.4,137.8 L268.6,138.7    L268.8,140.5 L268.9,142.1 L269.1,143.8 L269.3,145.8 L269.5,148.1 L269.6,150.4 L269.8,153.0 L270.0,156.0    L270.1,159.9 L270.3,164.1 L270.5,167.5 L270.7,170.9 L270.8,174.4 L271.0,177.7 L271.2,179.0 L271.3,176.2    L271.5,172.8 L271.7,170.1 L271.9,166.7 L272.0,163.0 L272.2,159.3 L272.4,156.0 L272.5,153.4 L272.7,151.2    L272.9,149.6 L273.1,147.5 L273.2,146.2 L273.4,144.6 L273.6,143.1 L273.7,142.2 L273.9,141.6 L274.1,140.5    L274.3,139.6 L274.4,138.8 L274.6,137.9 L274.8,137.2 L274.9,137.0 L275.1,136.8 L275.3,136.3 L275.5,135.8    L275.6,135.4 L275.8,135.5 L276.0,135.7 L276.1,135.5 L276.3,136.6 L276.5,136.6 L276.7,135.8 L276.8,136.2    L277.0,136.4 L277.2,136.3 L277.3,136.8 L277.5,137.4 L277.7,138.3 L277.9,138.7 L278.0,139.0 L278.2,139.9    L278.4,141.2 L278.5,142.3 L278.7,143.1 L278.9,144.4 L279.1,145.2 L279.2,146.4 L279.4,148.3 L279.6,149.7    L279.7,151.4 L279.9,153.5 L280.1,155.5 L280.3,157.9 L280.4,160.2 L280.6,163.4 L280.8,167.0 L280.9,170.2    L281.1,172.4 L281.3,174.9 L281.4,177.3 L281.6,179.3 L281.8,178.2 L282.0,175.7 L282.1,173.9 L282.3,171.9    L282.5,168.9 L282.6,165.6 L282.8,162.5 L283.0,160.0 L283.2,157.7 L283.3,156.1 L283.5,154.2 L283.7,152.7    L283.8,151.3 L284.0,149.8 L284.2,148.5 L284.4,148.0 L284.5,147.0 L284.7,146.0 L284.9,145.1 L285.0,144.4    L285.2,143.6 L285.4,143.0 L285.6,142.9 L285.7,142.5 L285.9,142.0 L286.1,141.6 L286.2,141.3 L286.4,141.5    L286.6,141.6 L286.8,141.5 L286.9,143.3 L287.1,141.6 L287.3,141.9 L287.4,142.1 L287.6,142.0 L287.8,142.2    L288.0,142.7 L288.1,143.4 L288.3,144.2 L288.5,144.4 L288.6,145.1 L288.8,146.0 L289.0,147.2 L289.2,148.0    L289.3,149.0 L289.5,150.0 L289.7,150.7 L289.8,152.5 L290.0,154.0 L290.2,155.4 L290.4,157.2 L290.5,158.9    L290.7,161.1 L290.9,163.1 L291.0,165.4 L291.2,168.5 L291.4,171.4 L291.6,173.3 L291.7,175.1 L291.9,176.8    L292.1,178.5 L292.2,179.0 L292.4,177.2 L292.6,175.6 L292.8,174.7 L292.9,172.9 L293.1,170.1 L293.3,167.3    L293.4,164.8 L293.6,162.7 L293.8,160.9 L294.0,159.5 L294.1,157.6 L294.3,156.5 L294.5,155.0 L294.6,153.5    L294.8,152.9 L295.0,152.3 L295.1,151.1 L295.3,150.2 L295.5,149.5 L295.7,148.7 L295.8,148.0 L296.0,147.7    L296.2,147.6 L296.3,146.9 L296.5,146.5 L296.7,145.9 L296.9,146.1 L297.0,146.3 L297.2,146.0 L297.4,147.1    L297.5,146.7 L297.7,146.2 L297.9,146.6 L298.1,146.6 L298.2,146.4 L298.4,146.8 L298.6,147.5 L298.7,148.3    L298.9,148.7 L299.1,149.1 L299.3,149.9 L299.4,150.9 L299.6,151.8 L299.8,152.4 L299.9,153.6 L300.1,154.2    L300.3,155.5 L300.5,157.2 L300.6,158.4 L300.8,159.8 L301.0,161.4 L301.1,163.2 L301.3,165.1 L301.5,166.8    L301.7,169.2 L301.8,171.9 L302.0,173.8 L302.2,175.1 L302.3,176.3 L302.5,177.7 L302.7,179.0 L302.9,177.9    L303.0,176.5 L303.2,176.0 L303.4,175.1 L303.5,173.2 L303.7,170.7 L303.9,168.5 L304.1,166.5 L304.2,164.7    L304.4,163.7 L304.6,161.8 L304.7,160.5 L304.9,159.4 L305.1,157.8 L305.3,156.8 L305.4,156.5 L305.6,155.4    L305.8,154.4 L305.9,153.6 L306.1,152.9 L306.3,152.2 L306.5,151.7 L306.6,151.5 L306.8,151.1 L307.0,150.6    L307.1,150.1 L307.3,149.8 L307.5,150.0 L307.6,150.0 L307.8,150.0 L308.0,151.3 L308.2,149.9 L308.3,150.2    L308.5,150.4 L308.7,150.1 L308.8,150.3 L309.0,150.8 L309.2,151.5 L309.4,152.2 L309.5,152.3 L309.7,153.2    L309.9,153.8 L310.0,154.9 L310.2,155.4 L310.4,156.2 L310.6,157.1 L310.7,157.7 L310.9,159.5 L311.1,160.7    L311.2,161.9 L311.4,163.3 L311.6,164.6 L311.8,166.5 L311.9,167.9 L312.1,169.5 L312.3,172.0 L312.4,174.0    L312.6,175.0 L312.8,176.0 L313.0,177.0 L313.1,178.1 L313.3,178.3 L313.5,177.0 L313.6,176.3 L313.8,176.2    L314.0,175.3 L314.2,173.3 L314.3,171.2 L314.5,169.5 L314.7,167.7 L314.8,166.6 L315.0,165.5 L315.2,163.7    L315.4,162.9 L315.5,161.5 L315.7,160.1 L315.9,159.8 L316.0,159.2 L316.2,158.0 L316.4,157.1 L316.6,156.5    L316.7,155.9 L316.9,155.1 L317.1,154.9 L317.2,154.7 L317.4,154.1 L317.6,153.6 L317.8,153.0 L317.9,153.1    L318.1,153.3 L318.3,152.9 L318.4,154.1 L318.6,153.4 L318.8,153.2 L319.0,153.5 L319.1,153.4 L319.3,153.1    L319.5,153.5 L319.6,154.1 L319.8,155.0 L320.0,155.2 L320.1,155.8 L320.3,156.4 L320.5,157.2 L320.7,157.9    L320.8,158.3 L321.0,159.2 L321.2,159.8 L321.3,161.0 L321.5,162.5 L321.7,163.4 L321.9,164.6 L322.0,165.7    L322.2,167.3 L322.4,168.6 L322.5,169.7 L322.7,171.5 L322.9,173.6 L323.1,174.8 L323.2,175.6 L323.4,176.2    L323.6,177.2 L323.7,178.2 L323.9,177.2 L324.1,176.3 L324.3,176.5 L324.4,176.3 L324.6,175.0 L324.8,173.1    L324.9,171.6 L325.1,170.2 L325.3,168.9 L325.5,168.5 L325.6,166.6 L325.8,165.6 L326.0,164.6 L326.1,163.2    L326.3,162.5 L326.5,162.3 L326.7,161.2 L326.8,160.1 L327.0,159.5 L327.2,159.0 L327.3,158.3 L327.5,157.8    L327.7,157.7 L327.9,157.2 L328.0,156.7 L328.2,156.1 L328.4,155.9 L328.5,156.0 L328.7,155.9 L328.9,156.0    L329.1,156.7 L329.2,155.8 L329.4,156.1 L329.6,156.2 L329.7,155.7 L329.9,155.9 L330.1,156.3 L330.3,157.1    L330.4,157.6 L330.6,157.8 L330.8,158.8 L330.9,159.0 L331.1,159.9 L331.3,160.1 L331.5,160.8 L331.6,161.5    L331.8,162.1 L332.0,163.8 L332.1,164.6 L332.3,165.5 L332.5,166.6 L332.7,167.6 L332.8,169.1 L333.0,170.0    L333.2,171.1 L333.3,173.0 L333.5,174.4 L333.7,175.1 L333.8,175.6 L334.0,176.3 L334.2,177.4 L334.4,177.3    L334.5,176.3 L334.7,176.2 L334.9,176.5 L335.0,176.1 L335.2,174.6 L335.4,173.2 L335.6,172.1 L335.7,170.8    L335.9,170.2 L336.1,169.3 L336.2,167.8 L336.4,167.1 L336.6,166.0 L336.8,164.8 L336.9,164.7 L337.1,164.1    L337.3,162.9 L337.4,162.0 L337.6,161.7 L337.8,161.2 L338.0,160.4 L338.1,160.2 L338.3,160.0 L338.5,159.4    L338.6,158.9 L338.8,158.2 L339.0,158.3 L339.2,158.5 L339.3,158.0 L339.5,159.1 L339.7,158.3 L339.8,158.2    L340.0,158.5 L340.2,158.2 L340.4,157.9 L340.5,158.3 L340.7,158.8 L340.9,159.6 L341.0,159.6 L341.2,160.6    L341.4,160.8 L341.6,161.4 L341.7,161.8 L341.9,162.1 L342.1,162.7 L342.2,163.2 L342.4,164.4 L342.6,165.6    L342.8,166.2 L342.9,167.1 L343.1,167.8 L343.3,169.1 L343.4,170.1 L343.6,170.8 L343.8,172.2 L344.0,173.7    L344.1,174.5 L344.3,175.1 L344.5,175.5 L344.6,176.3 L344.8,177.1 L345.0,176.2 L345.2,175.7 L345.3,176.3    L345.5,176.4 L345.7,175.5 L345.8,174.2 L346.0,173.4 L346.2,172.3 L346.3,171.4 L346.5,171.8 L346.7,169.7    L346.9,169.0 L347.0,168.3 L347.2,167.0 L347.4,166.7 L347.5,166.5 L347.7,165.5 L347.9,164.4 L348.1,163.9    L348.2,163.6 L348.4,162.9 L348.6,162.4 L348.7,162.3 L348.9,161.8 L349.1,161.4 L349.3,160.6 L349.4,160.4    L349.6,160.6 L349.8,160.3 L349.9,160.4 L350.1,160.8 L350.3,160.1 L350.5,160.4 L350.6,160.4 L350.8,159.8    L351.0,159.9 L351.1,160.2 L351.3,161.0 L351.5,161.4 L351.7,161.7 L351.8,162.8 L352.0,162.5 L352.2,163.2    L352.3,163.1 L352.5,163.6 L352.7,164.1 L352.9,164.8 L353.0,166.2 L353.2,166.6 L353.4,167.4 L353.5,168.2    L353.7,168.8 L353.9,170.0 L354.1,170.5 L354.2,171.3 L354.4,172.8 L354.6,173.8 L354.7,174.4 L354.9,174.7    L355.1,175.2 L355.3,176.2 L355.4,175.9 L355.6,175.3 L355.8,175.6 L355.9,176.1 L356.1,176.0 L356.3,174.8    L356.5,174.1 L356.6,173.5 L356.8,172.5 L357.0,172.7 L357.1,171.8 L357.3,170.5 L357.5,170.1 L357.7,169.1    L357.8,168.3 L358.0,168.4 L358.2,167.7 L358.3,166.6 L358.5,165.9 L358.7,165.6 L358.9,165.3 L359.0,164.5    L359.2,164.3 L359.4,164.1 L359.5,163.5 L359.7,163.0 L359.9,162.3 L360.0,162.3 L360.2,162.4 L360.4,161.9    L360.6,162.7 L360.7,161.9 L360.9,161.9 L361.1,162.2 L361.2,161.6 L361.4,161.3 L361.6,161.6 L361.8,162.1    L361.9,162.8 L362.1,162.7 L362.3,164.1 L362.4,163.7 L362.6,164.1 L362.8,164.2 L363.0,164.2 L363.1,164.7    L363.3,165.1 L363.5,166.2 L363.6,167.1 L363.8,167.4 L364.0,168.2 L364.2,168.6 L364.3,169.6 L364.5,170.2    L364.7,170.6 L364.8,171.7 L365.0,172.9 L365.2,173.4 L365.4,174.0 L365.5,174.2 L365.7,174.9 L365.9,175.5    L366.0,174.9 L366.2,174.8 L366.4,175.6 L366.6,175.9 L366.7,175.3 L366.9,174.3 L367.1,174.1 L367.2,173.4    L367.4,173.0 L367.6,173.9 L367.8,171.7 L367.9,171.3 L368.1,170.8 L368.3,169.9 L368.4,169.8 L368.6,169.7    L368.8,168.7 L369.0,167.7 L369.1,167.3 L369.3,167.2 L369.5,166.5 L369.6,166.1 L369.8,166.0 L370.0,165.4    L370.2,165.0 L370.3,164.2 L370.5,163.9 L370.7,164.1 L370.8,163.7 L371.0,163.8 L371.2,163.8 L371.4,163.3    L371.5,163.6 L371.7,163.3 L371.9,162.6 L372.0,162.8 L372.2,162.9 L372.4,163.7 L372.5,163.9 L372.7,164.4    L372.9,165.2 L373.1,164.6 L373.2,165.0 L373.4,164.7 L373.6,165.0 L373.7,165.3 L373.9,166.0 L374.1,167.2    L374.3,167.3 L374.4,167.9 L374.6,168.4 L374.8,168.8 L374.9,169.8 L375.1,170.0 L375.3,170.6 L375.5,171.8    L375.6,172.6 L375.8,173.1 L376.0,173.2 L376.1,173.8 L376.3,174.6 L376.5,174.3 L376.7,174.0 L376.8,174.5    L377.0,175.3 L377.2,175.3 L377.3,174.4 L377.5,174.2 L377.7,173.9 L377.9,173.4 L378.0,174.3 L378.2,173.2    L378.4,172.2 L378.5,172.1 L378.7,171.3 L378.9,170.9 L379.1,171.2 L379.2,170.6 L379.4,169.5 L379.6,168.9    L379.7,168.8 L379.9,168.5 L380.1,167.8 L380.3,167.5 L380.4,167.3 L380.6,166.8 L380.8,166.1 L380.9,165.4    L381.1,165.4 L381.3,165.4 L381.5,164.8 L381.6,165.4 L381.8,164.7 L382.0,164.6 L382.1,164.8 L382.3,164.0    L382.5,163.7 L382.7,163.8 L382.8,164.2 L383.0,164.8 L383.2,164.6 L383.3,166.4 L383.5,165.1 L383.7,165.4    L383.9,165.3 L384.0,165.1 L384.2,165.4 L384.4,165.7 L384.5,166.8 L384.7,167.3 L384.9,167.4 L385.0,168.1    L385.2,168.2 L385.4,169.0 L385.6,169.4 L385.7,169.6 L385.9,170.5 L386.1,171.5 L386.2,171.9 L386.4,172.3    L386.6,172.5 L386.8,173.2 L386.9,173.7 L387.1,173.2 L387.3,173.4 L387.4,174.4 L387.6,174.9 L387.8,174.4    L388.0,173.9 L388.1,174.0 L388.3,173.7 L388.5,173.8 L388.6,175.1 L388.8,173.0 L389.0,172.9 L389.2,172.6    L389.3,172.0 L389.5,172.2 L389.7,172.1 L389.8,171.2 L390.0,170.3 L390.2,170.1 L390.4,170.2 L390.5,169.5    L390.7,169.0 L390.9,168.9 L391.0,168.3 L391.2,167.9 L391.4,167.0 L391.6,166.7 L391.7,166.7 L391.9,166.2    L392.1,166.2 L392.2,166.0 L392.4,165.6 L392.6,165.8 L392.8,165.2 L392.9,164.5 L393.1,164.5 L393.3,164.6    L393.4,165.3 L393.6,165.2 L393.8,165.9 L394.0,166.3 L394.1,165.4 L394.3,165.7 L394.5,165.2 L394.6,165.3    L394.8,165.4 L395.0,166.1 L395.2,167.1 L395.3,166.9 L395.5,167.4 L395.7,167.7 L395.8,167.9 L396.0,168.6    L396.2,168.7 L396.4,169.1 L396.5,170.1 L396.7,170.7 L396.9,171.3 L397.0,171.3 L397.2,171.8 L397.4,172.7    L397.6,172.4 L397.7,172.4 L397.9,173.1 L398.1,173.9 L398.2,174.0 L398.4,173.5 L398.6,173.7 L398.7,173.7    L398.9,173.5 L399.1,175.1 L399.3,173.9 L399.4,173.3 L399.6,173.4 L399.8,172.9 L399.9,172.9 L400.1,173.4    L400.3,172.8 L400.5,171.7 L400.6,171.3 L400.8,171.5 L401.0,171.1 L401.1,170.4 L401.3,170.2 L401.5,169.9    L401.7,169.4 L401.8,168.6 L402.0,167.9 L402.2,167.8 L402.3,167.6 L402.5,166.9 L402.7,167.1 L402.9,166.5    L403.0,166.4 L403.2,166.3 L403.4,165.3 L403.5,165.1 L403.7,164.9 L403.9,165.3 L404.1,165.7 L404.2,165.4    "
         id="path380" />
    </g>
  </a>
  <g
     style="fill:none; color:black; stroke:currentColor; stroke-width:1.00; stroke-linecap:butt; stroke-linejoin:miter"
     id="g382">
    <path
       stroke="rgb(  0,   0,   0)"
       d="M53.7,12.5 L53.7,277.2 L404.4,277.2 L404.4,12.5 L53.7,12.5 Z "
       id="path384" />
  </g>
</svg>
