<?xml version="1.0" encoding="UTF-8" standalone="no"?>
<svg
   xmlns:dc="http://purl.org/dc/elements/1.1/"
   xmlns:cc="http://creativecommons.org/ns#"
   xmlns:rdf="http://www.w3.org/1999/02/22-rdf-syntax-ns#"
   xmlns:svg="http://www.w3.org/2000/svg"
   xmlns="http://www.w3.org/2000/svg"
   xmlns:xlink="http://www.w3.org/1999/xlink"
   xmlns:sodipodi="http://sodipodi.sourceforge.net/DTD/sodipodi-0.dtd"
   xmlns:inkscape="http://www.inkscape.org/namespaces/inkscape"
   width="420"
   height="320"
   viewBox="0 0 420 320"
   id="svg2"
   version="1.1"
   inkscape:version="0.47 r22583"
   sodipodi:docname="cpfsk1.svg">
  <metadata
     id="metadata394">
    <rdf:RDF>
      <cc:Work
         rdf:about="">
        <dc:format>image/svg+xml</dc:format>
        <dc:type
           rdf:resource="http://purl.org/dc/dcmitype/StillImage" />
      </cc:Work>
    </rdf:RDF>
  </metadata>
  <sodipodi:namedview
     pagecolor="#ffffff"
     bordercolor="#666666"
     borderopacity="1"
     objecttolerance="10"
     gridtolerance="10"
     guidetolerance="10"
     inkscape:pageopacity="0"
     inkscape:pageshadow="2"
     inkscape:window-width="640"
     inkscape:window-height="481"
     id="namedview392"
     showgrid="false"
     inkscape:zoom="1.475"
     inkscape:cx="43.055494"
     inkscape:cy="159.2007"
     inkscape:window-x="0"
     inkscape:window-y="0"
     inkscape:window-maximized="0"
     inkscape:current-layer="g332" />
  <desc
     id="desc4">Produced by GNUPLOT 4.4 patchlevel 0-rc1 </desc>
  <defs
     id="defs6">
    <inkscape:perspective
       sodipodi:type="inkscape:persp3d"
       inkscape:vp_x="0 : 160 : 1"
       inkscape:vp_y="0 : 1000 : 0"
       inkscape:vp_z="420 : 160 : 1"
       inkscape:persp3d-origin="210 : 106.66667 : 1"
       id="perspective396" />
    <circle
       id="gpDot"
       r="0.5"
       stroke-width="0.5" />
    <path
       id="gpPt0"
       stroke-width="0.299"
       stroke="currentColor"
       d="M-1,0 h2 M0,-1 v2" />
    <path
       id="gpPt1"
       stroke-width="0.299"
       stroke="currentColor"
       d="M-1,-1 L1,1 M1,-1 L-1,1" />
    <path
       id="gpPt2"
       stroke-width="0.299"
       stroke="currentColor"
       d="M-1,0 L1,0 M0,-1 L0,1 M-1,-1 L1,1 M-1,1 L1,-1" />
    <rect
       id="gpPt3"
       stroke-width="0.299"
       stroke="currentColor"
       x="-1"
       y="-1"
       width="2"
       height="2" />
    <rect
       id="gpPt4"
       stroke-width="0.299"
       stroke="currentColor"
       fill="currentColor"
       x="-1"
       y="-1"
       width="2"
       height="2" />
    <circle
       id="gpPt5"
       stroke-width="0.299"
       stroke="currentColor"
       cx="0"
       cy="0"
       r="1" />
    <use
       xlink:href="#gpPt5"
       id="gpPt6"
       fill="currentColor"
       stroke="none" />
    <path
       id="gpPt7"
       stroke-width="0.299"
       stroke="currentColor"
       d="M0,-1.33 L-1.33,0.67 L1.33,0.67 z" />
    <use
       xlink:href="#gpPt7"
       id="gpPt8"
       fill="currentColor"
       stroke="none" />
    <use
       xlink:href="#gpPt7"
       id="gpPt9"
       stroke="currentColor"
       transform="rotate(180)" />
    <use
       xlink:href="#gpPt9"
       id="gpPt10"
       fill="currentColor"
       stroke="none" />
    <use
       xlink:href="#gpPt3"
       id="gpPt11"
       stroke="currentColor"
       transform="rotate(45)" />
    <use
       xlink:href="#gpPt11"
       id="gpPt12"
       fill="currentColor"
       stroke="none" />
    <inkscape:perspective
       id="perspective3126"
       inkscape:persp3d-origin="0.5 : 0.33333333 : 1"
       inkscape:vp_z="1 : 0.5 : 1"
       inkscape:vp_y="0 : 1000 : 0"
       inkscape:vp_x="0 : 0.5 : 1"
       sodipodi:type="inkscape:persp3d" />
  </defs>
  <g
     style="fill:none; color:white; stroke:currentColor; stroke-width:1.00; stroke-linecap:butt; stroke-linejoin:miter"
     id="g22" />
  <g
     style="fill:none; color:black; stroke:currentColor; stroke-width:1.00; stroke-linecap:butt; stroke-linejoin:miter"
     id="g24">
    <g
       style="stroke:none; shape-rendering:crispEdges"
       id="g26">
      <polygon
         fill="rgb(255, 255, 255)"
         points="0.0,320.0 419.9,320.0 419.9,0.1 0.0,0.1 "
         id="polygon28" />
    </g>
  </g>
  <g
     style="fill:none; color:cyan; stroke:currentColor; stroke-width:1.00; stroke-linecap:butt; stroke-linejoin:miter"
     id="g30">
    <path
       stroke="rgb(170, 170, 170)"
       d="M53.7,277.2 L404.4,277.2 "
       id="path32" />
  </g>
  <g
     style="fill:none; color:black; stroke:currentColor; stroke-width:1.00; stroke-linecap:butt; stroke-linejoin:miter"
     id="g34">
    <path
       stroke="rgb(  0,   0,   0)"
       d="M53.7,277.2 L60.4,277.2 M404.4,277.2 L397.7,277.2 "
       id="path36" />
    <g
       transform="translate(47.5,280.6)"
       style="stroke:none; fill:rgb(0,0,0); font-family:arial; font-size:9.00pt; text-anchor:end"
       id="g38">
      <text
         id="text40">
        <tspan
           id="tspan42">-90</tspan>
      </text>
    </g>
    <path
       stroke="rgb(  0,   0,   0)"
       d="M53.7,271.3 L57.0,271.3 M404.4,271.3 L401.1,271.3 M53.7,265.4 L57.0,265.4 M404.4,265.4 L401.1,265.4    M53.7,259.6 L57.0,259.6 M404.4,259.6 L401.1,259.6 M53.7,253.7 L57.0,253.7 M404.4,253.7 L401.1,253.7    "
       id="path44" />
  </g>
  <g
     style="fill:none; color:cyan; stroke:currentColor; stroke-width:1.00; stroke-linecap:butt; stroke-linejoin:miter"
     id="g46">
    <path
       stroke="rgb(170, 170, 170)"
       d="M53.7,247.8 L404.4,247.8 "
       id="path48" />
  </g>
  <g
     style="fill:none; color:black; stroke:currentColor; stroke-width:1.00; stroke-linecap:butt; stroke-linejoin:miter"
     id="g50">
    <path
       stroke="rgb(  0,   0,   0)"
       d="M53.7,247.8 L60.4,247.8 M404.4,247.8 L397.7,247.8 "
       id="path52" />
    <g
       transform="translate(47.5,251.2)"
       style="stroke:none; fill:rgb(0,0,0); font-family:arial; font-size:9.00pt; text-anchor:end"
       id="g54">
      <text
         id="text56">
        <tspan
           id="tspan58">-80</tspan>
      </text>
    </g>
    <path
       stroke="rgb(  0,   0,   0)"
       d="M53.7,241.9 L57.0,241.9 M404.4,241.9 L401.1,241.9 M53.7,236.0 L57.0,236.0 M404.4,236.0 L401.1,236.0    M53.7,230.1 L57.0,230.1 M404.4,230.1 L401.1,230.1 M53.7,224.3 L57.0,224.3 M404.4,224.3 L401.1,224.3    "
       id="path60" />
  </g>
  <g
     style="fill:none; color:cyan; stroke:currentColor; stroke-width:1.00; stroke-linecap:butt; stroke-linejoin:miter"
     id="g62">
    <path
       stroke="rgb(170, 170, 170)"
       d="M53.7,218.4 L404.4,218.4 "
       id="path64" />
  </g>
  <g
     style="fill:none; color:black; stroke:currentColor; stroke-width:1.00; stroke-linecap:butt; stroke-linejoin:miter"
     id="g66">
    <path
       stroke="rgb(  0,   0,   0)"
       d="M53.7,218.4 L60.4,218.4 M404.4,218.4 L397.7,218.4 "
       id="path68" />
    <g
       transform="translate(47.5,221.8)"
       style="stroke:none; fill:rgb(0,0,0); font-family:arial; font-size:9.00pt; text-anchor:end"
       id="g70">
      <text
         id="text72">
        <tspan
           id="tspan74">-70</tspan>
      </text>
    </g>
    <path
       stroke="rgb(  0,   0,   0)"
       d="M53.7,212.5 L57.0,212.5 M404.4,212.5 L401.1,212.5 M53.7,206.6 L57.0,206.6 M404.4,206.6 L401.1,206.6    M53.7,200.7 L57.0,200.7 M404.4,200.7 L401.1,200.7 M53.7,194.8 L57.0,194.8 M404.4,194.8 L401.1,194.8    "
       id="path76" />
  </g>
  <g
     style="fill:none; color:cyan; stroke:currentColor; stroke-width:1.00; stroke-linecap:butt; stroke-linejoin:miter"
     id="g78">
    <path
       stroke="rgb(170, 170, 170)"
       d="M53.7,189.0 L404.4,189.0 "
       id="path80" />
  </g>
  <g
     style="fill:none; color:black; stroke:currentColor; stroke-width:1.00; stroke-linecap:butt; stroke-linejoin:miter"
     id="g82">
    <path
       stroke="rgb(  0,   0,   0)"
       d="M53.7,189.0 L60.4,189.0 M404.4,189.0 L397.7,189.0 "
       id="path84" />
    <g
       transform="translate(47.5,192.4)"
       style="stroke:none; fill:rgb(0,0,0); font-family:arial; font-size:9.00pt; text-anchor:end"
       id="g86">
      <text
         id="text88">
        <tspan
           id="tspan90">-60</tspan>
      </text>
    </g>
    <path
       stroke="rgb(  0,   0,   0)"
       d="M53.7,183.1 L57.0,183.1 M404.4,183.1 L401.1,183.1 M53.7,177.2 L57.0,177.2 M404.4,177.2 L401.1,177.2    M53.7,171.3 L57.0,171.3 M404.4,171.3 L401.1,171.3 M53.7,165.4 L57.0,165.4 M404.4,165.4 L401.1,165.4    "
       id="path92" />
  </g>
  <g
     style="fill:none; color:cyan; stroke:currentColor; stroke-width:1.00; stroke-linecap:butt; stroke-linejoin:miter"
     id="g94">
    <path
       stroke="rgb(170, 170, 170)"
       d="M53.7,159.6 L404.4,159.6 "
       id="path96" />
  </g>
  <g
     style="fill:none; color:black; stroke:currentColor; stroke-width:1.00; stroke-linecap:butt; stroke-linejoin:miter"
     id="g98">
    <path
       stroke="rgb(  0,   0,   0)"
       d="M53.7,159.6 L60.4,159.6 M404.4,159.6 L397.7,159.6 "
       id="path100" />
    <g
       transform="translate(47.5,163.0)"
       style="stroke:none; fill:rgb(0,0,0); font-family:arial; font-size:9.00pt; text-anchor:end"
       id="g102">
      <text
         id="text104">
        <tspan
           id="tspan106">-50</tspan>
      </text>
    </g>
    <path
       stroke="rgb(  0,   0,   0)"
       d="M53.7,153.7 L57.0,153.7 M404.4,153.7 L401.1,153.7 M53.7,147.8 L57.0,147.8 M404.4,147.8 L401.1,147.8    M53.7,141.9 L57.0,141.9 M404.4,141.9 L401.1,141.9 M53.7,136.0 L57.0,136.0 M404.4,136.0 L401.1,136.0    "
       id="path108" />
  </g>
  <g
     style="fill:none; color:cyan; stroke:currentColor; stroke-width:1.00; stroke-linecap:butt; stroke-linejoin:miter"
     id="g110">
    <path
       stroke="rgb(170, 170, 170)"
       d="M53.7,130.1 L404.4,130.1 "
       id="path112" />
  </g>
  <g
     style="fill:none; color:black; stroke:currentColor; stroke-width:1.00; stroke-linecap:butt; stroke-linejoin:miter"
     id="g114">
    <path
       stroke="rgb(  0,   0,   0)"
       d="M53.7,130.1 L60.4,130.1 M404.4,130.1 L397.7,130.1 "
       id="path116" />
    <g
       transform="translate(47.5,133.5)"
       style="stroke:none; fill:rgb(0,0,0); font-family:arial; font-size:9.00pt; text-anchor:end"
       id="g118">
      <text
         id="text120">
        <tspan
           id="tspan122">-40</tspan>
      </text>
    </g>
    <path
       stroke="rgb(  0,   0,   0)"
       d="M53.7,124.3 L57.0,124.3 M404.4,124.3 L401.1,124.3 M53.7,118.4 L57.0,118.4 M404.4,118.4 L401.1,118.4    M53.7,112.5 L57.0,112.5 M404.4,112.5 L401.1,112.5 M53.7,106.6 L57.0,106.6 M404.4,106.6 L401.1,106.6    "
       id="path124" />
  </g>
  <g
     style="fill:none; color:cyan; stroke:currentColor; stroke-width:1.00; stroke-linecap:butt; stroke-linejoin:miter"
     id="g126">
    <path
       stroke="rgb(170, 170, 170)"
       d="M53.7,100.7 L404.4,100.7 "
       id="path128" />
  </g>
  <g
     style="fill:none; color:black; stroke:currentColor; stroke-width:1.00; stroke-linecap:butt; stroke-linejoin:miter"
     id="g130">
    <path
       stroke="rgb(  0,   0,   0)"
       d="M53.7,100.7 L60.4,100.7 M404.4,100.7 L397.7,100.7 "
       id="path132" />
    <g
       transform="translate(47.5,104.1)"
       style="stroke:none; fill:rgb(0,0,0); font-family:arial; font-size:9.00pt; text-anchor:end"
       id="g134">
      <text
         id="text136">
        <tspan
           id="tspan138">-30</tspan>
      </text>
    </g>
    <path
       stroke="rgb(  0,   0,   0)"
       d="M53.7,94.9 L57.0,94.9 M404.4,94.9 L401.1,94.9 M53.7,89.0 L57.0,89.0 M404.4,89.0 L401.1,89.0    M53.7,83.1 L57.0,83.1 M404.4,83.1 L401.1,83.1 M53.7,77.2 L57.0,77.2 M404.4,77.2 L401.1,77.2    "
       id="path140" />
  </g>
  <g
     style="fill:none; color:cyan; stroke:currentColor; stroke-width:1.00; stroke-linecap:butt; stroke-linejoin:miter"
     id="g142">
    <path
       stroke="rgb(170, 170, 170)"
       d="M53.7,71.3 L404.4,71.3 "
       id="path144" />
  </g>
  <g
     style="fill:none; color:black; stroke:currentColor; stroke-width:1.00; stroke-linecap:butt; stroke-linejoin:miter"
     id="g146">
    <path
       stroke="rgb(  0,   0,   0)"
       d="M53.7,71.3 L60.4,71.3 M404.4,71.3 L397.7,71.3 "
       id="path148" />
    <g
       transform="translate(47.5,74.7)"
       style="stroke:none; fill:rgb(0,0,0); font-family:arial; font-size:9.00pt; text-anchor:end"
       id="g150">
      <text
         id="text152">
        <tspan
           id="tspan154">-20</tspan>
      </text>
    </g>
    <path
       stroke="rgb(  0,   0,   0)"
       d="M53.7,65.4 L57.0,65.4 M404.4,65.4 L401.1,65.4 M53.7,59.6 L57.0,59.6 M404.4,59.6 L401.1,59.6    M53.7,53.7 L57.0,53.7 M404.4,53.7 L401.1,53.7 M53.7,47.8 L57.0,47.8 M404.4,47.8 L401.1,47.8    "
       id="path156" />
  </g>
  <g
     style="fill:none; color:cyan; stroke:currentColor; stroke-width:1.00; stroke-linecap:butt; stroke-linejoin:miter"
     id="g158">
    <path
       stroke="rgb(170, 170, 170)"
       d="M53.7,41.9 L404.4,41.9 "
       id="path160" />
  </g>
  <g
     style="fill:none; color:black; stroke:currentColor; stroke-width:1.00; stroke-linecap:butt; stroke-linejoin:miter"
     id="g162">
    <path
       stroke="rgb(  0,   0,   0)"
       d="M53.7,41.9 L60.4,41.9 M404.4,41.9 L397.7,41.9 "
       id="path164" />
    <g
       transform="translate(47.5,45.3)"
       style="stroke:none; fill:rgb(0,0,0); font-family:arial; font-size:9.00pt; text-anchor:end"
       id="g166">
      <text
         id="text168">
        <tspan
           id="tspan170">-10</tspan>
      </text>
    </g>
    <path
       stroke="rgb(  0,   0,   0)"
       d="M53.7,36.0 L57.0,36.0 M404.4,36.0 L401.1,36.0 M53.7,30.1 L57.0,30.1 M404.4,30.1 L401.1,30.1    M53.7,24.3 L57.0,24.3 M404.4,24.3 L401.1,24.3 M53.7,18.4 L57.0,18.4 M404.4,18.4 L401.1,18.4    "
       id="path172" />
  </g>
  <g
     style="fill:none; color:cyan; stroke:currentColor; stroke-width:1.00; stroke-linecap:butt; stroke-linejoin:miter"
     id="g174">
    <path
       stroke="rgb(170, 170, 170)"
       d="M53.7,12.5 L404.4,12.5 "
       id="path176" />
  </g>
  <g
     style="fill:none; color:black; stroke:currentColor; stroke-width:1.00; stroke-linecap:butt; stroke-linejoin:miter"
     id="g178">
    <path
       stroke="rgb(  0,   0,   0)"
       d="M53.7,12.5 L60.4,12.5 M404.4,12.5 L397.7,12.5 "
       id="path180" />
    <g
       transform="translate(47.5,15.9)"
       style="stroke:none; fill:rgb(0,0,0); font-family:arial; font-size:9.00pt; text-anchor:end"
       id="g182">
      <text
         id="text184">
        <tspan
           id="tspan186"> 0</tspan>
      </text>
    </g>
  </g>
  <g
     style="fill:none; color:cyan; stroke:currentColor; stroke-width:1.00; stroke-linecap:butt; stroke-linejoin:miter"
     id="g188">
    <path
       stroke="rgb(170, 170, 170)"
       d="M53.7,277.2 L53.7,12.5 "
       id="path190" />
  </g>
  <g
     style="fill:none; color:black; stroke:currentColor; stroke-width:1.00; stroke-linecap:butt; stroke-linejoin:miter"
     id="g192">
    <path
       stroke="rgb(  0,   0,   0)"
       d="M53.7,277.2 L53.7,270.5 M53.7,12.5 L53.7,19.2 "
       id="path194" />
    <g
       transform="translate(53.7,294.0)"
       style="stroke:none; fill:rgb(0,0,0); font-family:arial; font-size:9.00pt; text-anchor:middle"
       id="g196">
      <text
         id="text198">
        <tspan
           id="tspan200"> 0</tspan>
      </text>
    </g>
    <path
       stroke="rgb(  0,   0,   0)"
       d="M58.1,277.2 L58.1,273.9 M58.1,12.5 L58.1,15.8 M62.5,277.2 L62.5,273.9 M62.5,12.5 L62.5,15.8    M66.9,277.2 L66.9,273.9 M66.9,12.5 L66.9,15.8 M71.2,277.2 L71.2,273.9 M71.2,12.5 L71.2,15.8    M75.6,277.2 L75.6,273.9 M75.6,12.5 L75.6,15.8 M80.0,277.2 L80.0,273.9 M80.0,12.5 L80.0,15.8    M84.4,277.2 L84.4,273.9 M84.4,12.5 L84.4,15.8 M88.8,277.2 L88.8,273.9 M88.8,12.5 L88.8,15.8    M93.2,277.2 L93.2,273.9 M93.2,12.5 L93.2,15.8 "
       id="path202" />
  </g>
  <g
     style="fill:none; color:cyan; stroke:currentColor; stroke-width:1.00; stroke-linecap:butt; stroke-linejoin:miter"
     id="g204">
    <path
       stroke="rgb(170, 170, 170)"
       d="M97.5,277.2 L97.5,12.5 "
       id="path206" />
  </g>
  <g
     style="fill:none; color:black; stroke:currentColor; stroke-width:1.00; stroke-linecap:butt; stroke-linejoin:miter"
     id="g208">
    <path
       stroke="rgb(  0,   0,   0)"
       d="M97.5,277.2 L97.5,270.5 M97.5,12.5 L97.5,19.2 "
       id="path210" />
    <g
       transform="translate(97.5,294.0)"
       style="stroke:none; fill:rgb(0,0,0); font-family:arial; font-size:9.00pt; text-anchor:middle"
       id="g212">
      <text
         id="text214">
        <tspan
           id="tspan216"> 5</tspan>
      </text>
    </g>
    <path
       stroke="rgb(  0,   0,   0)"
       d="M101.9,277.2 L101.9,273.9 M101.9,12.5 L101.9,15.8 M106.3,277.2 L106.3,273.9 M106.3,12.5 L106.3,15.8    M110.7,277.2 L110.7,273.9 M110.7,12.5 L110.7,15.8 M115.1,277.2 L115.1,273.9 M115.1,12.5 L115.1,15.8    M119.5,277.2 L119.5,273.9 M119.5,12.5 L119.5,15.8 M123.8,277.2 L123.8,273.9 M123.8,12.5 L123.8,15.8    M128.2,277.2 L128.2,273.9 M128.2,12.5 L128.2,15.8 M132.6,277.2 L132.6,273.9 M132.6,12.5 L132.6,15.8    M137.0,277.2 L137.0,273.9 M137.0,12.5 L137.0,15.8 "
       id="path218" />
  </g>
  <g
     style="fill:none; color:cyan; stroke:currentColor; stroke-width:1.00; stroke-linecap:butt; stroke-linejoin:miter"
     id="g220">
    <path
       stroke="rgb(170, 170, 170)"
       d="M141.4,277.2 L141.4,12.5 "
       id="path222" />
  </g>
  <g
     style="fill:none; color:black; stroke:currentColor; stroke-width:1.00; stroke-linecap:butt; stroke-linejoin:miter"
     id="g224">
    <path
       stroke="rgb(  0,   0,   0)"
       d="M141.4,277.2 L141.4,270.5 M141.4,12.5 L141.4,19.2 "
       id="path226" />
    <g
       transform="translate(141.4,294.0)"
       style="stroke:none; fill:rgb(0,0,0); font-family:arial; font-size:9.00pt; text-anchor:middle"
       id="g228">
      <text
         id="text230">
        <tspan
           id="tspan232"> 10</tspan>
      </text>
    </g>
    <path
       stroke="rgb(  0,   0,   0)"
       d="M145.8,277.2 L145.8,273.9 M145.8,12.5 L145.8,15.8 M150.1,277.2 L150.1,273.9 M150.1,12.5 L150.1,15.8    M154.5,277.2 L154.5,273.9 M154.5,12.5 L154.5,15.8 M158.9,277.2 L158.9,273.9 M158.9,12.5 L158.9,15.8    M163.3,277.2 L163.3,273.9 M163.3,12.5 L163.3,15.8 M167.7,277.2 L167.7,273.9 M167.7,12.5 L167.7,15.8    M172.1,277.2 L172.1,273.9 M172.1,12.5 L172.1,15.8 M176.4,277.2 L176.4,273.9 M176.4,12.5 L176.4,15.8    M180.8,277.2 L180.8,273.9 M180.8,12.5 L180.8,15.8 "
       id="path234" />
  </g>
  <g
     style="fill:none; color:cyan; stroke:currentColor; stroke-width:1.00; stroke-linecap:butt; stroke-linejoin:miter"
     id="g236">
    <path
       stroke="rgb(170, 170, 170)"
       d="M185.2,277.2 L185.2,12.5 "
       id="path238" />
  </g>
  <g
     style="fill:none; color:black; stroke:currentColor; stroke-width:1.00; stroke-linecap:butt; stroke-linejoin:miter"
     id="g240">
    <path
       stroke="rgb(  0,   0,   0)"
       d="M185.2,277.2 L185.2,270.5 M185.2,12.5 L185.2,19.2 "
       id="path242" />
    <g
       transform="translate(185.2,294.0)"
       style="stroke:none; fill:rgb(0,0,0); font-family:arial; font-size:9.00pt; text-anchor:middle"
       id="g244">
      <text
         id="text246">
        <tspan
           id="tspan248"> 15</tspan>
      </text>
    </g>
    <path
       stroke="rgb(  0,   0,   0)"
       d="M189.6,277.2 L189.6,273.9 M189.6,12.5 L189.6,15.8 M194.0,277.2 L194.0,273.9 M194.0,12.5 L194.0,15.8    M198.4,277.2 L198.4,273.9 M198.4,12.5 L198.4,15.8 M202.7,277.2 L202.7,273.9 M202.7,12.5 L202.7,15.8    M207.1,277.2 L207.1,273.9 M207.1,12.5 L207.1,15.8 M211.5,277.2 L211.5,273.9 M211.5,12.5 L211.5,15.8    M215.9,277.2 L215.9,273.9 M215.9,12.5 L215.9,15.8 M220.3,277.2 L220.3,273.9 M220.3,12.5 L220.3,15.8    M224.7,277.2 L224.7,273.9 M224.7,12.5 L224.7,15.8 "
       id="path250" />
  </g>
  <g
     style="fill:none; color:cyan; stroke:currentColor; stroke-width:1.00; stroke-linecap:butt; stroke-linejoin:miter"
     id="g252">
    <path
       stroke="rgb(170, 170, 170)"
       d="M229.0,277.2 L229.0,12.5 "
       id="path254" />
  </g>
  <g
     style="fill:none; color:black; stroke:currentColor; stroke-width:1.00; stroke-linecap:butt; stroke-linejoin:miter"
     id="g256">
    <path
       stroke="rgb(  0,   0,   0)"
       d="M229.0,277.2 L229.0,270.5 M229.0,12.5 L229.0,19.2 "
       id="path258" />
    <g
       transform="translate(229.0,294.0)"
       style="stroke:none; fill:rgb(0,0,0); font-family:arial; font-size:9.00pt; text-anchor:middle"
       id="g260">
      <text
         id="text262">
        <tspan
           id="tspan264"> 20</tspan>
      </text>
    </g>
    <path
       stroke="rgb(  0,   0,   0)"
       d="M233.4,277.2 L233.4,273.9 M233.4,12.5 L233.4,15.8 M237.8,277.2 L237.8,273.9 M237.8,12.5 L237.8,15.8    M242.2,277.2 L242.2,273.9 M242.2,12.5 L242.2,15.8 M246.6,277.2 L246.6,273.9 M246.6,12.5 L246.6,15.8    M251.0,277.2 L251.0,273.9 M251.0,12.5 L251.0,15.8 M255.4,277.2 L255.4,273.9 M255.4,12.5 L255.4,15.8    M259.7,277.2 L259.7,273.9 M259.7,12.5 L259.7,15.8 M264.1,277.2 L264.1,273.9 M264.1,12.5 L264.1,15.8    M268.5,277.2 L268.5,273.9 M268.5,12.5 L268.5,15.8 "
       id="path266" />
  </g>
  <g
     style="fill:none; color:cyan; stroke:currentColor; stroke-width:1.00; stroke-linecap:butt; stroke-linejoin:miter"
     id="g268">
    <path
       stroke="rgb(170, 170, 170)"
       d="M272.9,277.2 L272.9,12.5 "
       id="path270" />
  </g>
  <g
     style="fill:none; color:black; stroke:currentColor; stroke-width:1.00; stroke-linecap:butt; stroke-linejoin:miter"
     id="g272">
    <path
       stroke="rgb(  0,   0,   0)"
       d="M272.9,277.2 L272.9,270.5 M272.9,12.5 L272.9,19.2 "
       id="path274" />
    <g
       transform="translate(272.9,294.0)"
       style="stroke:none; fill:rgb(0,0,0); font-family:arial; font-size:9.00pt; text-anchor:middle"
       id="g276">
      <text
         id="text278">
        <tspan
           id="tspan280"> 25</tspan>
      </text>
    </g>
    <path
       stroke="rgb(  0,   0,   0)"
       d="M277.3,277.2 L277.3,273.9 M277.3,12.5 L277.3,15.8 M281.7,277.2 L281.7,273.9 M281.7,12.5 L281.7,15.8    M286.0,277.2 L286.0,273.9 M286.0,12.5 L286.0,15.8 M290.4,277.2 L290.4,273.9 M290.4,12.5 L290.4,15.8    M294.8,277.2 L294.8,273.9 M294.8,12.5 L294.8,15.8 M299.2,277.2 L299.2,273.9 M299.2,12.5 L299.2,15.8    M303.6,277.2 L303.6,273.9 M303.6,12.5 L303.6,15.8 M308.0,277.2 L308.0,273.9 M308.0,12.5 L308.0,15.8    M312.3,277.2 L312.3,273.9 M312.3,12.5 L312.3,15.8 "
       id="path282" />
  </g>
  <g
     style="fill:none; color:cyan; stroke:currentColor; stroke-width:1.00; stroke-linecap:butt; stroke-linejoin:miter"
     id="g284">
    <path
       stroke="rgb(170, 170, 170)"
       d="M316.7,277.2 L316.7,12.5 "
       id="path286" />
  </g>
  <g
     style="fill:none; color:black; stroke:currentColor; stroke-width:1.00; stroke-linecap:butt; stroke-linejoin:miter"
     id="g288">
    <path
       stroke="rgb(  0,   0,   0)"
       d="M316.7,277.2 L316.7,270.5 M316.7,12.5 L316.7,19.2 "
       id="path290" />
    <g
       transform="translate(316.7,294.0)"
       style="stroke:none; fill:rgb(0,0,0); font-family:arial; font-size:9.00pt; text-anchor:middle"
       id="g292">
      <text
         id="text294">
        <tspan
           id="tspan296"> 30</tspan>
      </text>
    </g>
    <path
       stroke="rgb(  0,   0,   0)"
       d="M321.1,277.2 L321.1,273.9 M321.1,12.5 L321.1,15.8 M325.5,277.2 L325.5,273.9 M325.5,12.5 L325.5,15.8    M329.9,277.2 L329.9,273.9 M329.9,12.5 L329.9,15.8 M334.3,277.2 L334.3,273.9 M334.3,12.5 L334.3,15.8    M338.6,277.2 L338.6,273.9 M338.6,12.5 L338.6,15.8 M343.0,277.2 L343.0,273.9 M343.0,12.5 L343.0,15.8    M347.4,277.2 L347.4,273.9 M347.4,12.5 L347.4,15.8 M351.8,277.2 L351.8,273.9 M351.8,12.5 L351.8,15.8    M356.2,277.2 L356.2,273.9 M356.2,12.5 L356.2,15.8 "
       id="path298" />
  </g>
  <g
     style="fill:none; color:cyan; stroke:currentColor; stroke-width:1.00; stroke-linecap:butt; stroke-linejoin:miter"
     id="g300">
    <path
       stroke="rgb(170, 170, 170)"
       d="M360.6,277.2 L360.6,12.5 "
       id="path302" />
  </g>
  <g
     style="fill:none; color:black; stroke:currentColor; stroke-width:1.00; stroke-linecap:butt; stroke-linejoin:miter"
     id="g304">
    <path
       stroke="rgb(  0,   0,   0)"
       d="M360.6,277.2 L360.6,270.5 M360.6,12.5 L360.6,19.2 "
       id="path306" />
    <g
       transform="translate(360.6,294.0)"
       style="stroke:none; fill:rgb(0,0,0); font-family:arial; font-size:9.00pt; text-anchor:middle"
       id="g308">
      <text
         id="text310">
        <tspan
           id="tspan312"> 35</tspan>
      </text>
    </g>
    <path
       stroke="rgb(  0,   0,   0)"
       d="M364.9,277.2 L364.9,273.9 M364.9,12.5 L364.9,15.8 M369.3,277.2 L369.3,273.9 M369.3,12.5 L369.3,15.8    M373.7,277.2 L373.7,273.9 M373.7,12.5 L373.7,15.8 M378.1,277.2 L378.1,273.9 M378.1,12.5 L378.1,15.8    M382.5,277.2 L382.5,273.9 M382.5,12.5 L382.5,15.8 M386.9,277.2 L386.9,273.9 M386.9,12.5 L386.9,15.8    M391.2,277.2 L391.2,273.9 M391.2,12.5 L391.2,15.8 M395.6,277.2 L395.6,273.9 M395.6,12.5 L395.6,15.8    M400.0,277.2 L400.0,273.9 M400.0,12.5 L400.0,15.8 "
       id="path314" />
  </g>
  <g
     style="fill:none; color:cyan; stroke:currentColor; stroke-width:1.00; stroke-linecap:butt; stroke-linejoin:miter"
     id="g316">
    <path
       stroke="rgb(170, 170, 170)"
       d="M404.4,277.2 L404.4,12.5 "
       id="path318" />
  </g>
  <g
     style="fill:none; color:black; stroke:currentColor; stroke-width:1.00; stroke-linecap:butt; stroke-linejoin:miter"
     id="g320">
    <path
       stroke="rgb(  0,   0,   0)"
       d="M404.4,277.2 L404.4,270.5 M404.4,12.5 L404.4,19.2 "
       id="path322" />
    <g
       transform="translate(404.4,294.0)"
       style="stroke:none; fill:rgb(0,0,0); font-family:arial; font-size:9.00pt; text-anchor:middle"
       id="g324">
      <text
         id="text326">
        <tspan
           id="tspan328"> 40</tspan>
      </text>
    </g>
    <path
       stroke="rgb(  0,   0,   0)"
       d="M53.7,12.5 L53.7,277.2 L404.4,277.2 L404.4,12.5 L53.7,12.5 Z "
       id="path330" />
    <g
       transform="translate(19.4,144.9) rotate(270)"
       style="stroke:none; fill:rgb(0,0,0); font-family:Times; font-size:14.00pt; text-anchor:middle"
       id="g332">
      <text
         y="2.3942041"
         x="-6.4345031"
         style="font-size:17.5px;text-anchor:middle;color:#000000;fill:#000000;stroke:none;font-family:Times"
         id="text224">
        <tspan
           id="tspan226">|S(f)|</tspan>
        <tspan
           style="font-size:14px"
           font-size="11.2pt"
           dy="-8.75"
           id="tspan228">2</tspan>
        <tspan
           style="font-size:17.5px"
           font-size="14.0pt"
           dy="8.75"
           id="tspan230">, дБ</tspan>
      </text>
    </g>
    <g
       transform="translate(229.0,314.1)"
       style="stroke:none; fill:rgb(0,0,0); font-family:Times; font-size:14.00pt; text-anchor:middle"
       id="g338">
      <text
         id="text340">
        <tspan
           id="tspan342">f, кГц</tspan>
      </text>
    </g>
  </g>
  <g
     style="fill:none; color:white; stroke:currentColor; stroke-width:1.00; stroke-linecap:butt; stroke-linejoin:miter"
     id="g344">
    <g
       style="stroke:none; shape-rendering:crispEdges"
       id="g346">
      <polygon
         fill="currentColor"
         points="71.2,86.0 167.7,86.0 167.7,27.2 71.2,27.2 "
         id="polygon348" />
    </g>
    <path
       stroke="black"
       d="M71.2,86.0 L71.2,27.2 L167.7,27.2 L167.7,86.0 L71.2,86.0 "
       id="path350" />
  </g>
  <g
     style="fill:none; color:black; stroke:currentColor; stroke-width:1.00; stroke-linecap:butt; stroke-linejoin:miter"
     id="g352">
    <g
       transform="translate(80.0,45.3)"
       style="stroke:none; fill:black; font-family:Times; font-size:12.00pt; text-anchor:start"
       id="g354">
      <text
         id="text356">
        <tspan
           id="tspan358">Br = 1200;</tspan>
      </text>
    </g>
    <g
       transform="translate(80.0,58.7)"
       style="stroke:none; fill:black; font-family:Times; font-size:12.00pt; text-anchor:start"
       id="g360">
      <text
         id="text362">
        <tspan
           id="tspan364"> f</tspan>
        <tspan
           font-size="9.6pt"
           dy="3.60pt"
           id="tspan366">0</tspan>
        <tspan
           font-size="12.0pt"
           dy="-3.60pt"
           id="tspan368"> = 20 кГц;</tspan>
      </text>
    </g>
    <g
       transform="translate(80.0,72.1)"
       style="stroke:none; fill:black; font-family:Times; font-size:12.00pt; text-anchor:start"
       id="g370">
      <text
         id="text372">
        <tspan
           id="tspan374"> m = 1</tspan>
      </text>
    </g>
  </g>
  <a
     xlink:title="Plot #1"
     id="a376">
    <g
       style="fill:none; color:red; stroke:currentColor; stroke-width:1.00; stroke-linecap:butt; stroke-linejoin:miter"
       id="g378">
      <path
         stroke="rgb(255,   0,   0)"
         d="M53.7,176.5 L53.9,173.7 L54.0,173.5 L54.2,173.5 L54.4,173.6 L54.6,173.6 L54.7,173.2 L54.9,173.0    L55.1,172.5 L55.2,172.1 L55.4,172.1 L55.6,171.4 L55.8,170.5 L55.9,170.3 L56.1,169.9 L56.3,169.7    L56.4,169.0 L56.6,168.8 L56.8,168.3 L57.0,167.7 L57.1,167.8 L57.3,167.4 L57.5,166.7 L57.6,166.4    L57.8,166.2 L58.0,165.9 L58.2,166.0 L58.3,165.5 L58.5,165.6 L58.7,165.5 L58.8,166.1 L59.0,167.4    L59.2,165.4 L59.4,165.4 L59.5,165.3 L59.7,165.4 L59.9,165.5 L60.0,165.6 L60.2,165.8 L60.4,165.9    L60.5,166.2 L60.7,167.1 L60.9,166.7 L61.1,167.1 L61.2,167.6 L61.4,167.8 L61.6,168.3 L61.7,168.7    L61.9,169.0 L62.1,169.2 L62.3,169.7 L62.4,170.8 L62.6,171.0 L62.8,171.2 L62.9,171.8 L63.1,172.2    L63.3,172.5 L63.5,172.8 L63.6,172.9 L63.8,173.0 L64.0,173.2 L64.1,174.9 L64.3,174.8 L64.5,173.6    L64.7,173.8 L64.8,174.1 L65.0,174.2 L65.2,174.1 L65.3,173.9 L65.5,173.7 L65.7,173.2 L65.9,173.2    L66.0,173.0 L66.2,171.8 L66.4,171.4 L66.5,171.1 L66.7,170.8 L66.9,170.2 L67.1,169.8 L67.2,169.4    L67.4,168.7 L67.6,168.3 L67.7,168.4 L67.9,167.4 L68.1,166.9 L68.3,166.7 L68.4,166.3 L68.6,166.1    L68.8,165.8 L68.9,165.6 L69.1,165.5 L69.3,165.3 L69.5,167.4 L69.6,165.5 L69.8,165.0 L70.0,164.9    L70.1,164.6 L70.3,164.9 L70.5,164.8 L70.7,165.0 L70.8,165.0 L71.0,165.1 L71.2,165.9 L71.3,165.8    L71.5,165.8 L71.7,166.3 L71.9,166.6 L72.0,166.7 L72.2,167.3 L72.4,167.5 L72.5,167.9 L72.7,168.1    L72.9,169.0 L73.1,169.7 L73.2,169.8 L73.4,170.3 L73.6,170.9 L73.7,171.3 L73.9,171.8 L74.1,172.0    L74.2,172.2 L74.4,172.6 L74.6,173.2 L74.8,175.8 L74.9,173.7 L75.1,173.8 L75.3,174.2 L75.4,174.6    L75.6,174.8 L75.8,174.6 L76.0,174.7 L76.1,174.3 L76.3,174.0 L76.5,174.2 L76.6,173.2 L76.8,172.4    L77.0,172.2 L77.2,171.7 L77.3,171.4 L77.5,170.7 L77.7,170.3 L77.8,169.6 L78.0,169.0 L78.2,168.9    L78.4,168.1 L78.5,167.4 L78.7,166.9 L78.9,166.5 L79.0,166.1 L79.2,166.0 L79.4,165.4 L79.6,165.2    L79.7,164.9 L79.9,165.5 L80.1,166.0 L80.2,164.4 L80.4,164.2 L80.6,163.9 L80.8,164.0 L80.9,163.9    L81.1,164.0 L81.3,164.1 L81.4,164.0 L81.6,164.2 L81.8,165.1 L82.0,164.3 L82.1,164.8 L82.3,165.2    L82.5,165.1 L82.6,165.7 L82.8,166.0 L83.0,166.4 L83.2,166.6 L83.3,167.1 L83.5,168.1 L83.7,168.3    L83.8,168.7 L84.0,169.4 L84.2,169.9 L84.4,170.4 L84.5,170.8 L84.7,171.2 L84.9,171.6 L85.0,172.0    L85.2,174.2 L85.4,174.0 L85.6,173.4 L85.7,174.0 L85.9,174.7 L86.1,175.0 L86.2,175.1 L86.4,175.2    L86.6,175.1 L86.7,174.9 L86.9,175.0 L87.1,174.7 L87.3,173.5 L87.4,173.1 L87.6,172.7 L87.8,172.3    L87.9,171.6 L88.1,171.0 L88.3,170.4 L88.5,169.6 L88.6,169.1 L88.8,168.7 L89.0,167.7 L89.1,167.0    L89.3,166.5 L89.5,166.0 L89.7,165.8 L89.8,165.2 L90.0,164.8 L90.2,164.4 L90.3,164.2 L90.5,165.7    L90.7,163.9 L90.9,163.5 L91.0,163.1 L91.2,162.8 L91.4,162.8 L91.5,162.7 L91.7,162.8 L91.9,162.7    L92.1,162.6 L92.2,163.6 L92.4,163.0 L92.6,163.1 L92.7,163.6 L92.9,163.7 L93.1,163.8 L93.3,164.3    L93.4,164.6 L93.6,165.0 L93.8,165.3 L93.9,166.2 L94.1,166.6 L94.3,166.9 L94.5,167.5 L94.6,168.3    L94.8,168.7 L95.0,169.3 L95.1,169.8 L95.3,170.3 L95.5,171.0 L95.7,171.9 L95.8,174.2 L96.0,173.0    L96.2,173.5 L96.3,174.3 L96.5,175.0 L96.7,175.5 L96.9,175.5 L97.0,175.9 L97.2,175.7 L97.4,175.6    L97.5,175.9 L97.7,174.7 L97.9,173.9 L98.1,173.7 L98.2,173.1 L98.4,172.5 L98.6,171.7 L98.7,171.1    L98.9,170.0 L99.1,169.4 L99.2,169.0 L99.4,167.9 L99.6,167.1 L99.8,166.3 L99.9,165.7 L100.1,165.2    L100.3,164.9 L100.4,164.2 L100.6,163.8 L100.8,163.2 L101.0,163.8 L101.1,163.5 L101.3,162.4 L101.5,162.0    L101.6,161.5 L101.8,161.5 L102.0,161.3 L102.2,161.3 L102.3,161.3 L102.5,161.1 L102.7,161.4 L102.8,162.1    L103.0,161.2 L103.2,161.7 L103.4,161.9 L103.5,161.8 L103.7,162.4 L103.9,162.6 L104.0,163.1 L104.2,163.3    L104.4,163.9 L104.6,164.8 L104.7,165.1 L104.9,165.5 L105.1,166.3 L105.2,167.0 L105.4,167.6 L105.6,168.1    L105.8,168.7 L105.9,169.6 L106.1,170.2 L106.3,172.6 L106.4,172.5 L106.6,172.5 L106.8,173.6 L107.0,174.7    L107.1,175.3 L107.3,175.6 L107.5,176.1 L107.6,176.2 L107.8,176.2 L108.0,176.5 L108.2,176.0 L108.3,174.8    L108.5,174.4 L108.7,173.9 L108.8,173.2 L109.0,172.3 L109.2,171.5 L109.4,170.5 L109.5,169.6 L109.7,168.9    L109.9,168.1 L110.0,166.9 L110.2,165.9 L110.4,165.2 L110.6,164.6 L110.7,164.2 L110.9,163.4 L111.1,162.9    L111.2,162.2 L111.4,161.9 L111.6,162.7 L111.8,161.2 L111.9,160.7 L112.1,160.2 L112.3,159.8 L112.4,159.7    L112.6,159.6 L112.8,159.7 L112.9,159.5 L113.1,159.3 L113.3,160.6 L113.5,159.4 L113.6,159.6 L113.8,160.0    L114.0,159.9 L114.1,160.1 L114.3,160.5 L114.5,160.9 L114.7,161.3 L114.8,161.7 L115.0,162.5 L115.2,163.0    L115.3,163.3 L115.5,164.0 L115.7,164.9 L115.9,165.5 L116.0,166.2 L116.2,166.8 L116.4,167.7 L116.5,168.5    L116.7,169.8 L116.9,171.8 L117.1,171.5 L117.2,172.4 L117.4,173.7 L117.6,174.8 L117.7,175.5 L117.9,176.0    L118.1,176.6 L118.3,176.7 L118.4,176.9 L118.6,177.2 L118.8,175.8 L118.9,175.0 L119.1,174.6 L119.3,173.8    L119.5,172.9 L119.6,171.9 L119.8,170.9 L120.0,169.5 L120.1,168.8 L120.3,167.9 L120.5,166.5 L120.7,165.5    L120.8,164.4 L121.0,163.7 L121.2,163.0 L121.3,162.5 L121.5,161.6 L121.7,161.0 L121.9,160.4 L122.0,160.6    L122.2,159.9 L122.4,159.1 L122.5,158.6 L122.7,158.0 L122.9,157.8 L123.1,157.6 L123.2,157.6 L123.4,157.6    L123.6,157.2 L123.7,157.7 L123.9,158.0 L124.1,157.2 L124.3,157.7 L124.4,157.8 L124.6,157.6 L124.8,158.2    L124.9,158.4 L125.1,159.0 L125.3,159.2 L125.4,159.8 L125.6,160.6 L125.8,161.0 L126.0,161.5 L126.1,162.4    L126.3,163.2 L126.5,163.9 L126.6,164.5 L126.8,165.4 L127.0,166.6 L127.2,167.4 L127.3,169.8 L127.5,170.2    L127.7,170.7 L127.8,172.3 L128.0,173.8 L128.2,174.9 L128.4,175.6 L128.5,176.5 L128.7,176.9 L128.9,177.2    L129.0,177.8 L129.2,177.0 L129.4,175.7 L129.6,175.2 L129.7,174.4 L129.9,173.3 L130.1,172.2 L130.2,171.0    L130.4,169.5 L130.6,168.4 L130.8,167.4 L130.9,166.1 L131.1,164.7 L131.3,163.5 L131.4,162.5 L131.6,161.7    L131.8,161.2 L132.0,160.2 L132.1,159.5 L132.3,158.7 L132.5,158.2 L132.6,158.3 L132.8,157.2 L133.0,156.7    L133.2,156.1 L133.3,155.6 L133.5,155.4 L133.7,155.3 L133.8,155.3 L134.0,155.0 L134.2,154.8 L134.4,156.3    L134.5,154.8 L134.7,155.0 L134.9,155.3 L135.0,155.2 L135.2,155.4 L135.4,155.8 L135.6,156.2 L135.7,156.6    L135.9,157.0 L136.1,157.8 L136.2,158.3 L136.4,158.7 L136.6,159.5 L136.8,160.5 L136.9,161.2 L137.1,162.0    L137.3,162.8 L137.4,163.9 L137.6,165.0 L137.8,166.6 L138.0,168.4 L138.1,168.8 L138.3,170.3 L138.5,172.2    L138.6,173.8 L138.8,174.8 L139.0,175.9 L139.1,176.8 L139.3,177.4 L139.5,177.9 L139.7,178.2 L139.8,176.6    L140.0,175.6 L140.2,174.9 L140.3,173.6 L140.5,172.3 L140.7,170.9 L140.9,169.4 L141.0,167.7 L141.2,166.6    L141.4,165.3 L141.5,163.7 L141.7,162.3 L141.9,161.0 L142.1,160.1 L142.2,159.3 L142.4,158.5 L142.6,157.5    L142.7,156.7 L142.9,156.0 L143.1,155.9 L143.3,155.0 L143.4,154.4 L143.6,153.8 L143.8,153.2 L143.9,152.8    L144.1,152.6 L144.3,152.6 L144.5,152.4 L144.6,152.0 L144.8,152.9 L145.0,152.6 L145.1,151.9 L145.3,152.4    L145.5,152.4 L145.7,152.2 L145.8,152.8 L146.0,153.1 L146.2,153.7 L146.3,154.0 L146.5,154.6 L146.7,155.2    L146.9,155.7 L147.0,156.3 L147.2,157.2 L147.4,158.2 L147.5,158.9 L147.7,159.7 L147.9,160.8 L148.1,162.2    L148.2,163.2 L148.4,165.6 L148.6,166.5 L148.7,167.7 L148.9,169.8 L149.1,171.9 L149.3,173.4 L149.4,174.7    L149.6,176.3 L149.8,177.2 L149.9,177.9 L150.1,178.8 L150.3,177.5 L150.5,176.2 L150.6,175.2 L150.8,173.9    L151.0,172.3 L151.1,170.6 L151.3,168.9 L151.5,166.8 L151.6,165.5 L151.8,164.1 L152.0,162.4 L152.2,160.8    L152.3,159.2 L152.5,158.0 L152.7,157.0 L152.8,156.3 L153.0,155.2 L153.2,154.3 L153.4,153.4 L153.5,152.8    L153.7,152.5 L153.9,151.6 L154.0,151.0 L154.2,150.4 L154.4,149.8 L154.6,149.4 L154.7,149.4 L154.9,149.4    L155.1,149.0 L155.2,148.9 L155.4,150.5 L155.6,148.6 L155.8,149.0 L155.9,149.2 L156.1,148.9 L156.3,149.2    L156.4,149.5 L156.6,150.0 L156.8,150.4 L157.0,150.9 L157.1,151.6 L157.3,152.2 L157.5,152.7 L157.6,153.4    L157.8,154.5 L158.0,155.3 L158.2,156.2 L158.3,157.2 L158.5,158.6 L158.7,159.8 L158.8,161.6 L159.0,163.5    L159.2,164.6 L159.4,166.6 L159.5,169.0 L159.7,171.2 L159.9,172.9 L160.0,174.8 L160.2,176.3 L160.4,177.7    L160.6,178.6 L160.7,178.7 L160.9,176.8 L161.1,175.4 L161.2,174.0 L161.4,172.1 L161.6,170.0 L161.8,168.0    L161.9,165.8 L162.1,163.7 L162.3,162.3 L162.4,160.5 L162.6,158.6 L162.8,157.0 L163.0,155.4 L163.1,154.2    L163.3,153.3 L163.5,152.4 L163.6,151.2 L163.8,150.3 L164.0,149.5 L164.1,149.1 L164.3,148.2 L164.5,147.7    L164.7,147.0 L164.8,146.3 L165.0,145.8 L165.2,145.6 L165.3,145.6 L165.5,145.4 L165.7,144.9 L165.9,146.2    L166.0,145.3 L166.2,144.8 L166.4,145.3 L166.5,145.1 L166.7,144.9 L166.9,145.4 L167.1,145.9 L167.2,146.4    L167.4,146.8 L167.6,147.3 L167.7,147.9 L167.9,148.5 L168.1,149.1 L168.3,150.1 L168.4,151.1 L168.6,151.9    L168.8,152.9 L168.9,154.2 L169.1,155.7 L169.3,157.0 L169.5,159.3 L169.6,160.8 L169.8,162.5 L170.0,165.2    L170.1,167.9 L170.3,170.1 L170.5,172.4 L170.7,174.8 L170.8,176.7 L171.0,178.1 L171.2,179.4 L171.3,177.6    L171.5,175.7 L171.7,173.8 L171.9,171.6 L172.0,169.1 L172.2,166.6 L172.4,164.1 L172.5,161.5 L172.7,159.7    L172.9,157.9 L173.1,155.9 L173.2,154.1 L173.4,152.2 L173.6,150.8 L173.7,149.6 L173.9,148.7 L174.1,147.4    L174.3,146.4 L174.4,145.6 L174.6,144.8 L174.8,144.2 L174.9,143.5 L175.1,142.9 L175.3,142.1 L175.5,141.5    L175.6,141.0 L175.8,141.0 L176.0,141.0 L176.1,140.5 L176.3,140.6 L176.5,141.9 L176.7,140.0 L176.8,140.4    L177.0,140.5 L177.2,140.2 L177.3,140.5 L177.5,140.8 L177.7,141.4 L177.8,141.8 L178.0,142.2 L178.2,142.8    L178.4,143.4 L178.5,144.0 L178.7,144.8 L178.9,145.9 L179.0,146.7 L179.2,147.7 L179.4,148.9 L179.6,150.5    L179.7,151.8 L179.9,153.8 L180.1,155.7 L180.2,157.4 L180.4,160.0 L180.6,163.0 L180.8,166.0 L180.9,168.7    L181.1,171.6 L181.3,174.4 L181.4,177.0 L181.6,178.9 L181.8,178.6 L182.0,176.1 L182.1,173.4 L182.3,170.6    L182.5,167.6 L182.6,164.4 L182.8,161.5 L183.0,158.6 L183.2,156.1 L183.3,154.2 L183.5,152.1 L183.7,149.9    L183.8,148.1 L184.0,146.3 L184.2,144.9 L184.4,143.8 L184.5,142.8 L184.7,141.4 L184.9,140.5 L185.0,139.6    L185.2,138.9 L185.4,138.1 L185.6,137.6 L185.7,136.8 L185.9,136.0 L186.1,135.5 L186.2,135.2 L186.4,135.2    L186.6,134.9 L186.8,134.4 L186.9,136.2 L187.1,134.6 L187.3,134.2 L187.4,134.6 L187.6,134.3 L187.8,134.2    L188.0,134.6 L188.1,135.1 L188.3,135.6 L188.5,136.0 L188.6,136.4 L188.8,136.9 L189.0,137.6 L189.2,138.2    L189.3,139.3 L189.5,140.3 L189.7,141.1 L189.8,142.2 L190.0,143.7 L190.2,145.3 L190.3,146.7 L190.5,149.0    L190.7,150.8 L190.9,153.1 L191.0,156.1 L191.2,159.7 L191.4,162.9 L191.5,166.4 L191.7,170.2 L191.9,174.2    L192.1,177.3 L192.2,179.1 L192.4,176.4 L192.6,172.6 L192.7,168.6 L192.9,165.0 L193.1,161.1 L193.3,157.4    L193.4,154.1 L193.6,151.0 L193.8,148.7 L193.9,146.5 L194.1,144.2 L194.3,142.2 L194.5,140.2 L194.6,138.5    L194.8,137.2 L195.0,136.2 L195.1,134.7 L195.3,133.6 L195.5,132.7 L195.7,131.7 L195.8,131.0 L196.0,130.4    L196.2,129.6 L196.3,128.8 L196.5,128.0 L196.7,127.5 L196.9,127.4 L197.0,127.4 L197.2,126.7 L197.4,127.1    L197.5,127.9 L197.7,126.1 L197.9,126.5 L198.1,126.4 L198.2,126.0 L198.4,126.3 L198.6,126.6 L198.7,127.2    L198.9,127.5 L199.1,127.8 L199.3,128.3 L199.4,129.0 L199.6,129.5 L199.8,130.3 L199.9,131.4 L200.1,132.2    L200.3,133.1 L200.5,134.4 L200.6,136.1 L200.8,137.5 L201.0,139.6 L201.1,141.6 L201.3,143.6 L201.5,146.5    L201.7,150.0 L201.8,153.8 L202.0,157.8 L202.2,162.2 L202.3,167.4 L202.5,173.2 L202.7,177.6 L202.9,176.5    L203.0,171.0 L203.2,164.9 L203.4,159.7 L203.5,155.2 L203.7,150.6 L203.9,146.6 L204.0,143.0 L204.2,140.2    L204.4,137.8 L204.6,135.3 L204.7,133.0 L204.9,130.9 L205.1,129.0 L205.2,127.3 L205.4,126.1 L205.6,124.8    L205.8,123.4 L205.9,122.3 L206.1,121.2 L206.3,120.3 L206.4,119.4 L206.6,118.7 L206.8,117.9 L207.0,116.9    L207.1,116.2 L207.3,115.8 L207.5,115.7 L207.6,115.3 L207.8,114.7 L208.0,116.7 L208.2,114.3 L208.3,114.1    L208.5,114.2 L208.7,113.7 L208.8,113.5 L209.0,113.7 L209.2,114.2 L209.4,114.5 L209.5,114.7 L209.7,114.9    L209.9,115.3 L210.0,115.9 L210.2,116.5 L210.4,117.3 L210.6,118.2 L210.7,118.8 L210.9,120.0 L211.1,121.4    L211.2,122.8 L211.4,124.3 L211.6,126.4 L211.8,128.3 L211.9,130.6 L212.1,133.8 L212.3,137.8 L212.4,142.0    L212.6,146.7 L212.8,152.4 L213.0,160.3 L213.1,169.6 L213.3,173.7 L213.5,165.2 L213.6,155.3 L213.8,147.6    L214.0,141.8 L214.2,136.3 L214.3,131.4 L214.5,127.1 L214.7,123.5 L214.8,120.6 L215.0,118.0 L215.2,115.1    L215.4,112.8 L215.5,110.5 L215.7,108.3 L215.9,106.6 L216.0,105.1 L216.2,103.3 L216.4,101.8 L216.5,100.3    L216.7,98.8 L216.9,97.5 L217.1,96.6 L217.2,95.4 L217.4,94.1 L217.6,92.8 L217.7,91.7 L217.9,91.1    L218.1,90.4 L218.3,89.3 L218.4,89.5 L218.6,88.8 L218.8,86.8 L218.9,86.4 L219.1,85.5 L219.3,84.4    L219.5,84.0 L219.6,83.5 L219.8,83.2 L220.0,82.6 L220.1,81.6 L220.3,81.2 L220.5,80.9 L220.7,80.5    L220.8,80.1 L221.0,79.9 L221.2,79.3 L221.3,78.8 L221.5,78.6 L221.7,78.4 L221.9,78.0 L222.0,78.1    L222.2,77.7 L222.4,77.2 L222.5,77.2 L222.7,77.7 L222.9,77.9 L223.1,77.7 L223.2,77.0 L223.4,72.6    L223.6,46.6 L223.7,31.3 L223.9,35.6 L224.1,59.0 L224.3,76.2 L224.4,77.3 L224.6,77.9 L224.8,78.0    L224.9,77.5 L225.1,77.2 L225.3,77.5 L225.5,77.9 L225.6,78.0 L225.8,78.0 L226.0,78.4 L226.1,78.8    L226.3,78.8 L226.5,79.3 L226.7,79.7 L226.8,79.9 L227.0,80.0 L227.2,79.9 L227.3,79.8 L227.5,80.3    L227.7,81.2 L227.9,81.4 L228.0,81.7 L228.2,81.9 L228.4,81.8 L228.5,82.0 L228.7,82.6 L228.9,83.0    L229.0,84.9 L229.2,83.0 L229.4,82.5 L229.6,82.0 L229.7,81.9 L229.9,81.9 L230.1,81.7 L230.2,81.4    L230.4,81.2 L230.6,80.3 L230.8,79.8 L230.9,79.9 L231.1,80.0 L231.3,79.9 L231.4,79.7 L231.6,79.3    L231.8,78.8 L232.0,78.8 L232.1,78.4 L232.3,78.0 L232.5,78.0 L232.6,77.9 L232.8,77.5 L233.0,77.2    L233.2,77.6 L233.3,78.0 L233.5,77.9 L233.7,77.3 L233.8,76.5 L234.0,58.7 L234.2,35.0 L234.4,30.7    L234.5,46.1 L234.7,72.9 L234.9,77.0 L235.0,77.7 L235.2,77.8 L235.4,77.7 L235.6,77.2 L235.7,77.2    L235.9,77.7 L236.1,78.1 L236.2,78.0 L236.4,78.4 L236.6,78.7 L236.8,78.8 L236.9,79.3 L237.1,79.9    L237.3,80.1 L237.4,80.5 L237.6,80.9 L237.8,81.2 L238.0,81.6 L238.1,82.6 L238.3,83.2 L238.5,83.5    L238.6,83.9 L238.8,84.4 L239.0,85.5 L239.2,86.4 L239.3,86.9 L239.5,88.8 L239.7,89.5 L239.8,89.3    L240.0,90.4 L240.2,91.1 L240.4,91.7 L240.5,92.8 L240.7,94.1 L240.9,95.5 L241.0,96.6 L241.2,97.5    L241.4,98.7 L241.6,100.3 L241.7,101.8 L241.9,103.3 L242.1,105.1 L242.2,106.6 L242.4,108.4 L242.6,110.5    L242.7,112.9 L242.9,115.0 L243.1,118.0 L243.3,120.6 L243.4,123.5 L243.6,127.0 L243.8,131.3 L243.9,136.2    L244.1,142.0 L244.3,147.7 L244.5,155.3 L244.6,165.1 L244.8,173.3 L245.0,169.0 L245.1,159.9 L245.3,152.3    L245.5,146.8 L245.7,141.9 L245.8,137.6 L246.0,133.7 L246.2,130.6 L246.3,128.3 L246.5,126.4 L246.7,124.3    L246.9,122.8 L247.0,121.5 L247.2,120.0 L247.4,118.8 L247.5,118.2 L247.7,117.3 L247.9,116.5 L248.1,115.9    L248.2,115.3 L248.4,115.0 L248.6,114.7 L248.7,114.6 L248.9,114.2 L249.1,113.7 L249.3,113.5 L249.4,113.7    L249.6,114.3 L249.8,114.2 L249.9,114.4 L250.1,116.8 L250.3,114.7 L250.5,115.4 L250.6,115.8 L250.8,115.8    L251.0,116.2 L251.1,116.9 L251.3,118.0 L251.5,118.8 L251.7,119.4 L251.8,120.3 L252.0,121.2 L252.2,122.3    L252.3,123.4 L252.5,124.7 L252.7,126.0 L252.9,127.2 L253.0,129.1 L253.2,131.2 L253.4,133.0 L253.5,135.3    L253.7,137.7 L253.9,140.2 L254.1,143.0 L254.2,146.5 L254.4,150.4 L254.6,155.3 L254.7,159.9 L254.9,165.1    L255.1,170.9 L255.2,176.3 L255.4,177.3 L255.6,172.5 L255.8,167.1 L255.9,162.3 L256.1,158.0 L256.3,153.6    L256.4,149.7 L256.6,146.3 L256.8,143.6 L257.0,141.4 L257.1,139.6 L257.3,137.4 L257.5,136.2 L257.6,134.6    L257.8,133.1 L258.0,132.1 L258.2,131.4 L258.3,130.3 L258.5,129.5 L258.7,128.9 L258.8,128.3 L259.0,127.9    L259.2,127.6 L259.4,127.3 L259.5,126.7 L259.7,126.2 L259.9,126.0 L260.0,126.5 L260.2,126.6 L260.4,126.2    L260.6,128.0 L260.7,127.2 L260.9,126.8 L261.1,127.6 L261.2,127.5 L261.4,127.4 L261.6,127.9 L261.8,128.9    L261.9,129.8 L262.1,130.5 L262.3,131.0 L262.4,131.7 L262.6,132.8 L262.8,133.7 L263.0,134.7 L263.1,136.1    L263.3,137.1 L263.5,138.6 L263.6,140.5 L263.8,142.5 L264.0,144.1 L264.2,146.5 L264.3,148.7 L264.5,151.1    L264.7,153.9 L264.8,157.2 L265.0,161.0 L265.2,165.3 L265.4,169.0 L265.5,172.8 L265.7,176.4 L265.9,179.0    L266.0,176.9 L266.2,173.4 L266.4,170.0 L266.6,166.6 L266.7,162.9 L266.9,159.3 L267.1,155.9 L267.2,153.1    L267.4,150.7 L267.6,149.0 L267.8,146.6 L267.9,145.3 L268.1,143.9 L268.3,142.2 L268.4,141.0 L268.6,140.3    L268.8,139.3 L268.9,138.3 L269.1,137.6 L269.3,136.9 L269.5,136.5 L269.6,136.1 L269.8,135.7 L270.0,135.2    L270.1,134.5 L270.3,134.1 L270.5,134.3 L270.7,134.8 L270.8,134.3 L271.0,134.6 L271.2,136.2 L271.3,134.5    L271.5,135.2 L271.7,135.4 L271.9,135.1 L272.0,135.3 L272.2,136.0 L272.4,137.0 L272.5,137.7 L272.7,138.2    L272.9,138.9 L273.1,139.6 L273.2,140.6 L273.4,141.4 L273.6,142.6 L273.7,143.7 L273.9,144.8 L274.1,146.6    L274.3,148.5 L274.4,150.1 L274.6,152.1 L274.8,154.1 L274.9,156.3 L275.1,158.6 L275.3,161.3 L275.5,164.2    L275.6,168.0 L275.8,170.9 L276.0,173.7 L276.1,176.2 L276.3,178.7 L276.5,178.7 L276.7,176.3 L276.8,174.0    L277.0,171.6 L277.2,168.9 L277.3,165.7 L277.5,162.6 L277.7,159.8 L277.9,157.4 L278.0,155.5 L278.2,153.7    L278.4,151.7 L278.5,150.7 L278.7,149.1 L278.9,147.5 L279.1,146.7 L279.2,145.9 L279.4,144.8 L279.6,144.0    L279.7,143.4 L279.9,142.9 L280.1,142.3 L280.3,142.0 L280.4,141.6 L280.6,140.8 L280.8,140.3 L280.9,140.1    L281.1,140.6 L281.3,140.6 L281.4,140.1 L281.6,142.0 L281.8,140.7 L282.0,140.7 L282.1,141.3 L282.3,141.1    L282.5,140.9 L282.6,141.3 L282.8,142.3 L283.0,143.1 L283.2,143.7 L283.3,144.2 L283.5,144.8 L283.7,145.7    L283.8,146.5 L284.0,147.3 L284.2,148.5 L284.4,149.4 L284.5,150.8 L284.7,152.8 L284.9,154.5 L285.0,155.9    L285.2,157.8 L285.4,159.7 L285.6,161.8 L285.7,163.9 L285.9,166.3 L286.1,169.1 L286.2,172.0 L286.4,174.2    L286.6,176.0 L286.8,177.8 L286.9,179.3 L287.1,177.7 L287.3,175.9 L287.4,174.5 L287.6,172.6 L287.8,170.1    L288.0,167.4 L288.1,164.9 L288.3,162.5 L288.5,160.4 L288.6,159.2 L288.8,156.9 L289.0,155.8 L289.2,154.5    L289.3,152.9 L289.5,151.8 L289.7,151.1 L289.8,150.1 L290.0,149.1 L290.2,148.4 L290.4,147.8 L290.5,147.4    L290.7,146.9 L290.9,146.6 L291.0,146.0 L291.2,145.3 L291.4,144.8 L291.6,145.1 L291.7,145.6 L291.9,145.0    L292.1,145.5 L292.2,146.4 L292.4,145.1 L292.6,145.8 L292.8,145.9 L292.9,145.5 L293.1,145.6 L293.3,146.3    L293.4,147.3 L293.6,148.0 L293.8,148.3 L294.0,149.1 L294.1,149.6 L294.3,150.5 L294.5,151.0 L294.6,152.2    L294.8,153.1 L295.0,154.1 L295.1,155.9 L295.3,157.7 L295.5,158.9 L295.7,160.6 L295.8,162.2 L296.0,164.0    L296.2,165.9 L296.3,167.7 L296.5,169.8 L296.7,172.4 L296.9,174.3 L297.0,175.8 L297.2,177.1 L297.4,178.8    L297.5,178.4 L297.7,177.0 L297.9,175.9 L298.1,174.8 L298.2,173.2 L298.4,170.9 L298.6,168.7 L298.7,166.5    L298.9,164.5 L299.1,163.1 L299.3,161.5 L299.4,159.7 L299.6,158.9 L299.8,157.4 L299.9,155.9 L300.1,155.3    L300.3,154.5 L300.5,153.4 L300.6,152.6 L300.8,152.1 L301.0,151.7 L301.1,151.1 L301.3,150.7 L301.5,150.4    L301.7,149.5 L301.8,149.0 L302.0,148.8 L302.2,149.4 L302.3,149.2 L302.5,148.8 L302.7,150.6 L302.9,149.1    L303.0,149.3 L303.2,149.8 L303.4,149.4 L303.5,149.2 L303.7,149.6 L303.9,150.6 L304.1,151.4 L304.2,151.9    L304.4,152.6 L304.6,152.9 L304.7,153.7 L304.9,154.3 L305.1,154.9 L305.3,156.0 L305.4,156.8 L305.6,158.2    L305.8,160.0 L305.9,161.3 L306.1,162.6 L306.3,164.0 L306.5,165.6 L306.6,167.3 L306.8,168.7 L307.0,170.2    L307.1,172.3 L307.3,174.3 L307.5,175.6 L307.6,176.5 L307.8,177.8 L308.0,178.8 L308.2,177.4 L308.3,176.5    L308.5,175.9 L308.7,175.0 L308.8,173.2 L309.0,171.5 L309.2,169.7 L309.4,167.7 L309.5,166.1 L309.7,165.4    L309.9,163.1 L310.0,162.3 L310.2,161.2 L310.4,159.6 L310.6,158.7 L310.7,158.2 L310.9,157.1 L311.1,156.2    L311.2,155.6 L311.4,155.1 L311.6,154.6 L311.8,154.2 L311.9,154.0 L312.1,153.3 L312.3,152.6 L312.4,152.0    L312.6,152.4 L312.8,152.8 L313.0,152.1 L313.1,152.8 L313.3,153.1 L313.5,152.3 L313.6,153.0 L313.8,152.8    L314.0,152.4 L314.2,152.5 L314.3,153.2 L314.5,154.3 L314.7,154.7 L314.8,155.2 L315.0,155.9 L315.2,156.2    L315.4,157.0 L315.5,157.2 L315.7,158.2 L315.9,159.0 L316.0,160.0 L316.2,161.7 L316.4,163.1 L316.6,164.1    L316.7,165.4 L316.9,166.6 L317.1,168.1 L317.2,169.5 L317.4,170.5 L317.6,172.0 L317.8,173.9 L317.9,175.3    L318.1,176.0 L318.3,176.9 L318.4,178.2 L318.6,177.7 L318.8,176.7 L319.0,176.3 L319.1,175.9 L319.3,174.9    L319.5,173.4 L319.6,172.0 L319.8,170.3 L320.0,168.7 L320.1,168.1 L320.3,166.4 L320.5,164.9 L320.7,164.4    L320.8,162.9 L321.0,161.6 L321.2,161.2 L321.3,160.4 L321.5,159.3 L321.7,158.7 L321.9,158.2 L322.0,157.9    L322.2,157.3 L322.4,156.9 L322.5,156.6 L322.7,155.8 L322.9,155.1 L323.1,155.0 L323.2,155.6 L323.4,155.3    L323.6,154.9 L323.7,156.5 L323.9,155.1 L324.1,155.5 L324.3,155.8 L324.4,155.3 L324.6,155.0 L324.8,155.4    L324.9,156.4 L325.1,157.2 L325.3,157.5 L325.5,158.4 L325.6,158.4 L325.8,159.1 L326.0,159.5 L326.1,159.9    L326.3,160.7 L326.5,161.5 L326.7,162.9 L326.8,164.5 L327.0,165.3 L327.2,166.3 L327.3,167.3 L327.5,168.6    L327.7,169.9 L327.9,170.7 L328.0,171.7 L328.2,173.3 L328.4,174.8 L328.5,175.6 L328.7,176.1 L328.9,177.1    L329.1,177.8 L329.2,176.8 L329.4,176.3 L329.6,176.2 L329.7,175.9 L329.9,174.6 L330.1,173.5 L330.3,172.4    L330.4,170.8 L330.6,169.8 L330.8,169.5 L330.9,167.2 L331.1,166.7 L331.3,165.9 L331.5,164.3 L331.6,163.7    L331.8,163.2 L332.0,162.2 L332.1,161.4 L332.3,160.8 L332.5,160.5 L332.7,160.0 L332.8,159.5 L333.0,159.4    L333.2,158.6 L333.3,158.0 L333.5,157.4 L333.7,157.9 L333.8,158.1 L334.0,157.4 L334.2,158.2 L334.4,158.0    L334.5,157.6 L334.7,158.2 L334.9,157.8 L335.0,157.3 L335.2,157.4 L335.4,158.1 L335.6,159.2 L335.7,159.5    L335.9,160.1 L336.1,160.7 L336.2,160.7 L336.4,161.3 L336.6,161.3 L336.8,162.0 L336.9,162.7 L337.1,163.7    L337.3,165.3 L337.4,166.3 L337.6,167.0 L337.8,167.9 L338.0,168.8 L338.1,170.0 L338.3,170.9 L338.5,171.4    L338.6,172.6 L338.8,174.0 L339.0,175.1 L339.2,175.4 L339.3,176.1 L339.5,177.3 L339.7,176.6 L339.8,176.1    L340.0,176.1 L340.2,176.1 L340.4,175.5 L340.5,174.5 L340.7,173.7 L340.9,172.5 L341.0,171.3 L341.2,171.5    L341.4,169.7 L341.6,168.5 L341.7,168.2 L341.9,166.9 L342.1,165.8 L342.2,165.5 L342.4,164.8 L342.6,163.8    L342.8,163.2 L342.9,162.8 L343.1,162.5 L343.3,161.9 L343.4,161.7 L343.6,161.3 L343.8,160.5 L344.0,159.8    L344.1,159.7 L344.3,160.3 L344.5,159.9 L344.6,159.6 L344.8,160.7 L345.0,159.6 L345.2,160.1 L345.3,160.1    L345.5,159.5 L345.7,159.2 L345.8,159.6 L346.0,160.5 L346.2,161.2 L346.3,161.4 L346.5,162.7 L346.7,162.2    L346.9,162.8 L347.0,162.8 L347.2,163.1 L347.4,163.7 L347.5,164.4 L347.7,165.7 L347.9,167.0 L348.1,167.5    L348.2,168.3 L348.4,168.8 L348.6,169.9 L348.7,170.9 L348.9,171.2 L349.1,171.9 L349.3,173.2 L349.4,174.3    L349.6,174.8 L349.8,175.2 L349.9,176.1 L350.1,176.4 L350.3,175.8 L350.5,175.6 L350.6,175.8 L350.8,175.8    L351.0,175.0 L351.1,174.4 L351.3,173.8 L351.5,172.6 L351.7,172.2 L351.8,172.3 L352.0,170.0 L352.2,169.8    L352.3,169.2 L352.5,167.8 L352.7,167.4 L352.9,167.0 L353.0,166.1 L353.2,165.3 L353.4,164.9 L353.5,164.8    L353.7,164.2 L353.9,163.7 L354.1,163.5 L354.2,162.8 L354.4,162.1 L354.6,161.5 L354.7,162.1 L354.9,162.1    L355.1,161.4 L355.3,162.2 L355.4,161.7 L355.6,161.6 L355.8,162.1 L355.9,161.5 L356.1,160.9 L356.3,161.0    L356.5,161.6 L356.6,162.7 L356.8,162.7 L357.0,163.7 L357.1,163.9 L357.3,163.7 L357.5,164.1 L357.7,163.9    L357.8,164.3 L358.0,164.9 L358.2,165.8 L358.3,167.3 L358.5,167.8 L358.7,168.3 L358.9,168.9 L359.0,169.5    L359.2,170.5 L359.4,171.0 L359.5,171.2 L359.7,172.2 L359.9,173.3 L360.0,174.2 L360.2,174.3 L360.4,175.0    L360.6,176.0 L360.7,175.3 L360.9,175.1 L361.1,175.4 L361.2,175.6 L361.4,175.3 L361.6,174.7 L361.8,174.4    L361.9,173.6 L362.1,172.8 L362.3,173.9 L362.4,171.8 L362.6,170.9 L362.8,170.8 L363.0,169.8 L363.1,169.0    L363.3,168.8 L363.5,168.2 L363.6,167.2 L363.8,166.7 L364.0,166.5 L364.2,166.2 L364.3,165.6 L364.5,165.4    L364.7,164.9 L364.8,164.2 L365.0,163.4 L365.2,163.5 L365.4,164.0 L365.5,163.4 L365.7,163.2 L365.9,163.9    L366.0,163.1 L366.2,163.5 L366.4,163.3 L366.6,162.6 L366.7,162.3 L366.9,162.6 L367.1,163.4 L367.2,164.0    L367.4,164.2 L367.6,165.8 L367.8,164.5 L367.9,165.0 L368.1,164.7 L368.3,164.8 L368.4,165.2 L368.6,165.9    L368.8,167.2 L369.0,168.0 L369.1,168.2 L369.3,168.9 L369.5,169.1 L369.6,170.0 L369.8,170.7 L370.0,170.7    L370.2,171.2 L370.3,172.3 L370.5,173.2 L370.7,173.6 L370.8,173.9 L371.0,174.8 L371.2,174.8 L371.4,174.5    L371.5,174.6 L371.7,175.1 L371.9,175.2 L372.0,174.7 L372.2,174.6 L372.4,174.3 L372.5,173.4 L372.7,173.7    L372.9,173.9 L373.1,171.9 L373.2,171.9 L373.4,171.5 L373.6,170.4 L373.7,170.3 L373.9,169.9 L374.1,169.1    L374.3,168.4 L374.4,168.1 L374.6,168.1 L374.8,167.4 L374.9,167.0 L375.1,166.9 L375.3,166.1 L375.5,165.3    L375.6,164.8 L375.8,165.4 L376.0,165.2 L376.1,164.5 L376.3,165.2 L376.5,164.5 L376.7,164.6 L376.8,164.9    L377.0,164.0 L377.2,163.4 L377.3,163.5 L377.5,164.0 L377.7,164.9 L377.9,164.8 L378.0,166.2 L378.2,165.8    L378.4,165.4 L378.5,165.6 L378.7,165.2 L378.9,165.3 L379.1,165.9 L379.2,166.7 L379.4,167.9 L379.6,168.0    L379.7,168.5 L379.9,168.8 L380.1,169.1 L380.3,170.1 L380.4,170.2 L380.6,170.2 L380.8,171.1 L380.9,172.0    L381.1,172.8 L381.3,172.8 L381.5,173.5 L381.6,174.2 L381.8,173.7 L382.0,173.8 L382.1,174.3 L382.3,174.7    L382.5,174.5 L382.7,174.3 L382.8,174.5 L383.0,173.9 L383.2,173.5 L383.3,175.4 L383.5,173.0 L383.7,172.6    L383.9,172.7 L384.0,171.8 L384.2,171.4 L384.4,171.4 L384.5,170.7 L384.7,170.0 L384.9,169.6 L385.0,169.6    L385.2,169.2 L385.4,168.5 L385.6,168.4 L385.7,167.9 L385.9,167.1 L386.1,166.3 L386.2,166.4 L386.4,166.7    L386.6,166.0 L386.8,165.9 L386.9,166.2 L387.1,165.6 L387.3,166.0 L387.4,165.4 L387.6,164.6 L387.8,164.3    L388.0,164.4 L388.1,165.2 L388.3,165.5 L388.5,165.8 L388.6,167.4 L388.8,165.7 L389.0,166.1 L389.2,165.5    L389.3,165.4 L389.5,165.6 L389.7,166.3 L389.8,167.4 L390.0,167.8 L390.2,167.9 L390.4,168.5 L390.5,168.3    L390.7,169.2 L390.9,169.7 L391.0,169.4 L391.2,169.8 L391.4,170.8 L391.6,171.6 L391.7,171.9 L391.9,172.2    L392.1,173.0 L392.2,172.9 L392.4,172.9 L392.6,173.2 L392.8,173.8 L392.9,174.1 L393.1,173.8 L393.3,174.1    L393.4,174.1 L393.6,173.5 L393.8,174.5 L394.0,174.6 L394.1,173.0 L394.3,173.4 L394.5,173.1 L394.6,172.3    L394.8,172.5 L395.0,172.1 L395.2,171.4 L395.3,170.9 L395.5,170.7 L395.7,170.9 L395.8,170.1 L396.0,169.7    L396.2,169.5 L396.4,168.7 L396.5,167.9 L396.7,167.4 L396.9,167.9 L397.0,167.5 L397.2,166.8 L397.4,167.3    L397.6,166.6 L397.7,166.7 L397.9,166.6 L398.1,165.6 L398.2,165.0 L398.4,164.9 L398.6,165.3 L398.7,166.1    L398.9,165.7 L399.1,167.5 L399.3,166.3 L399.4,166.0 L399.6,166.0 L399.8,165.3 L399.9,165.3 L400.1,165.7    L400.3,166.5 L400.5,167.5 L400.6,167.3 L400.8,167.7 L401.0,167.8 L401.1,168.0 L401.3,168.8 L401.5,168.7    L401.7,168.5 L401.8,169.4 L402.0,170.2 L402.2,170.8 L402.3,170.9 L402.5,171.6 L402.7,172.1 L402.9,171.8    L403.0,172.1 L403.2,172.7 L403.4,173.3 L403.5,173.2 L403.7,173.3 L403.9,173.9 L404.1,173.6 L404.2,173.6    "
         id="path380" />
    </g>
  </a>
  <a
     xlink:title="Plot #2"
     id="a382">
    <g
       style="fill:none; color:green; stroke:currentColor; stroke-width:1.00; stroke-linecap:butt; stroke-linejoin:miter"
       id="g384">
      <path
         stroke="rgb(  0,   0, 255)"
         d="M53.7,251.7 L53.9,249.5 L54.0,249.3 L54.2,249.3 L54.4,249.5 L54.6,249.7 L54.7,249.5 L54.9,248.9    L55.1,248.2 L55.2,247.8 L55.4,247.4 L55.6,246.3 L55.8,246.2 L55.9,246.5 L56.1,246.1 L56.3,245.5    L56.4,244.5 L56.6,244.2 L56.8,244.0 L57.0,243.7 L57.1,243.5 L57.3,243.6 L57.5,243.1 L57.6,242.7    L57.8,241.9 L58.0,241.3 L58.2,241.1 L58.3,241.1 L58.5,241.6 L58.7,241.8 L58.8,242.3 L59.0,243.3    L59.2,241.5 L59.4,241.4 L59.5,240.8 L59.7,240.4 L59.9,240.5 L60.0,240.7 L60.2,241.3 L60.4,241.8    L60.5,242.0 L60.7,242.5 L60.9,241.9 L61.1,242.3 L61.2,242.3 L61.4,242.5 L61.6,243.1 L61.7,243.9    L61.9,244.3 L62.1,244.3 L62.3,244.1 L62.4,244.9 L62.6,245.6 L62.8,246.0 L62.9,246.7 L63.1,247.6    L63.3,248.0 L63.5,248.2 L63.6,248.1 L63.8,248.4 L64.0,248.6 L64.1,250.1 L64.3,250.1 L64.5,249.3    L64.7,249.7 L64.8,249.9 L65.0,250.6 L65.2,250.8 L65.3,250.5 L65.5,250.0 L65.7,249.5 L65.9,249.3    L66.0,248.6 L66.2,247.8 L66.4,248.0 L66.5,247.9 L66.7,247.5 L66.9,246.4 L67.1,245.6 L67.2,245.2    L67.4,245.0 L67.6,244.3 L67.7,244.6 L67.9,243.9 L68.1,243.4 L68.3,242.7 L68.4,241.7 L68.6,241.3    L68.8,240.9 L68.9,241.1 L69.1,241.4 L69.3,241.2 L69.5,242.6 L69.6,241.0 L69.8,240.4 L70.0,240.0    L70.1,239.2 L70.3,239.1 L70.5,239.0 L70.7,239.5 L70.8,239.9 L71.0,240.0 L71.2,240.6 L71.3,240.0    L71.5,240.0 L71.7,240.1 L71.9,240.1 L72.0,240.4 L72.2,241.2 L72.4,241.7 L72.5,242.1 L72.7,241.8    L72.9,242.0 L73.1,243.0 L73.2,243.5 L73.4,244.1 L73.6,245.0 L73.7,245.8 L73.9,246.2 L74.1,246.5    L74.2,246.8 L74.4,247.3 L74.6,248.0 L74.8,250.0 L74.9,248.8 L75.1,249.2 L75.3,249.8 L75.4,250.6    L75.6,251.5 L75.8,251.5 L76.0,251.3 L76.1,251.0 L76.3,250.7 L76.5,250.5 L76.6,249.3 L76.8,249.2    L77.0,249.3 L77.2,248.8 L77.3,248.0 L77.5,246.8 L77.7,246.2 L77.8,245.6 L78.0,245.0 L78.2,244.5    L78.4,244.3 L78.5,243.6 L78.7,242.7 L78.9,241.6 L79.0,240.8 L79.2,240.2 L79.4,240.1 L79.6,240.2    L79.7,240.1 L79.9,240.1 L80.1,240.0 L80.2,238.8 L80.4,238.5 L80.6,237.6 L80.8,237.1 L80.9,237.0    L81.1,237.0 L81.3,237.4 L81.4,237.6 L81.6,237.8 L81.8,238.1 L82.0,237.4 L82.1,237.6 L82.3,237.5    L82.5,237.6 L82.6,238.1 L82.8,238.7 L83.0,239.2 L83.2,239.2 L83.3,238.9 L83.5,239.9 L83.7,240.6    L83.8,241.1 L84.0,241.9 L84.2,243.0 L84.4,243.6 L84.5,244.1 L84.7,244.5 L84.9,245.3 L85.0,245.9    L85.2,247.6 L85.4,247.8 L85.6,248.0 L85.7,248.9 L85.9,249.7 L86.1,251.2 L86.2,251.8 L86.4,252.0    L86.6,251.9 L86.7,251.6 L86.9,251.7 L87.1,250.9 L87.3,250.2 L87.4,250.2 L87.6,249.8 L87.8,249.2    L87.9,247.7 L88.1,246.7 L88.3,245.9 L88.5,245.2 L88.6,244.3 L88.8,244.0 L89.0,243.1 L89.1,242.1    L89.3,241.0 L89.5,239.8 L89.7,239.1 L89.8,238.5 L90.0,238.4 L90.2,238.3 L90.3,237.7 L90.5,237.9    L90.7,236.8 L90.9,236.3 L91.0,235.6 L91.2,234.7 L91.4,234.5 L91.5,234.3 L91.7,234.6 L91.9,234.7    L92.1,234.7 L92.2,235.5 L92.4,234.5 L92.6,234.5 L92.7,234.5 L92.9,234.4 L93.1,234.7 L93.3,235.4    L93.4,235.7 L93.6,236.1 L93.8,235.9 L93.9,236.2 L94.1,237.1 L94.3,237.8 L94.5,238.5 L94.6,239.6    L94.8,240.5 L95.0,241.0 L95.1,241.7 L95.3,242.5 L95.5,243.3 L95.7,244.4 L95.8,246.0 L96.0,246.0    L96.2,247.0 L96.3,248.2 L96.5,249.8 L96.7,251.3 L96.9,251.8 L97.0,252.1 L97.2,252.2 L97.4,252.2    L97.5,252.2 L97.7,250.9 L97.9,250.7 L98.1,250.4 L98.2,249.7 L98.4,248.3 L98.6,246.8 L98.7,245.6    L98.9,244.7 L99.1,243.7 L99.2,242.8 L99.4,242.0 L99.6,240.8 L99.8,239.7 L99.9,238.3 L100.1,237.2    L100.3,236.5 L100.4,236.1 L100.6,235.8 L100.8,235.3 L101.0,234.7 L101.1,234.1 L101.3,233.5 L101.5,232.9    L101.6,232.0 L101.8,231.5 L102.0,231.1 L102.2,231.2 L102.3,231.3 L102.5,231.4 L102.7,231.6 L102.8,231.8    L103.0,230.9 L103.2,231.1 L103.4,230.9 L103.5,231.0 L103.7,231.5 L103.9,232.0 L104.0,232.5 L104.2,232.5    L104.4,232.3 L104.6,233.2 L104.7,234.1 L104.9,234.7 L105.1,235.6 L105.2,236.8 L105.4,237.4 L105.6,238.1    L105.8,239.0 L105.9,240.1 L106.1,241.0 L106.3,242.8 L106.4,243.4 L106.6,244.3 L106.8,245.8 L107.0,247.5    L107.1,249.6 L107.3,250.8 L107.5,251.6 L107.6,252.1 L107.8,252.3 L108.0,252.6 L108.2,251.7 L108.3,250.9    L108.5,250.5 L108.7,249.7 L108.8,248.6 L109.0,246.6 L109.2,245.0 L109.4,243.6 L109.5,242.5 L109.7,241.2    L109.9,240.3 L110.0,238.9 L110.2,237.6 L110.4,236.2 L110.6,234.9 L110.7,233.9 L110.9,233.2 L111.1,232.7    L111.2,232.3 L111.4,231.3 L111.6,230.8 L111.8,230.1 L111.9,229.6 L112.1,228.7 L112.3,227.9 L112.4,227.7    L112.6,227.4 L112.8,227.5 L112.9,227.5 L113.1,227.4 L113.3,228.5 L113.5,227.1 L113.6,227.1 L113.8,227.1    L114.0,227.0 L114.1,227.2 L114.3,227.8 L114.5,228.2 L114.7,228.6 L114.8,228.3 L115.0,228.8 L115.2,229.7    L115.3,230.4 L115.5,231.2 L115.7,232.4 L115.9,233.3 L116.0,234.0 L116.2,235.0 L116.4,236.1 L116.5,237.2    L116.7,238.5 L116.9,240.0 L117.1,240.9 L117.2,242.5 L117.4,244.4 L117.6,246.7 L117.7,248.8 L117.9,250.1    L118.1,251.1 L118.3,251.8 L118.4,252.3 L118.6,252.3 L118.8,251.0 L118.9,250.2 L119.1,249.2 L119.3,248.0    L119.5,246.0 L119.6,243.9 L119.8,242.1 L120.0,240.6 L120.1,239.1 L120.3,237.8 L120.5,236.4 L120.7,234.8    L120.8,233.5 L121.0,232.0 L121.2,230.6 L121.3,229.8 L121.5,229.0 L121.7,228.6 L121.9,227.6 L122.0,226.7    L122.2,226.0 L122.4,225.6 L122.5,225.0 L122.7,224.0 L122.9,223.5 L123.1,223.1 L123.2,223.1 L123.4,223.1    L123.6,223.0 L123.7,223.5 L123.9,223.4 L124.1,222.6 L124.3,222.6 L124.4,222.5 L124.6,222.5 L124.8,223.0    L124.9,223.4 L125.1,224.0 L125.3,224.0 L125.4,224.0 L125.6,224.8 L125.8,225.7 L126.0,226.4 L126.1,227.3    L126.3,228.6 L126.5,229.3 L126.6,230.2 L126.8,231.3 L127.0,232.7 L127.2,233.8 L127.3,235.5 L127.5,236.6    L127.7,238.2 L127.8,240.2 L128.0,242.7 L128.2,245.5 L128.4,247.4 L128.5,249.1 L128.7,250.5 L128.9,251.3    L129.0,252.0 L129.2,250.9 L129.4,249.7 L129.6,248.4 L129.7,246.8 L129.9,245.0 L130.1,242.3 L130.2,240.0    L130.4,238.0 L130.6,236.4 L130.8,234.7 L130.9,233.1 L131.1,231.4 L131.3,229.8 L131.4,228.4 L131.6,226.8    L131.8,225.8 L132.0,225.0 L132.1,224.1 L132.3,223.4 L132.5,222.2 L132.6,221.4 L132.8,221.0 L133.0,220.4    L133.2,219.5 L133.3,218.7 L133.5,218.4 L133.7,218.1 L133.8,218.1 L134.0,218.0 L134.2,218.0 L134.4,219.2    L134.5,217.6 L134.7,217.6 L134.9,217.5 L135.0,217.4 L135.2,217.7 L135.4,218.1 L135.6,218.6 L135.7,219.0    L135.9,218.8 L136.1,219.3 L136.2,220.2 L136.4,221.0 L136.6,221.8 L136.8,223.0 L136.9,223.9 L137.1,224.7    L137.3,225.9 L137.4,227.3 L137.6,228.5 L137.8,230.0 L138.0,231.6 L138.1,233.1 L138.3,235.1 L138.5,237.7    L138.6,240.8 L138.8,243.5 L139.0,245.7 L139.1,247.8 L139.3,249.5 L139.5,250.6 L139.7,250.6 L139.8,248.8    L140.0,247.1 L140.2,245.1 L140.3,242.9 L140.5,240.2 L140.7,237.4 L140.9,234.9 L141.0,232.9 L141.2,231.0    L141.4,229.1 L141.5,227.2 L141.7,225.5 L141.9,224.0 L142.1,222.4 L142.2,221.0 L142.4,220.1 L142.6,219.1    L142.7,218.3 L142.9,217.2 L143.1,216.1 L143.3,215.4 L143.4,215.1 L143.6,214.4 L143.8,213.5 L143.9,213.0    L144.1,212.5 L144.3,212.5 L144.5,212.4 L144.6,212.2 L144.8,213.0 L145.0,212.5 L145.1,211.8 L145.3,211.8    L145.5,211.6 L145.7,211.6 L145.8,212.1 L146.0,212.5 L146.2,213.1 L146.3,213.1 L146.5,213.1 L146.7,214.0    L146.9,214.9 L147.0,215.6 L147.2,216.6 L147.4,217.8 L147.5,218.5 L147.7,219.6 L147.9,220.9 L148.1,222.4    L148.2,223.7 L148.4,225.5 L148.6,227.0 L148.7,229.0 L148.9,231.5 L149.1,234.6 L149.3,238.1 L149.4,240.8    L149.6,243.6 L149.8,246.2 L149.9,248.1 L150.1,249.3 L150.3,247.7 L150.5,245.5 L150.6,242.9 L150.8,240.1    L151.0,237.4 L151.1,234.0 L151.3,231.1 L151.5,228.5 L151.6,226.4 L151.8,224.4 L152.0,222.3 L152.2,220.3    L152.3,218.6 L152.5,217.1 L152.7,215.4 L152.8,214.4 L153.0,213.3 L153.2,212.4 L153.4,211.4 L153.5,210.1    L153.7,209.2 L153.9,208.9 L154.0,208.3 L154.2,207.4 L154.4,206.6 L154.6,206.2 L154.7,205.9 L154.9,205.8    L155.1,205.7 L155.2,205.7 L155.4,207.0 L155.6,205.1 L155.8,205.2 L155.9,205.1 L156.1,204.9 L156.3,205.2    L156.4,205.6 L156.6,206.1 L156.8,206.4 L157.0,206.3 L157.1,206.9 L157.3,207.7 L157.5,208.5 L157.6,209.4    L157.8,210.5 L158.0,211.4 L158.2,212.3 L158.3,213.6 L158.5,215.1 L158.7,216.4 L158.8,218.2 L159.0,219.9    L159.2,221.8 L159.4,224.2 L159.5,227.2 L159.7,230.9 L159.9,234.3 L160.0,237.6 L160.2,241.0 L160.4,244.2    L160.6,246.4 L160.7,246.2 L160.9,243.4 L161.1,240.1 L161.2,236.6 L161.4,233.3 L161.6,229.8 L161.8,226.3    L161.9,223.2 L162.1,220.7 L162.3,218.5 L162.4,216.3 L162.6,214.1 L162.8,212.2 L163.0,210.6 L163.1,208.9    L163.3,207.6 L163.5,206.6 L163.6,205.4 L163.8,204.4 L164.0,203.2 L164.1,202.0 L164.3,201.3 L164.5,201.0    L164.7,200.3 L164.8,199.4 L165.0,198.9 L165.2,198.3 L165.3,198.3 L165.5,198.1 L165.7,197.8 L165.9,199.0    L166.0,197.9 L166.2,197.4 L166.4,197.4 L166.5,197.2 L166.7,197.2 L166.9,197.6 L167.1,197.9 L167.2,198.5    L167.4,198.5 L167.6,198.6 L167.7,199.4 L167.9,200.3 L168.1,201.0 L168.3,202.0 L168.4,203.2 L168.6,203.9    L168.8,205.1 L168.9,206.5 L169.1,208.0 L169.3,209.4 L169.5,211.4 L169.6,213.1 L169.8,215.4 L170.0,218.2    L170.1,221.9 L170.3,225.8 L170.5,229.6 L170.7,233.6 L170.8,237.9 L171.0,241.6 L171.2,243.5 L171.3,240.8    L171.5,236.6 L171.7,232.2 L171.9,228.0 L172.0,224.4 L172.2,220.4 L172.4,216.7 L172.5,213.7 L172.7,211.3    L172.9,209.0 L173.1,206.5 L173.2,204.6 L173.4,202.8 L173.6,201.1 L173.7,199.4 L173.9,198.4 L174.1,197.1    L174.3,196.0 L174.4,194.9 L174.6,193.5 L174.8,192.6 L174.9,192.3 L175.1,191.6 L175.3,190.7 L175.5,190.0    L175.6,189.5 L175.8,189.2 L176.0,189.0 L176.1,188.7 L176.3,188.9 L176.5,189.9 L176.7,188.1 L176.8,188.1    L177.0,187.9 L177.2,187.7 L177.3,188.1 L177.5,188.4 L177.7,188.8 L177.8,189.1 L178.0,188.9 L178.2,189.6    L178.4,190.4 L178.5,191.2 L178.7,192.0 L178.9,193.1 L179.0,193.9 L179.2,194.8 L179.4,196.2 L179.6,197.7    L179.7,199.1 L179.9,201.0 L180.1,202.8 L180.2,204.9 L180.4,207.5 L180.6,210.9 L180.8,215.0 L180.9,219.1    L181.1,223.5 L181.3,228.4 L181.4,233.9 L181.6,238.1 L181.8,237.4 L182.0,232.3 L182.1,226.5 L182.3,221.3    L182.5,216.9 L182.6,212.7 L182.8,208.5 L183.0,204.9 L183.2,202.2 L183.3,199.7 L183.5,197.3 L183.7,194.9    L183.8,193.0 L184.0,191.2 L184.2,189.4 L184.4,188.1 L184.5,187.0 L184.7,185.7 L184.9,184.5 L185.0,183.2    L185.2,182.0 L185.4,181.2 L185.6,180.9 L185.7,180.0 L185.9,179.2 L186.1,178.6 L186.2,178.0 L186.4,177.8    L186.6,177.6 L186.8,177.2 L186.9,178.7 L187.1,177.1 L187.3,176.6 L187.4,176.5 L187.6,176.2 L187.8,176.2    L188.0,176.5 L188.1,176.8 L188.3,177.3 L188.5,177.2 L188.6,177.4 L188.8,178.1 L189.0,179.0 L189.2,179.7    L189.3,180.6 L189.5,181.6 L189.7,182.3 L189.8,183.5 L190.0,184.9 L190.2,186.3 L190.3,187.9 L190.5,189.9    L190.7,191.8 L190.9,194.1 L191.0,197.2 L191.2,201.2 L191.4,205.4 L191.5,210.0 L191.7,215.1 L191.9,221.6    L192.1,228.5 L192.2,231.6 L192.4,226.4 L192.6,218.9 L192.7,212.2 L192.9,206.8 L193.1,202.2 L193.3,197.6    L193.4,193.5 L193.6,190.2 L193.8,187.5 L193.9,185.0 L194.1,182.3 L194.3,180.3 L194.5,178.4 L194.6,176.6    L194.8,174.8 L195.0,173.7 L195.1,172.3 L195.3,171.0 L195.5,169.7 L195.7,168.2 L195.8,167.2 L196.0,166.8    L196.2,166.1 L196.3,165.1 L196.5,164.3 L196.7,163.6 L196.9,163.3 L197.0,162.9 L197.2,162.5 L197.4,162.8    L197.5,163.3 L197.7,161.6 L197.9,161.4 L198.1,161.2 L198.2,160.9 L198.4,161.1 L198.6,161.3 L198.7,161.7    L198.9,161.8 L199.1,161.6 L199.3,162.0 L199.4,162.8 L199.6,163.5 L199.8,164.2 L199.9,165.2 L200.1,165.8    L200.3,166.7 L200.5,168.0 L200.6,169.4 L200.8,170.7 L201.0,172.6 L201.1,174.4 L201.3,176.5 L201.5,179.2    L201.7,182.8 L201.8,187.0 L202.0,191.5 L202.2,196.6 L202.3,203.1 L202.5,211.7 L202.7,219.8 L202.9,217.5    L203.0,207.7 L203.2,198.9 L203.4,192.2 L203.5,186.9 L203.7,181.9 L203.9,177.2 L204.0,173.3 L204.2,170.2    L204.4,167.5 L204.6,164.8 L204.7,162.3 L204.9,160.2 L205.1,158.2 L205.2,156.2 L205.4,154.8 L205.6,153.4    L205.8,151.9 L205.9,150.4 L206.1,148.9 L206.3,147.6 L206.4,146.7 L206.6,146.0 L206.8,145.0 L207.0,144.0    L207.1,143.2 L207.3,142.4 L207.5,142.0 L207.6,141.5 L207.8,140.9 L208.0,142.6 L208.2,140.2 L208.3,139.7    L208.5,139.3 L208.7,138.8 L208.8,138.6 L209.0,138.6 L209.2,138.7 L209.4,138.9 L209.5,138.6 L209.7,138.5    L209.9,139.0 L210.0,139.6 L210.2,140.0 L210.4,140.7 L210.6,141.3 L210.7,141.8 L210.9,142.8 L211.1,144.0    L211.2,145.0 L211.4,146.4 L211.6,148.3 L211.8,149.9 L211.9,152.1 L212.1,155.1 L212.3,158.9 L212.4,163.0    L212.6,168.0 L212.8,173.8 L213.0,182.3 L213.1,193.9 L213.3,199.2 L213.5,187.3 L213.6,175.5 L213.8,166.9    L214.0,160.6 L214.2,154.9 L214.3,149.6 L214.5,144.9 L214.7,141.0 L214.8,137.9 L215.0,134.9 L215.2,131.7    L215.4,129.2 L215.5,126.8 L215.7,124.5 L215.9,122.3 L216.0,120.6 L216.2,118.6 L216.4,116.7 L216.5,114.8    L216.7,112.8 L216.9,111.2 L217.1,110.2 L217.2,108.8 L217.4,107.2 L217.6,105.8 L217.7,104.3 L217.9,103.3    L218.1,102.2 L218.3,101.0 L218.4,100.9 L218.6,99.8 L218.8,97.7 L218.9,96.6 L219.1,95.4 L219.3,94.2    L219.5,93.5 L219.6,92.6 L219.8,92.0 L220.0,90.9 L220.1,89.5 L220.3,88.8 L220.5,88.4 L220.7,87.6    L220.8,86.9 L221.0,86.3 L221.2,85.3 L221.3,84.5 L221.5,84.0 L221.7,83.3 L221.9,82.5 L222.0,82.2    L222.2,81.4 L222.4,80.6 L222.5,80.2 L222.7,80.3 L222.9,80.0 L223.1,79.5 L223.2,78.3 L223.4,73.2    L223.6,46.6 L223.7,31.3 L223.9,35.6 L224.1,58.9 L224.3,74.9 L224.4,75.6 L224.6,75.8 L224.8,75.4    L224.9,74.6 L225.1,73.8 L225.3,73.7 L225.5,73.7 L225.6,73.3 L225.8,73.0 L226.0,72.8 L226.1,72.7    L226.3,72.3 L226.5,72.4 L226.7,72.3 L226.8,72.1 L227.0,71.8 L227.2,71.4 L227.3,71.2 L227.5,71.3    L227.7,71.6 L227.9,71.4 L228.0,71.2 L228.2,71.1 L228.4,71.0 L228.5,71.2 L228.7,71.3 L228.9,71.3    L229.0,73.5 L229.2,71.4 L229.4,71.3 L229.6,71.2 L229.7,71.0 L229.9,71.1 L230.1,71.2 L230.2,71.4    L230.4,71.6 L230.6,71.3 L230.8,71.2 L230.9,71.5 L231.1,71.9 L231.3,72.1 L231.4,72.3 L231.6,72.4    L231.8,72.2 L232.0,72.7 L232.1,72.9 L232.3,73.0 L232.5,73.3 L232.6,73.7 L232.8,73.7 L233.0,73.8    L233.2,74.6 L233.3,75.3 L233.5,75.7 L233.7,75.6 L233.8,75.1 L234.0,58.7 L234.2,35.1 L234.4,30.7    L234.5,46.0 L234.7,73.3 L234.9,78.4 L235.0,79.6 L235.2,80.1 L235.4,80.3 L235.6,80.2 L235.7,80.6    L235.9,81.4 L236.1,82.2 L236.2,82.5 L236.4,83.3 L236.6,83.9 L236.8,84.6 L236.9,85.3 L237.1,86.3    L237.3,86.9 L237.4,87.6 L237.6,88.2 L237.8,88.8 L238.0,89.5 L238.1,90.9 L238.3,91.9 L238.5,92.6    L238.6,93.5 L238.8,94.3 L239.0,95.5 L239.2,96.6 L239.3,97.6 L239.5,99.8 L239.7,100.9 L239.8,101.0    L240.0,102.2 L240.2,103.2 L240.4,104.3 L240.5,105.7 L240.7,107.2 L240.9,108.9 L241.0,110.2 L241.2,111.2    L241.4,112.8 L241.6,114.9 L241.7,116.7 L241.9,118.5 L242.1,120.6 L242.2,122.3 L242.4,124.4 L242.6,126.9    L242.7,129.2 L242.9,131.7 L243.1,134.9 L243.3,137.9 L243.4,141.0 L243.6,144.8 L243.8,149.6 L243.9,154.8    L244.1,160.5 L244.3,166.9 L244.5,175.5 L244.6,187.4 L244.8,199.1 L245.0,193.7 L245.1,182.2 L245.3,173.8    L245.5,168.0 L245.7,163.1 L245.8,159.0 L246.0,155.1 L246.2,152.1 L246.3,150.0 L246.5,148.3 L246.7,146.4    L246.9,145.0 L247.0,143.9 L247.2,142.8 L247.4,141.8 L247.5,141.3 L247.7,140.7 L247.9,140.1 L248.1,139.5    L248.2,138.9 L248.4,138.5 L248.6,138.6 L248.7,138.8 L248.9,138.7 L249.1,138.6 L249.3,138.7 L249.4,138.9    L249.6,139.3 L249.8,139.6 L249.9,140.1 L250.1,142.6 L250.3,141.0 L250.5,141.5 L250.6,141.9 L250.8,142.3    L251.0,143.2 L251.1,144.0 L251.3,145.0 L251.5,146.1 L251.7,146.6 L251.8,147.6 L252.0,149.0 L252.2,150.5    L252.3,151.8 L252.5,153.3 L252.7,154.8 L252.9,156.2 L253.0,158.3 L253.2,160.2 L253.4,162.3 L253.5,164.8    L253.7,167.6 L253.9,170.2 L254.1,173.2 L254.2,177.2 L254.4,181.8 L254.6,186.8 L254.7,192.1 L254.9,198.9    L255.1,207.8 L255.2,217.7 L255.4,219.8 L255.6,211.6 L255.8,203.0 L255.9,196.6 L256.1,191.5 L256.3,187.1    L256.4,182.9 L256.6,179.2 L256.8,176.5 L257.0,174.4 L257.1,172.6 L257.3,170.7 L257.5,169.3 L257.6,168.0    L257.8,166.7 L258.0,165.8 L258.2,165.2 L258.3,164.2 L258.5,163.4 L258.7,162.7 L258.8,162.0 L259.0,161.6    L259.2,161.8 L259.4,161.6 L259.5,161.3 L259.7,161.1 L259.9,160.9 L260.0,161.2 L260.2,161.4 L260.4,161.5    L260.6,163.3 L260.7,162.8 L260.9,162.6 L261.1,162.9 L261.2,163.2 L261.4,163.6 L261.6,164.3 L261.8,165.1    L261.9,166.1 L262.1,166.8 L262.3,167.2 L262.4,168.3 L262.6,169.8 L262.8,171.0 L263.0,172.2 L263.1,173.7    L263.3,174.8 L263.5,176.5 L263.6,178.4 L263.8,180.3 L264.0,182.3 L264.2,185.1 L264.3,187.5 L264.5,190.1    L264.7,193.4 L264.8,197.6 L265.0,202.1 L265.2,206.7 L265.4,212.1 L265.5,219.1 L265.7,226.9 L265.9,231.9    L266.0,228.5 L266.2,221.4 L266.4,215.1 L266.6,210.0 L266.7,205.3 L266.9,201.3 L267.1,197.3 L267.2,194.1    L267.4,191.8 L267.6,189.9 L267.8,187.9 L267.9,186.2 L268.1,184.8 L268.3,183.5 L268.4,182.3 L268.6,181.6    L268.8,180.6 L268.9,179.7 L269.1,178.8 L269.3,178.0 L269.5,177.4 L269.6,177.3 L269.8,177.2 L270.0,176.8    L270.1,176.5 L270.3,176.2 L270.5,176.3 L270.7,176.5 L270.8,176.5 L271.0,177.0 L271.2,178.7 L271.3,177.2    L271.5,177.6 L271.7,177.8 L271.9,178.0 L272.0,178.6 L272.2,179.2 L272.4,180.1 L272.5,180.9 L272.7,181.2    L272.9,182.0 L273.1,183.2 L273.2,184.6 L273.4,185.7 L273.6,187.0 L273.7,188.1 L273.9,189.4 L274.1,191.3    L274.3,193.0 L274.4,194.9 L274.6,197.3 L274.8,199.7 L274.9,202.1 L275.1,204.8 L275.3,208.4 L275.5,212.5    L275.6,216.7 L275.8,221.1 L276.0,226.5 L276.1,232.8 L276.3,238.0 L276.5,238.4 L276.7,233.9 L276.8,228.2    L277.0,223.3 L277.2,218.9 L277.3,215.0 L277.5,211.1 L277.7,207.6 L277.9,204.9 L278.0,202.8 L278.2,201.0    L278.4,199.0 L278.5,197.6 L278.7,196.2 L278.9,194.9 L279.1,193.9 L279.2,193.1 L279.4,192.0 L279.6,191.1    L279.7,190.3 L279.9,189.6 L280.1,189.0 L280.3,189.0 L280.4,188.8 L280.6,188.3 L280.8,188.1 L280.9,187.8    L281.1,188.0 L281.3,188.1 L281.4,188.0 L281.6,189.9 L281.8,188.9 L282.0,188.8 L282.1,189.0 L282.3,189.1    L282.5,189.5 L282.6,190.0 L282.8,190.7 L283.0,191.7 L283.2,192.2 L283.3,192.5 L283.5,193.5 L283.7,194.9    L283.8,196.0 L284.0,197.1 L284.2,198.4 L284.4,199.4 L284.5,201.1 L284.7,202.8 L284.9,204.6 L285.0,206.5    L285.2,209.0 L285.4,211.2 L285.6,213.6 L285.7,216.6 L285.9,220.3 L286.1,224.1 L286.2,227.7 L286.4,231.9    L286.6,237.1 L286.8,241.6 L286.9,244.1 L287.1,241.8 L287.3,237.8 L287.4,233.3 L287.6,229.3 L287.8,225.7    L288.0,222.1 L288.1,218.4 L288.3,215.5 L288.5,213.2 L288.6,211.4 L288.8,209.4 L289.0,207.8 L289.2,206.5    L289.3,205.1 L289.5,203.9 L289.7,203.1 L289.8,202.1 L290.0,201.1 L290.2,200.2 L290.4,199.4 L290.5,198.7    L290.7,198.5 L290.9,198.4 L291.0,197.9 L291.2,197.5 L291.4,197.2 L291.6,197.2 L291.7,197.4 L291.9,197.3    L292.1,197.9 L292.2,199.0 L292.4,197.8 L292.6,198.1 L292.8,198.2 L292.9,198.3 L293.1,199.0 L293.3,199.4    L293.4,200.3 L293.6,201.0 L293.8,201.2 L294.0,202.0 L294.1,203.2 L294.3,204.4 L294.5,205.4 L294.6,206.7    L294.8,207.7 L295.0,208.9 L295.1,210.6 L295.3,212.4 L295.5,214.1 L295.7,216.3 L295.8,218.5 L296.0,220.6    L296.2,223.1 L296.3,226.2 L296.5,229.7 L296.7,232.9 L296.9,236.2 L297.0,240.1 L297.2,244.3 L297.4,247.0    L297.5,247.0 L297.7,244.3 L297.9,240.8 L298.1,237.2 L298.2,233.9 L298.4,230.9 L298.6,227.4 L298.7,224.4    L298.9,221.8 L299.1,219.9 L299.3,218.2 L299.4,216.3 L299.6,215.0 L299.8,213.7 L299.9,212.4 L300.1,211.4    L300.3,210.5 L300.5,209.4 L300.6,208.5 L300.8,207.7 L301.0,207.0 L301.1,206.3 L301.3,206.3 L301.5,206.0    L301.7,205.5 L301.8,205.2 L302.0,204.9 L302.2,205.1 L302.3,205.1 L302.5,205.1 L302.7,207.0 L302.9,205.7    L303.0,205.7 L303.2,205.8 L303.4,205.9 L303.5,206.3 L303.7,206.7 L303.9,207.4 L304.1,208.4 L304.2,208.7    L304.4,209.1 L304.6,210.1 L304.7,211.4 L304.9,212.3 L305.1,213.4 L305.3,214.5 L305.4,215.4 L305.6,217.0    L305.8,218.7 L305.9,220.4 L306.1,222.1 L306.3,224.4 L306.5,226.4 L306.6,228.4 L306.8,230.9 L307.0,233.9    L307.1,236.9 L307.3,239.5 L307.5,242.5 L307.6,246.2 L307.8,248.7 L308.0,250.1 L308.2,248.5 L308.3,246.2    L308.5,243.2 L308.7,240.3 L308.8,237.7 L309.0,234.9 L309.2,231.8 L309.4,229.1 L309.5,227.0 L309.7,225.6    L309.9,223.6 L310.0,222.2 L310.2,221.0 L310.4,219.6 L310.6,218.5 L310.7,217.7 L310.9,216.6 L311.1,215.7    L311.2,214.9 L311.4,214.1 L311.6,213.3 L311.8,213.1 L311.9,213.0 L312.1,212.4 L312.3,212.0 L312.4,211.6    L312.6,211.7 L312.8,211.8 L313.0,211.7 L313.1,212.5 L313.3,213.0 L313.5,212.2 L313.6,212.4 L313.8,212.4    L314.0,212.6 L314.2,213.1 L314.3,213.5 L314.5,214.4 L314.7,215.1 L314.8,215.2 L315.0,216.0 L315.2,217.2    L315.4,218.3 L315.5,219.1 L315.7,220.3 L315.9,221.2 L316.0,222.3 L316.2,223.9 L316.4,225.6 L316.6,227.1    L316.7,229.1 L316.9,231.0 L317.1,232.8 L317.2,234.8 L317.4,237.2 L317.6,239.9 L317.8,242.2 L317.9,244.5    L318.1,247.3 L318.3,249.8 L318.4,251.5 L318.6,251.3 L318.8,249.7 L319.0,247.6 L319.1,245.1 L319.3,242.9    L319.5,240.7 L319.6,238.0 L319.8,235.4 L320.0,233.1 L320.1,231.7 L320.3,230.1 L320.5,228.2 L320.7,227.2    L320.8,226.0 L321.0,224.7 L321.2,223.8 L321.3,223.0 L321.5,221.9 L321.7,221.0 L321.9,220.3 L322.0,219.5    L322.2,218.9 L322.4,218.9 L322.5,218.4 L322.7,217.9 L322.9,217.6 L323.1,217.4 L323.2,217.6 L323.4,217.5    L323.6,217.6 L323.7,219.2 L323.9,218.0 L324.1,218.1 L324.3,218.1 L324.4,218.1 L324.6,218.6 L324.8,218.9    L324.9,219.6 L325.1,220.5 L325.3,220.7 L325.5,221.2 L325.6,222.1 L325.8,223.3 L326.0,224.1 L326.1,225.0    L326.3,226.1 L326.5,226.8 L326.7,228.2 L326.8,229.9 L327.0,231.5 L327.2,232.9 L327.3,234.8 L327.5,236.4    L327.7,238.0 L327.9,239.8 L328.0,242.1 L328.2,244.3 L328.4,246.0 L328.5,248.0 L328.7,250.5 L328.9,251.9    L329.1,252.9 L329.2,251.8 L329.4,250.5 L329.6,248.6 L329.7,246.7 L329.9,245.0 L330.1,243.0 L330.3,240.6    L330.4,238.3 L330.6,236.6 L330.8,235.7 L330.9,233.6 L331.1,232.5 L331.3,231.5 L331.5,230.2 L331.6,229.2    L331.8,228.4 L332.0,227.4 L332.1,226.5 L332.3,225.8 L332.5,225.1 L332.7,224.2 L332.8,224.0 L333.0,223.8    L333.2,223.2 L333.3,222.8 L333.5,222.5 L333.7,222.6 L333.8,222.7 L334.0,222.5 L334.2,223.4 L334.4,223.4    L334.5,223.0 L334.7,223.1 L334.9,223.1 L335.0,223.3 L335.2,223.8 L335.4,224.1 L335.6,225.0 L335.7,225.5    L335.9,225.6 L336.1,226.4 L336.2,227.5 L336.4,228.4 L336.6,229.1 L336.8,230.2 L336.9,230.9 L337.1,231.8    L337.3,233.4 L337.4,234.9 L337.6,236.2 L337.8,237.8 L338.0,239.3 L338.1,240.6 L338.3,242.0 L338.5,243.7    L338.6,245.6 L338.8,247.1 L339.0,248.6 L339.2,250.5 L339.3,252.0 L339.5,253.3 L339.7,253.0 L339.8,252.2    L340.0,251.0 L340.2,249.4 L340.4,248.0 L340.5,246.7 L340.7,244.9 L340.9,242.6 L341.0,240.8 L341.2,240.2    L341.4,238.5 L341.6,236.8 L341.7,236.1 L341.9,235.1 L342.1,233.9 L342.2,233.1 L342.4,232.3 L342.6,231.4    L342.8,230.5 L342.9,229.9 L343.1,229.2 L343.3,228.5 L343.4,228.4 L343.6,227.9 L343.8,227.4 L344.0,227.1    L344.1,226.9 L344.3,227.2 L344.5,227.1 L344.6,227.2 L344.8,228.4 L345.0,227.4 L345.2,227.6 L345.3,227.5    L345.5,227.4 L345.7,227.9 L345.8,228.1 L346.0,228.8 L346.2,229.6 L346.3,229.7 L346.5,230.4 L346.7,231.1    L346.9,232.1 L347.0,232.7 L347.2,233.5 L347.4,234.4 L347.5,234.9 L347.7,236.0 L347.9,237.7 L348.1,238.9    L348.2,240.0 L348.4,241.5 L348.6,242.6 L348.7,243.7 L348.9,244.7 L349.1,246.3 L349.3,247.7 L349.4,248.8    L349.6,250.2 L349.8,251.7 L349.9,252.9 L350.1,253.5 L350.3,252.8 L350.5,252.3 L350.6,251.1 L350.8,250.1    L351.0,249.1 L351.1,247.9 L351.3,246.2 L351.5,244.3 L351.7,243.4 L351.8,243.0 L352.0,240.8 L352.2,239.9    L352.3,239.3 L352.5,238.1 L352.7,237.2 L352.9,236.6 L353.0,235.7 L353.2,234.8 L353.4,234.2 L353.5,233.6    L353.7,232.7 L353.9,232.5 L354.1,232.2 L354.2,231.6 L354.4,231.3 L354.6,230.9 L354.7,231.0 L354.9,231.1    L355.1,231.0 L355.3,231.9 L355.4,231.5 L355.6,231.4 L355.8,231.3 L355.9,231.2 L356.1,231.4 L356.3,231.8    L356.5,232.0 L356.6,233.0 L356.8,233.2 L357.0,233.6 L357.1,234.3 L357.3,235.0 L357.5,235.7 L357.7,236.2    L357.8,237.1 L358.0,237.5 L358.2,238.2 L358.3,239.6 L358.5,240.9 L358.7,241.7 L358.9,243.0 L359.0,244.0    L359.2,244.7 L359.4,245.5 L359.5,246.6 L359.7,247.8 L359.9,248.7 L360.0,249.7 L360.2,251.0 L360.4,252.0    L360.6,253.2 L360.7,252.8 L360.9,252.6 L361.1,252.0 L361.2,251.1 L361.4,250.5 L361.6,249.8 L361.8,248.8    L361.9,247.0 L362.1,245.9 L362.3,246.3 L362.4,244.4 L362.6,242.9 L362.8,242.6 L363.0,241.8 L363.1,240.9    L363.3,240.2 L363.5,239.5 L363.6,238.7 L363.8,238.0 L364.0,237.5 L364.2,236.7 L364.3,236.1 L364.5,235.9    L364.7,235.3 L364.8,234.9 L365.0,234.5 L365.2,234.4 L365.4,234.6 L365.5,234.5 L365.7,234.7 L365.9,235.3    L366.0,234.7 L366.2,234.8 L366.4,234.5 L366.6,234.5 L366.7,235.0 L366.9,235.0 L367.1,235.6 L367.2,236.2    L367.4,236.2 L367.6,237.3 L367.8,237.3 L367.9,238.1 L368.1,238.4 L368.3,239.0 L368.4,239.7 L368.6,239.8    L368.8,240.8 L369.0,242.2 L369.1,243.1 L369.3,243.8 L369.5,244.7 L369.6,245.4 L369.8,246.0 L370.0,246.4    L370.2,247.4 L370.3,248.2 L370.5,248.9 L370.7,250.0 L370.8,251.0 L371.0,252.0 L371.2,252.4 L371.4,252.2    L371.5,252.0 L371.7,251.5 L371.9,251.1 L372.0,250.7 L372.2,250.3 L372.4,249.1 L372.5,247.7 L372.7,247.9    L372.9,247.9 L373.1,245.6 L373.2,245.1 L373.4,244.9 L373.6,244.0 L373.7,243.3 L373.9,242.8 L374.1,242.0    L374.3,241.4 L374.4,240.9 L374.6,240.4 L374.8,239.4 L374.9,239.2 L375.1,238.7 L375.3,238.1 L375.5,237.8    L375.6,237.5 L375.8,237.6 L376.0,237.6 L376.1,237.5 L376.3,238.2 L376.5,237.6 L376.7,237.7 L376.8,237.4    L377.0,237.1 L377.2,237.3 L377.3,237.6 L377.5,237.7 L377.7,238.5 L377.9,238.5 L378.0,239.3 L378.2,239.5    L378.4,239.7 L378.5,240.2 L378.7,240.3 L378.9,241.0 L379.1,241.1 L379.2,241.5 L379.4,242.7 L379.6,243.6    L379.7,244.0 L379.9,244.8 L380.1,245.4 L380.3,245.7 L380.4,246.0 L380.6,246.6 L380.8,247.3 L380.9,247.9    L381.1,248.7 L381.3,249.6 L381.5,250.3 L381.6,251.4 L381.8,251.2 L382.0,251.3 L382.1,251.2 L382.3,250.9    L382.5,250.8 L382.7,250.7 L382.8,250.3 L383.0,249.0 L383.2,248.6 L383.3,250.4 L383.5,247.9 L383.7,246.9    L383.9,247.1 L384.0,246.6 L384.2,245.9 L384.4,245.4 L384.5,245.0 L384.7,244.3 L384.9,243.8 L385.0,243.5    L385.2,242.7 L385.4,242.0 L385.6,241.7 L385.7,241.1 L385.9,240.6 L386.1,240.3 L386.2,240.1 L386.4,240.3    L386.6,240.1 L386.8,240.3 L386.9,240.3 L387.1,240.0 L387.3,239.9 L387.4,239.4 L387.6,239.3 L387.8,239.7    L388.0,239.5 L388.1,240.0 L388.3,240.3 L388.5,240.3 L388.6,241.8 L388.8,240.8 L389.0,241.2 L389.2,241.2    L389.3,241.5 L389.5,241.8 L389.7,241.8 L389.8,242.5 L390.0,243.5 L390.2,243.9 L390.4,244.4 L390.5,244.8    L390.7,245.1 L390.9,245.3 L391.0,245.4 L391.2,246.0 L391.4,246.5 L391.6,247.1 L391.7,247.9 L391.9,248.5    L392.1,249.6 L392.2,249.9 L392.4,250.0 L392.6,250.1 L392.8,250.2 L392.9,250.2 L393.1,250.3 L393.3,250.5    L393.4,249.7 L393.6,249.0 L393.8,250.2 L394.0,250.3 L394.1,248.3 L394.3,248.4 L394.5,248.6 L394.6,248.0    L394.8,247.6 L395.0,247.3 L395.2,246.8 L395.3,246.4 L395.5,246.1 L395.7,245.7 L395.8,244.7 L396.0,244.3    L396.2,243.7 L396.4,243.1 L396.5,242.8 L396.7,242.3 L396.9,242.4 L397.0,242.4 L397.2,242.2 L397.4,242.4    L397.6,241.9 L397.7,241.9 L397.9,241.3 L398.1,240.7 L398.2,240.9 L398.4,241.0 L398.6,240.9 L398.7,241.3    L398.9,241.1 L399.1,242.5 L399.3,241.6 L399.4,241.5 L399.6,241.7 L399.8,241.4 L399.9,241.8 L400.1,241.6    L400.3,241.8 L400.5,242.7 L400.6,243.2 L400.8,243.3 L401.0,243.8 L401.1,243.9 L401.3,244.1 L401.5,244.1    L401.7,244.3 L401.8,244.8 L402.0,245.3 L402.2,245.9 L402.3,246.5 L402.5,247.2 L402.7,248.2 L402.9,248.2    L403.0,248.5 L403.2,248.9 L403.4,249.0 L403.5,249.2 L403.7,249.6 L403.9,249.7 L404.1,248.9 L404.2,249.3    "
         id="path386" />
    </g>
  </a>
  <g
     style="fill:none; color:black; stroke:currentColor; stroke-width:1.00; stroke-linecap:butt; stroke-linejoin:miter"
     id="g388">
    <path
       stroke="rgb(  0,   0,   0)"
       d="M53.7,12.5 L53.7,277.2 L404.4,277.2 L404.4,12.5 L53.7,12.5 Z "
       id="path390" />
  </g>
</svg>
